{"glyphs":{"0":{"ha":694,"x_min":33,"x_max":661,"o":"m 347 939 q 544 847 476 938 q 638 650 611 757 q 656 548 651 597 q 661 458 661 499 q 656 369 661 418 q 639 271 651 321 q 547 71 614 161 q 347 -19 479 -19 q 148 71 215 -19 q 56 271 81 161 q 38 369 43 321 q 33 458 33 418 q 38 548 33 499 q 57 650 43 597 q 151 847 83 757 q 347 938 218 938 l 347 939 m 347 903 q 233 828 269 901 q 181 668 196 756 q 169 547 171 604 q 167 458 167 489 q 168 370 167 425 q 179 256 169 315 q 229 90 192 165 q 347 15 267 15 q 464 90 426 15 q 515 254 501 164 q 526 369 525 314 q 528 458 528 425 q 526 547 528 489 q 514 668 524 604 q 462 828 499 756 q 347 901 425 901 l 347 903 z "},"1":{"ha":694,"x_min":154,"x_max":547,"o":"m 164 0 l 164 21 q 260 37 225 22 q 296 128 296 51 l 296 758 q 296 765 296 761 q 296 771 296 768 q 286 806 294 790 q 249 822 278 822 q 244 822 246 822 q 240 822 243 822 q 217 816 232 821 q 154 792 203 811 l 154 813 l 404 939 l 415 936 l 415 103 q 442 35 415 51 q 547 19 469 19 l 547 0 l 164 0 l 164 0 z "},"2":{"ha":694,"x_min":42,"x_max":660,"o":"m 660 190 l 583 0 l 42 0 l 42 17 l 289 279 q 424 467 379 375 q 469 636 469 558 q 467 672 469 653 q 457 713 464 692 q 399 797 442 758 q 271 835 356 835 q 158 795 197 835 q 96 708 118 756 q 83 681 89 694 q 72 654 78 667 l 43 663 q 147 867 72 806 q 306 936 222 928 q 322 937 314 936 q 338 938 329 938 q 510 871 432 938 q 589 688 589 804 q 556 547 589 613 q 482 429 522 481 q 444 385 463 406 q 411 349 426 364 l 178 106 l 510 106 q 542 106 528 104 q 572 115 557 108 q 604 142 588 124 q 642 196 621 161 l 660 190 l 660 190 z "},"3":{"ha":694,"x_min":60,"x_max":599,"o":"m 213 458 l 211 476 q 374 560 306 506 q 442 710 442 614 q 442 713 442 711 q 442 718 442 715 q 401 811 439 768 q 289 854 363 854 q 191 829 231 854 q 126 774 151 804 q 100 736 111 754 q 83 707 89 718 l 63 714 q 140 856 92 807 q 242 922 189 904 q 290 934 267 931 q 335 938 313 938 q 467 904 421 938 q 532 831 513 871 q 547 787 543 808 q 551 750 551 765 q 522 647 551 694 q 422 556 492 600 q 456 540 438 549 q 494 518 475 532 q 566 441 533 492 q 599 299 599 390 q 488 66 599 151 q 214 -19 378 -19 q 183 -18 203 -19 q 142 -11 163 -17 q 85 11 111 -4 q 60 58 60 26 q 72 91 60 81 q 97 106 83 101 q 106 106 101 106 q 114 107 110 107 q 140 103 128 107 q 165 93 153 99 q 185 81 175 88 q 207 68 196 75 q 256 42 231 54 q 313 29 282 29 q 449 91 404 29 q 499 228 494 153 q 499 235 499 232 q 499 243 499 239 q 494 284 499 257 q 475 340 489 311 q 443 388 463 365 q 393 426 424 411 q 379 434 386 431 q 365 440 372 438 q 315 453 342 450 q 247 457 289 457 q 231 457 239 457 q 213 457 222 457 l 213 458 z "},"4":{"ha":694,"x_min":17,"x_max":656,"o":"m 656 321 l 656 232 l 514 232 l 514 0 l 407 0 l 407 232 l 17 232 l 17 321 l 453 939 l 514 939 l 514 321 l 656 321 l 656 321 m 406 321 l 406 793 l 403 793 l 72 321 l 406 321 l 406 321 z "},"5":{"ha":694,"x_min":44,"x_max":608,"o":"m 251 810 l 193 692 q 242 681 217 686 q 292 671 267 676 q 413 628 354 656 q 517 547 472 601 q 539 519 529 532 q 557 492 549 506 q 584 418 576 458 q 592 311 592 378 q 488 76 592 172 q 219 -19 385 -19 q 91 3 138 -19 q 44 63 44 25 q 45 74 44 67 q 47 88 46 81 q 63 108 51 99 q 100 117 75 117 q 158 103 133 117 q 206 74 183 90 q 213 69 210 71 q 219 64 217 67 q 258 40 239 50 q 301 31 278 31 q 316 31 308 31 q 331 33 324 32 q 443 104 392 44 q 494 278 494 164 q 415 461 494 397 q 240 550 335 525 q 167 565 203 560 q 99 571 131 569 q 92 574 94 571 q 89 582 89 576 q 89 584 89 583 q 89 586 89 585 q 90 587 89 586 q 90 589 90 588 l 242 919 l 532 919 q 568 926 556 918 q 592 947 581 935 q 593 951 592 950 q 596 954 594 953 l 608 946 l 556 822 q 544 810 553 811 q 524 808 535 808 l 251 810 l 251 810 z "},"6":{"ha":694,"x_min":47,"x_max":650,"o":"m 619 950 l 622 928 q 357 800 457 900 q 224 586 257 700 q 217 558 219 572 q 211 531 214 544 q 260 559 239 547 q 301 579 282 571 q 343 590 321 586 q 394 593 365 593 q 578 517 506 593 q 650 301 650 442 q 644 239 650 275 q 625 165 639 203 q 536 38 599 96 q 353 -19 474 -19 q 139 83 231 -19 q 47 403 47 185 q 208 777 47 614 q 619 949 368 940 l 619 950 m 336 531 q 325 529 331 529 q 314 528 319 529 q 255 516 283 526 q 204 485 226 506 q 185 446 194 475 q 176 354 176 417 q 236 99 176 179 q 374 18 296 18 q 482 74 439 18 q 525 247 525 129 q 486 442 525 354 q 336 529 447 529 l 336 531 z "},"7":{"ha":694,"x_min":28,"x_max":624,"o":"m 624 919 l 624 897 l 329 -11 l 239 -11 l 514 817 l 213 817 q 133 799 161 815 q 82 750 106 782 q 67 727 75 739 q 51 703 60 715 l 28 715 l 88 858 l 110 919 l 624 919 l 624 919 z "},"8":{"ha":694,"x_min":78,"x_max":618,"o":"m 78 203 q 94 292 78 256 q 142 364 110 329 q 192 408 164 385 q 258 460 221 432 q 188 524 218 496 q 136 578 157 551 q 99 643 111 610 q 86 722 86 676 q 153 867 86 814 q 299 933 219 921 q 323 937 311 936 q 346 938 335 938 q 526 878 464 938 q 589 740 589 819 q 549 623 589 668 q 463 547 510 578 q 432 529 447 538 q 403 514 417 521 q 560 374 515 433 q 614 260 604 314 q 617 233 617 246 q 618 207 618 221 q 613 163 618 188 q 596 111 608 138 q 513 21 572 61 q 342 -19 454 -19 q 151 44 218 -19 q 78 186 85 108 q 78 194 78 190 q 78 201 78 197 l 78 203 m 294 433 q 277 417 286 425 q 258 400 268 410 q 207 330 231 374 q 183 215 183 286 q 229 76 183 135 q 360 18 275 18 q 469 60 425 18 q 513 174 513 101 q 503 236 513 208 q 472 289 493 264 q 403 353 446 319 q 294 432 360 386 l 294 433 m 189 760 q 219 665 189 707 q 286 593 250 624 q 328 561 308 575 q 363 539 349 547 q 383 553 372 546 q 404 568 393 560 q 465 636 438 594 q 493 747 493 678 q 456 851 493 804 q 338 899 418 899 q 231 860 267 899 q 190 775 196 822 q 189 767 189 771 q 189 758 189 763 l 189 760 z "},"9":{"ha":694,"x_min":42,"x_max":638,"o":"m 82 -31 l 78 -3 q 278 73 199 15 q 404 196 357 131 q 475 327 454 267 q 499 401 496 388 l 496 406 q 422 357 461 375 q 344 332 383 339 q 317 329 331 331 q 292 328 304 328 q 127 388 183 328 q 53 521 71 449 q 44 563 47 542 q 42 603 42 583 q 120 840 42 742 q 333 938 199 938 q 549 830 461 938 q 638 549 638 722 q 492 157 638 328 q 82 -31 347 -14 l 82 -31 m 503 493 l 503 547 q 501 616 503 571 q 490 711 500 661 q 438 840 476 781 q 318 899 400 899 q 208 834 240 899 q 171 692 175 769 q 169 674 169 683 q 169 656 169 665 q 171 612 169 635 q 178 565 172 589 q 227 443 189 499 q 347 388 265 388 q 368 389 357 388 q 390 393 379 390 q 438 410 415 400 q 476 432 460 421 q 478 434 476 433 q 481 436 479 435 q 499 460 494 447 q 503 492 503 474 l 503 493 z "}," ":{"ha":347,"x_min":0,"x_max":0,"o":""}," ":{"ha":347,"x_min":0,"x_max":0,"o":""},"!":{"ha":463,"x_min":181,"x_max":331,"o":"m 254 -12 q 242 -12 249 -12 q 229 -8 236 -11 q 196 13 211 -3 q 181 57 181 28 q 202 110 181 89 q 254 132 224 132 q 308 110 286 132 q 331 57 331 88 q 313 10 331 26 q 274 -10 294 -6 q 263 -12 268 -11 q 254 -12 258 -12 l 254 -12 m 263 244 l 244 244 l 232 394 q 222 479 229 425 q 207 592 215 533 q 189 729 197 664 q 181 821 181 794 q 181 830 181 825 q 181 840 181 835 q 199 907 183 876 q 253 938 215 938 q 311 906 294 938 q 328 825 328 875 q 328 801 328 814 q 325 775 328 789 l 263 244 l 263 244 z "},"\"":{"ha":567,"x_min":107,"x_max":460,"o":"m 181 599 l 151 599 q 142 645 147 618 q 132 703 138 672 q 131 713 132 708 q 129 724 129 718 q 114 819 121 774 q 107 881 107 864 q 122 919 107 906 q 157 936 138 933 q 162 938 160 938 q 167 938 164 938 q 172 938 169 938 q 179 936 175 938 q 210 918 196 932 q 225 881 225 904 q 218 819 225 864 q 203 724 211 774 q 201 713 203 718 q 200 703 200 708 q 190 645 194 672 q 181 597 185 618 l 181 599 m 415 599 l 386 599 q 377 645 382 618 q 367 703 372 672 q 365 713 367 708 q 364 724 364 718 q 349 819 356 774 q 342 881 342 864 q 357 919 342 906 q 392 936 372 933 q 397 938 394 938 q 401 938 399 938 q 407 938 404 938 q 414 936 410 938 q 445 918 431 932 q 460 881 460 904 q 453 819 460 864 q 438 724 446 774 q 436 713 438 718 q 435 703 435 708 q 424 645 429 672 q 415 597 419 618 l 415 599 z "},"#":{"ha":694,"x_min":7,"x_max":689,"o":"m 654 376 l 654 300 l 503 300 l 460 0 l 379 0 l 422 300 l 236 300 l 190 0 l 110 0 l 156 300 l 7 300 l 7 376 l 168 376 l 197 563 l 44 563 l 44 639 l 208 639 l 251 919 l 332 919 l 289 639 l 474 639 l 515 919 l 596 919 l 554 639 l 689 639 l 689 563 l 543 563 l 515 376 l 654 376 l 654 376 m 463 563 l 278 563 l 249 376 l 435 376 l 463 563 l 463 563 z "},"$":{"ha":694,"x_min":61,"x_max":635,"o":"m 590 694 l 569 694 q 517 813 554 774 q 438 867 479 851 q 401 878 418 874 q 367 883 383 882 l 367 543 q 452 492 414 515 q 521 447 490 469 q 606 360 578 407 q 635 240 635 314 q 556 67 635 121 q 367 0 476 14 l 367 -121 l 319 -121 l 319 0 q 200 13 251 0 q 114 40 149 25 q 84 56 97 49 q 61 69 71 64 l 61 251 l 82 251 q 164 91 106 144 q 319 38 222 38 l 319 431 q 149 544 225 482 q 72 708 72 607 q 72 715 72 711 q 72 721 72 718 q 135 852 78 792 q 319 921 193 913 l 319 1010 l 367 1010 l 367 922 q 417 914 390 918 q 472 903 444 910 q 535 883 504 896 q 590 847 565 869 l 590 694 l 590 694 m 367 407 l 367 39 q 398 44 379 40 q 436 57 417 49 q 497 108 469 74 q 525 208 525 142 q 491 309 525 271 q 406 382 457 347 q 386 394 396 388 q 367 406 376 400 l 367 407 m 318 565 l 318 885 q 235 853 264 875 q 193 808 206 832 q 178 768 181 788 q 175 738 175 749 q 197 667 175 697 q 256 608 218 636 q 285 586 269 597 q 318 564 301 575 l 318 565 z "},"%":{"ha":1157,"x_min":85,"x_max":1072,"o":"m 881 939 l 346 -18 l 279 -18 l 764 846 l 761 849 q 756 844 758 846 q 750 840 753 843 q 696 819 726 829 q 615 808 665 808 q 561 811 579 808 q 529 819 543 814 q 526 822 528 821 q 524 822 525 822 q 526 815 525 818 q 528 807 526 811 q 532 787 531 797 q 533 760 533 776 q 528 703 533 733 q 514 644 524 674 q 417 476 486 553 q 247 400 349 400 q 220 403 235 400 q 190 411 206 406 q 118 470 151 428 q 85 589 85 513 q 89 635 85 611 q 101 682 93 658 q 210 844 133 771 q 383 918 286 918 q 449 908 428 918 q 485 883 469 897 q 487 883 486 883 q 489 881 488 882 q 491 878 490 879 q 493 876 492 878 q 534 853 510 864 q 608 843 558 843 q 726 865 681 843 q 801 915 771 888 q 815 926 808 921 q 826 938 821 932 l 881 939 l 881 939 m 276 449 q 423 540 356 447 q 497 744 490 633 q 499 756 499 750 q 499 767 499 761 q 498 781 499 774 q 496 794 497 788 q 492 812 494 803 q 486 832 490 821 q 426 854 440 843 q 406 871 413 865 q 399 875 403 874 q 390 876 396 876 q 372 874 381 876 q 353 865 363 871 q 278 791 314 844 q 218 676 242 738 q 198 610 206 643 q 190 550 190 576 q 213 470 190 493 q 276 447 236 447 l 276 449 m 921 515 q 949 513 933 514 q 983 506 965 511 q 1044 464 1017 496 q 1072 361 1072 432 q 1069 312 1072 338 q 1058 261 1065 286 q 964 81 1033 163 q 794 0 894 0 q 660 58 697 0 q 624 189 624 117 q 626 222 624 206 q 632 256 628 239 q 741 433 658 351 q 921 514 824 514 l 921 515 m 939 471 q 840 417 882 469 q 771 301 797 365 q 740 209 750 253 q 729 146 729 165 q 730 125 729 138 q 735 97 731 113 q 759 58 740 76 q 818 40 778 40 q 936 103 883 40 q 1015 240 989 165 q 1031 298 1025 269 q 1036 351 1036 326 q 1008 436 1036 403 q 939 469 981 469 l 939 471 z "},"&":{"ha":1081,"x_min":58,"x_max":1042,"o":"m 988 592 l 988 563 q 985 561 986 561 q 985 561 985 561 q 917 543 947 556 q 857 479 886 531 l 821 417 q 797 373 807 390 q 778 342 788 356 q 775 337 776 339 q 772 332 774 335 q 739 283 758 310 q 682 207 719 257 q 701 183 686 200 q 740 144 717 165 q 808 99 769 119 q 888 79 846 79 q 962 96 936 79 q 1010 139 988 113 q 1015 147 1013 143 q 1021 153 1018 150 l 1042 139 q 1030 112 1042 136 q 993 60 1018 88 q 928 6 968 29 q 832 -18 888 -18 q 731 5 776 -18 q 650 56 685 28 q 619 83 633 69 q 596 107 606 96 q 572 86 585 97 q 542 63 558 75 q 439 7 500 32 q 288 -18 378 -18 q 247 -15 269 -18 q 203 -6 225 -12 q 103 55 149 8 q 58 199 58 101 q 107 347 58 283 q 214 451 156 410 q 246 473 231 463 q 276 492 261 483 l 329 524 q 303 595 314 564 q 288 654 293 626 q 282 686 283 671 q 281 719 281 701 q 281 740 281 729 q 285 760 282 750 q 349 882 297 826 q 493 938 401 938 q 626 894 569 938 q 682 771 682 850 q 635 644 682 692 q 532 564 588 596 q 499 547 515 556 q 467 532 482 539 q 551 384 504 457 q 650 246 597 311 q 675 278 661 260 q 703 319 689 297 q 730 363 717 340 q 754 408 743 386 q 770 454 764 432 q 776 497 776 476 q 751 548 776 538 q 688 561 726 558 l 688 592 l 988 592 l 988 592 m 186 250 q 239 110 186 168 q 365 53 292 53 q 439 68 389 53 q 561 143 489 83 q 482 250 519 193 q 410 365 444 307 q 379 421 394 393 q 350 475 364 449 q 322 457 338 467 q 292 435 307 447 q 219 360 253 406 q 186 249 186 315 l 186 250 m 390 774 q 392 745 390 758 q 396 718 393 732 q 417 644 403 681 q 446 576 431 608 q 478 594 457 582 q 522 624 499 606 q 581 688 554 650 q 608 776 608 725 q 576 861 608 829 q 499 893 543 893 q 423 865 456 893 q 390 772 390 838 l 390 774 z "},"'":{"ha":250,"x_min":67,"x_max":185,"o":"m 140 599 l 111 599 q 102 645 107 618 q 92 703 97 672 q 90 713 92 708 q 89 724 89 718 q 74 819 81 774 q 67 881 67 864 q 82 919 67 906 q 117 936 97 933 q 122 938 119 938 q 126 938 124 938 q 132 938 129 938 q 139 936 135 938 q 170 918 156 932 q 185 881 185 904 q 178 819 185 864 q 163 724 171 774 q 161 713 163 718 q 160 703 160 708 q 149 645 154 672 q 140 597 144 618 l 140 599 z "},"(":{"ha":463,"x_min":67,"x_max":422,"o":"m 410 939 l 422 917 q 393 892 408 904 q 363 865 378 879 q 241 696 296 804 q 186 372 186 588 q 190 236 186 318 q 218 67 194 154 q 289 -91 242 -14 q 422 -224 336 -168 l 406 -246 q 378 -230 392 -239 q 351 -210 365 -221 q 288 -155 319 -186 q 229 -92 257 -124 q 203 -60 215 -76 q 181 -28 192 -43 q 98 133 129 46 q 67 363 67 219 q 158 692 67 542 q 410 938 249 842 l 410 939 z "},")":{"ha":463,"x_min":40,"x_max":396,"o":"m 53 -246 l 40 -224 q 69 -200 54 -212 q 100 -174 85 -187 q 222 -5 167 -112 q 276 318 276 103 q 272 454 276 372 q 244 624 268 536 q 174 783 221 706 q 40 915 126 860 l 57 939 q 84 922 71 931 q 111 901 97 913 q 174 847 143 878 q 233 783 206 815 q 259 751 247 768 q 282 719 271 735 q 365 558 333 644 q 396 328 396 472 q 305 -1 396 149 q 53 -246 214 -150 l 53 -246 z "},"*":{"ha":694,"x_min":96,"x_max":600,"o":"m 96 532 q 116 576 96 564 q 169 594 136 588 q 242 613 201 601 q 325 653 282 624 l 310 664 q 285 676 297 671 q 260 686 272 682 q 219 698 239 693 q 181 707 199 703 q 120 726 144 714 q 96 772 96 739 q 97 781 96 775 q 101 794 99 788 q 116 812 107 804 q 142 819 125 819 q 168 814 157 819 q 189 799 179 808 q 234 749 208 779 q 315 685 260 718 q 324 679 319 682 q 335 674 329 676 l 335 693 q 329 760 335 733 q 318 807 324 788 q 313 821 315 814 q 308 835 310 828 q 302 858 304 846 q 300 883 300 869 q 308 918 300 907 q 326 933 317 929 q 342 937 335 936 q 351 938 349 938 q 380 928 369 938 q 394 906 390 918 q 398 894 397 900 q 399 883 399 888 q 393 850 399 869 q 381 808 388 831 q 367 760 372 785 q 361 707 361 735 l 361 672 l 371 678 q 409 703 392 689 q 442 733 426 718 q 482 776 464 756 q 517 810 500 797 q 532 819 524 815 q 549 822 540 822 q 558 822 553 822 q 569 818 564 821 q 590 803 581 814 q 599 772 599 792 q 583 728 599 739 q 540 713 568 718 q 469 696 511 707 q 372 651 426 685 l 383 646 q 461 610 424 619 q 528 594 499 601 q 581 578 561 589 q 600 535 600 567 q 585 497 600 510 q 550 485 569 485 q 520 494 533 485 q 493 517 507 503 q 474 538 483 526 q 453 563 464 550 q 417 599 436 582 q 371 628 397 617 l 361 633 l 361 624 q 367 540 361 571 q 381 488 374 508 q 390 464 386 474 q 397 444 394 454 q 399 435 399 440 q 400 425 400 431 q 400 419 400 422 q 399 413 400 417 q 381 381 394 396 q 346 367 368 367 q 344 367 344 367 q 342 367 343 367 q 311 382 325 368 q 297 421 297 396 q 303 453 297 435 q 317 494 310 472 q 330 542 324 517 q 336 596 336 568 q 336 609 336 603 q 335 622 336 615 l 333 633 q 289 602 304 613 q 264 583 274 592 q 259 578 261 581 q 254 575 257 576 q 242 563 249 569 q 228 546 236 556 q 195 510 207 522 q 172 492 183 497 q 160 488 167 489 q 143 486 153 486 q 115 494 125 486 q 100 513 104 503 q 97 522 97 518 q 96 531 96 526 l 96 532 z "},"+":{"ha":783,"x_min":42,"x_max":742,"o":"m 346 397 l 346 703 l 438 703 l 438 397 l 742 397 l 742 306 l 438 306 l 438 0 l 346 0 l 346 306 l 42 306 l 42 397 l 346 397 l 346 397 z "},",":{"ha":347,"x_min":78,"x_max":271,"o":"m 115 -196 l 103 -169 q 117 -160 110 -165 q 129 -151 124 -156 q 199 -76 182 -111 q 217 -22 217 -40 q 210 -8 217 -12 q 197 -3 204 -3 q 192 -3 196 -3 q 185 -6 189 -4 q 176 -8 182 -7 q 164 -8 171 -8 q 152 -8 158 -8 q 139 -6 146 -7 q 97 13 117 -1 q 78 60 78 28 q 97 114 78 96 q 138 138 115 132 q 148 140 143 139 q 158 140 153 140 q 181 138 167 140 q 208 128 194 135 q 251 89 232 117 q 271 7 271 61 q 244 -78 271 -37 q 186 -149 218 -119 q 147 -179 165 -167 q 115 -196 128 -192 l 115 -196 z "},"-":{"ha":463,"x_min":54,"x_max":396,"o":"m 54 357 l 396 357 l 396 269 l 54 269 l 54 357 l 54 357 z "},".":{"ha":347,"x_min":97,"x_max":251,"o":"m 174 -15 q 161 -14 168 -15 q 147 -10 154 -12 q 113 13 128 -3 q 97 58 97 29 q 120 115 97 92 q 174 138 143 138 q 228 114 206 138 q 251 58 251 90 q 236 15 251 31 q 201 -10 221 -1 q 188 -14 194 -12 q 174 -15 181 -15 l 174 -15 z "},"/":{"ha":386,"x_min":-12,"x_max":399,"o":"m 399 939 l 82 -19 l -12 -19 l 306 939 l 399 939 l 399 939 z "},":":{"ha":386,"x_min":113,"x_max":267,"o":"m 189 -15 q 176 -14 183 -15 q 163 -10 169 -12 q 128 13 143 -3 q 113 58 113 29 q 135 115 113 92 q 189 138 158 138 q 244 114 221 138 q 267 58 267 90 q 251 15 267 31 q 217 -10 236 -1 q 203 -14 210 -12 q 189 -15 196 -15 l 189 -15 m 189 483 q 176 483 183 482 q 163 488 169 485 q 128 511 143 494 q 113 557 113 528 q 135 613 113 590 q 189 636 158 636 q 244 613 221 636 q 267 557 267 589 q 251 513 267 529 q 217 488 236 496 q 203 483 210 485 q 189 482 196 482 l 189 483 z "},";":{"ha":386,"x_min":111,"x_max":304,"o":"m 149 -196 l 136 -169 q 150 -160 143 -165 q 163 -151 157 -156 q 233 -76 215 -111 q 250 -22 250 -40 q 244 -8 250 -12 q 231 -3 238 -3 q 226 -3 229 -3 q 218 -6 222 -4 q 210 -8 215 -7 q 197 -8 204 -8 q 138 6 164 -8 q 111 60 111 21 q 124 108 111 92 q 154 132 138 125 q 176 139 165 138 q 193 140 188 140 q 215 138 201 140 q 243 128 229 135 q 285 88 267 115 q 304 7 304 60 q 277 -80 304 -37 q 217 -151 250 -122 q 179 -180 197 -168 q 149 -196 161 -192 l 149 -196 m 189 483 q 176 483 183 482 q 163 488 169 485 q 128 511 143 494 q 113 557 113 528 q 135 613 113 590 q 189 636 158 636 q 244 613 221 636 q 267 557 267 589 q 251 513 267 529 q 217 488 236 496 q 203 483 210 485 q 189 482 196 482 l 189 483 z "},"<":{"ha":783,"x_min":39,"x_max":744,"o":"m 744 83 l 744 -11 l 39 308 l 39 394 l 744 714 l 744 619 l 154 351 l 744 83 l 744 83 z "},"=":{"ha":783,"x_min":42,"x_max":742,"o":"m 742 258 l 742 167 l 42 167 l 42 258 l 742 258 l 742 258 m 742 536 l 742 444 l 42 444 l 42 536 l 742 536 l 742 536 z "},">":{"ha":783,"x_min":39,"x_max":744,"o":"m 39 83 l 629 351 l 39 619 l 39 714 l 744 394 l 744 308 l 39 -11 l 39 83 l 39 83 z "},"?":{"ha":617,"x_min":94,"x_max":575,"o":"m 329 -11 q 317 -10 324 -11 q 304 -7 311 -10 q 271 14 286 -1 q 256 58 256 29 q 277 112 256 90 q 329 133 299 133 q 383 111 361 133 q 406 58 406 89 q 388 12 406 28 q 349 -8 369 -4 q 338 -10 343 -10 q 329 -11 333 -11 l 329 -11 m 339 228 l 315 228 q 316 246 315 236 q 318 265 317 256 q 326 317 321 292 q 338 364 331 342 q 349 402 343 386 q 357 424 354 418 l 396 514 q 398 517 397 515 q 400 521 399 519 q 417 566 408 542 q 431 617 425 590 q 443 672 439 644 q 447 719 447 699 q 447 731 447 725 q 446 743 447 738 q 403 848 440 800 q 294 896 367 896 q 281 895 288 896 q 268 893 275 894 q 197 863 229 886 q 165 811 165 840 q 170 791 165 800 q 183 774 175 782 q 187 769 185 771 q 192 764 189 767 q 210 740 201 753 q 218 707 218 726 q 217 699 218 703 q 215 690 217 694 q 199 663 211 675 q 164 650 186 650 q 108 676 122 650 q 94 738 94 703 q 145 867 94 821 q 257 929 196 914 q 290 935 274 933 q 321 938 306 938 q 342 937 332 938 q 364 933 353 936 q 459 904 414 926 q 525 857 504 882 q 538 840 532 849 q 549 824 544 832 q 569 774 564 800 q 575 707 575 747 q 569 668 575 689 q 556 625 564 647 q 532 578 546 601 q 504 535 518 556 q 488 511 496 522 q 471 490 479 500 q 435 447 451 468 q 406 407 419 426 q 365 326 381 368 q 339 226 349 285 l 339 228 z "},"@":{"ha":1279,"x_min":161,"x_max":1124,"o":"m 956 101 l 972 60 q 835 4 907 28 q 682 -19 764 -19 q 354 78 475 -19 q 189 293 233 175 q 168 367 175 331 q 161 436 161 403 q 312 799 161 661 q 668 938 463 938 q 992 821 860 938 q 1124 528 1124 704 q 1121 484 1124 507 q 1113 439 1118 461 q 1027 273 1090 349 q 865 197 964 197 q 801 213 826 197 q 763 249 776 229 q 747 276 751 263 q 742 294 742 289 q 742 296 742 296 q 742 296 742 296 l 739 297 q 724 276 735 288 q 697 251 713 264 q 645 218 675 233 q 579 199 615 203 q 577 199 578 199 q 575 199 576 199 q 550 201 564 199 q 521 211 536 203 q 469 260 493 224 q 446 371 446 296 q 455 436 446 397 q 482 517 464 475 q 572 646 513 588 q 719 704 631 704 q 780 685 761 704 q 811 644 799 667 q 814 640 813 642 q 817 635 815 638 q 817 634 817 635 q 818 632 818 633 l 832 686 l 928 686 l 838 333 q 835 319 836 326 q 835 303 835 313 q 835 296 835 300 q 836 289 835 292 q 850 258 839 272 q 888 243 861 243 q 999 306 954 243 q 1058 446 1043 369 q 1066 487 1064 467 q 1068 526 1068 507 q 1064 574 1068 550 q 1051 624 1060 599 q 919 810 1018 725 q 668 894 821 894 q 393 774 508 894 q 278 422 278 654 q 389 153 278 274 q 681 33 500 33 q 819 49 763 33 q 928 88 876 65 q 942 94 935 90 q 956 100 949 97 l 956 101 m 794 554 q 781 620 794 597 q 735 643 767 643 q 700 635 719 643 q 660 614 681 628 q 581 522 617 583 q 544 375 544 461 q 570 285 544 313 q 632 258 596 258 q 658 265 644 258 q 688 283 672 271 q 753 381 722 314 q 794 553 785 449 l 794 554 z "},"A":{"ha":1003,"x_min":21,"x_max":981,"o":"m 981 26 l 981 0 l 626 0 l 626 26 q 694 32 665 25 q 724 78 724 39 q 721 97 724 86 q 714 119 718 108 q 711 128 713 124 q 708 138 710 133 q 703 153 706 146 q 697 165 700 160 l 640 300 l 276 300 l 213 138 q 210 130 211 133 q 208 122 208 126 q 203 102 204 113 q 201 83 201 92 q 218 43 201 56 q 256 28 235 31 q 277 25 267 25 q 296 25 288 25 l 296 0 l 21 0 l 21 26 q 56 31 38 26 q 92 56 74 36 q 112 84 101 67 q 133 122 122 101 q 146 147 140 135 q 157 172 151 160 q 177 215 168 194 q 193 253 186 236 l 482 936 l 510 936 l 856 147 q 878 97 868 117 q 899 64 889 78 q 933 34 915 42 q 981 25 951 26 l 981 26 m 300 357 l 621 357 l 460 739 l 300 357 l 300 357 z "},"B":{"ha":926,"x_min":24,"x_max":824,"o":"m 24 893 l 24 919 l 413 919 q 482 915 443 918 q 561 906 521 913 q 709 840 642 889 q 776 683 776 790 q 742 566 776 606 q 667 507 707 526 q 626 493 646 499 q 592 483 607 488 l 592 482 q 753 408 682 463 q 824 243 824 353 q 817 194 824 226 q 790 128 811 163 q 692 40 761 79 q 488 0 622 0 l 24 0 l 24 26 q 134 52 111 28 q 157 150 157 76 l 157 768 q 133 866 157 844 q 24 892 110 888 l 24 893 m 299 453 l 299 108 q 322 59 299 68 q 404 50 344 50 q 451 51 425 50 q 506 58 478 53 q 615 112 565 71 q 664 249 664 153 q 621 374 664 335 q 524 431 578 414 q 522 431 522 431 q 519 432 521 432 q 440 447 485 442 q 299 451 396 451 l 299 453 m 299 826 l 299 507 l 431 508 q 471 509 443 507 q 529 521 499 511 q 601 569 568 535 q 635 675 635 604 q 583 810 635 769 q 468 861 531 850 q 429 865 449 864 q 392 867 410 867 q 372 867 381 867 q 354 867 363 867 q 341 865 347 865 q 329 865 335 865 q 303 853 308 865 q 299 825 299 840 l 299 826 z "},"C":{"ha":926,"x_min":39,"x_max":879,"o":"m 861 626 l 829 626 q 727 808 803 735 q 524 882 651 882 q 488 880 507 882 q 451 872 469 878 q 380 845 415 864 q 315 797 344 826 q 307 789 311 793 q 299 779 303 785 q 231 665 261 739 q 200 456 200 590 q 305 138 200 235 q 540 40 410 40 q 681 65 621 40 q 783 119 742 90 q 824 153 807 136 q 854 181 842 169 l 879 157 q 856 127 879 154 q 788 68 833 100 q 671 8 742 35 q 503 -19 600 -19 q 481 -19 492 -19 q 460 -18 469 -18 q 170 105 301 -6 q 39 458 39 215 q 185 815 39 692 q 511 938 332 938 q 597 931 557 938 q 668 915 638 924 q 722 899 700 906 q 756 892 744 892 q 768 892 758 892 q 789 899 778 893 q 807 912 799 903 q 819 938 815 921 l 849 939 l 861 626 l 861 626 z "},"D":{"ha":1003,"x_min":22,"x_max":951,"o":"m 22 0 l 22 26 q 123 53 101 29 q 144 150 144 78 l 144 768 q 124 865 144 844 q 22 892 103 886 l 22 919 l 397 919 q 799 803 647 918 q 951 456 951 689 q 946 385 951 422 q 929 310 940 349 q 775 97 892 193 q 417 0 658 0 l 22 0 l 22 0 m 286 814 l 286 108 q 303 61 286 72 q 369 50 319 50 q 454 54 397 50 q 574 81 511 58 q 729 197 658 113 q 800 454 800 281 q 772 624 800 542 q 671 769 743 706 q 552 840 621 814 q 351 867 483 867 q 294 850 303 867 q 286 813 286 833 l 286 814 z "},"E":{"ha":849,"x_min":17,"x_max":829,"o":"m 829 235 l 767 0 l 17 0 l 17 26 q 110 49 83 29 q 138 150 138 69 l 138 768 q 110 867 138 849 q 17 892 82 886 l 17 919 l 754 919 l 758 721 l 724 721 q 668 839 708 813 q 513 865 628 865 l 325 867 q 291 860 303 865 q 279 818 279 854 l 279 511 l 493 511 q 609 538 585 510 q 646 638 633 567 q 646 640 646 639 q 646 642 646 640 l 678 643 l 678 321 l 646 321 q 606 426 633 403 q 493 451 579 450 l 279 456 l 279 111 q 305 59 279 67 q 486 51 331 51 q 681 90 617 51 q 790 233 744 128 l 829 235 l 829 235 z "},"F":{"ha":772,"x_min":17,"x_max":758,"o":"m 665 321 l 633 321 q 590 428 622 407 q 481 451 558 450 l 279 456 l 279 151 q 306 50 279 72 q 406 25 332 28 l 406 0 l 17 0 l 17 26 q 116 55 94 29 q 138 165 138 81 l 138 768 q 110 867 138 849 q 17 892 82 886 l 17 919 l 754 919 l 758 721 l 724 721 q 668 839 708 813 q 513 865 628 865 l 324 867 q 288 858 297 865 q 279 818 279 850 l 279 511 l 481 511 q 595 537 567 510 q 633 642 624 564 l 665 643 l 665 321 l 665 321 z "},"G":{"ha":1003,"x_min":44,"x_max":985,"o":"m 985 492 l 985 467 q 982 465 983 465 q 979 465 981 465 q 912 446 936 461 q 888 358 888 431 l 888 81 q 864 59 888 72 q 801 32 840 46 q 716 4 764 17 q 619 -15 668 -8 q 584 -18 601 -17 q 550 -19 567 -19 q 502 -18 526 -19 q 453 -12 478 -17 q 294 33 371 0 q 160 128 217 67 q 74 263 104 189 q 44 472 44 336 q 172 792 44 647 q 519 938 299 938 q 611 931 572 938 q 679 915 650 924 q 730 899 708 906 q 768 892 751 892 q 781 893 772 892 q 800 899 790 894 q 821 913 811 904 q 833 938 831 922 l 864 939 l 875 646 l 843 646 q 830 678 838 661 q 814 713 822 694 q 717 829 781 776 q 539 882 654 882 q 484 877 513 882 q 425 861 456 872 q 272 733 342 829 q 203 443 203 638 q 302 144 203 254 q 563 35 401 35 q 565 35 564 35 q 567 35 565 35 q 694 57 636 35 q 753 117 753 79 l 753 343 q 730 442 753 424 q 643 464 707 460 q 637 465 640 464 q 631 465 633 465 l 631 492 l 985 492 l 985 492 z "},"H":{"ha":1003,"x_min":26,"x_max":975,"o":"m 26 0 l 26 26 q 131 58 114 29 q 149 165 149 88 l 149 768 q 126 865 149 844 q 26 892 104 886 l 26 919 l 413 919 l 413 893 q 312 863 333 886 q 290 767 290 840 l 290 499 l 711 499 l 711 768 q 689 865 711 844 q 589 892 667 886 l 589 919 l 975 919 l 975 893 q 874 863 896 886 q 853 767 853 840 l 853 151 q 874 56 853 82 q 975 25 894 31 l 975 0 l 589 0 l 589 26 q 694 58 676 29 q 711 165 711 88 l 711 438 l 290 438 l 290 151 q 311 56 290 82 q 413 25 332 31 l 413 0 l 26 0 l 26 0 z "},"I":{"ha":463,"x_min":25,"x_max":438,"o":"m 25 0 l 25 26 q 137 52 114 28 q 160 150 160 76 l 160 768 q 135 866 160 844 q 25 892 111 888 l 25 919 l 438 919 l 438 893 q 331 869 361 889 q 301 767 301 850 l 301 151 q 331 49 301 69 q 438 25 361 28 l 438 0 l 25 0 l 25 0 z "},"J":{"ha":540,"x_min":14,"x_max":514,"o":"m 386 768 l 386 254 q 349 85 386 142 q 267 6 311 28 q 198 -16 231 -12 q 153 -19 165 -19 q 87 -10 113 -19 q 49 10 61 0 q 47 12 47 11 q 44 14 46 13 q 21 50 28 33 q 14 81 14 67 q 15 92 14 86 q 19 104 17 97 q 40 135 25 121 q 78 149 56 149 q 128 131 114 149 q 150 90 143 113 q 153 82 151 86 q 156 74 154 78 q 167 44 160 57 q 190 32 174 32 q 230 51 215 32 q 244 124 244 69 l 244 768 q 222 863 244 840 q 115 892 200 886 l 115 919 l 514 919 l 514 893 q 410 865 433 886 q 386 767 386 844 l 386 768 z "},"K":{"ha":1003,"x_min":47,"x_max":1004,"o":"m 574 893 l 574 919 l 938 919 l 938 893 q 934 892 936 892 q 931 892 932 892 q 886 886 906 889 q 849 876 867 883 q 796 845 824 867 q 726 783 768 824 l 463 524 l 786 176 q 855 101 825 132 q 913 51 885 71 q 954 32 933 39 q 999 25 975 25 q 999 25 999 25 q 1001 25 1000 25 q 1003 25 1003 25 q 1004 25 1004 25 l 1004 0 l 581 0 l 581 26 q 585 25 583 25 q 590 25 588 25 q 659 33 640 28 q 678 60 678 38 q 656 109 678 76 q 603 178 633 142 q 591 192 597 185 q 579 206 585 199 q 533 256 556 232 q 497 293 511 279 l 350 440 l 314 411 l 314 151 q 336 53 314 78 q 439 25 358 29 l 439 0 l 47 0 l 47 26 q 151 55 129 29 q 172 165 172 81 l 172 768 q 145 867 172 849 q 47 892 118 886 l 47 919 l 442 919 l 442 893 q 338 865 361 886 q 314 767 314 844 l 314 483 q 603 747 540 685 q 668 843 665 810 q 668 846 668 844 q 668 849 668 847 q 647 883 668 876 q 574 892 625 890 l 574 893 z "},"L":{"ha":849,"x_min":17,"x_max":831,"o":"m 408 919 l 408 893 q 308 868 338 888 q 279 767 279 849 l 279 111 q 306 60 279 68 q 419 53 333 53 q 656 78 576 53 q 796 240 736 104 l 831 242 l 764 0 l 17 0 l 17 26 q 110 49 83 29 q 138 150 138 69 l 138 768 q 110 867 138 849 q 17 892 82 886 l 17 919 l 408 919 l 408 919 z "},"M":{"ha":1235,"x_min":17,"x_max":1199,"o":"m 1199 919 l 1199 893 q 1106 867 1133 886 q 1078 767 1078 849 l 1078 151 q 1105 49 1078 69 q 1199 25 1132 29 l 1199 0 l 810 0 l 810 26 q 914 55 892 29 q 936 165 936 81 l 936 790 l 933 790 l 581 0 l 561 0 l 215 758 l 213 758 l 213 204 q 240 62 213 96 q 343 25 267 28 l 343 0 l 17 0 l 17 26 q 124 60 96 31 q 151 203 151 90 l 151 768 q 124 868 151 849 q 19 892 97 888 l 19 919 l 294 919 l 615 218 l 922 919 l 1199 919 l 1199 919 z "},"N":{"ha":1003,"x_min":17,"x_max":982,"o":"m 982 919 l 982 893 q 978 892 981 892 q 975 890 976 892 q 881 858 913 883 q 850 714 850 832 l 850 -15 l 826 -15 l 215 746 l 213 746 l 213 204 q 240 62 213 96 q 343 25 267 28 l 343 0 l 17 0 l 17 26 q 124 60 96 31 q 151 203 151 90 l 151 817 q 113 857 129 842 q 82 881 97 872 q 53 890 68 888 q 17 892 38 892 l 17 919 l 254 919 l 786 251 l 789 251 l 789 715 q 758 860 789 833 q 656 892 726 886 l 656 919 l 982 919 l 982 919 z "},"O":{"ha":1003,"x_min":47,"x_max":956,"o":"m 501 -19 q 180 108 313 -19 q 47 457 47 235 q 189 817 47 697 q 501 938 331 938 q 814 817 672 938 q 956 457 956 697 q 823 108 956 235 q 501 -19 690 -19 l 501 -19 m 501 31 q 707 129 617 29 q 797 458 797 229 q 715 776 797 678 q 533 886 632 874 q 517 887 525 886 q 501 888 510 888 q 485 887 493 888 q 469 886 478 886 q 288 776 371 874 q 206 458 206 678 q 296 129 206 229 q 501 29 386 29 l 501 31 z "},"P":{"ha":772,"x_min":22,"x_max":753,"o":"m 22 893 l 22 919 l 389 919 q 643 859 533 918 q 753 668 753 800 q 738 582 753 618 q 706 522 724 546 q 685 497 694 507 q 668 481 675 488 q 553 418 624 438 q 374 399 483 399 q 350 399 361 399 q 328 400 339 399 q 304 401 315 400 q 281 403 293 401 l 281 151 q 306 51 281 74 q 411 25 331 28 l 411 0 l 22 0 l 22 26 q 124 61 110 32 q 139 165 139 90 l 139 768 q 119 863 139 840 q 22 892 99 885 l 22 893 m 281 821 l 281 460 q 321 456 300 457 q 364 454 342 454 q 411 456 381 454 q 476 469 442 458 q 563 530 524 486 q 601 665 601 574 q 558 794 601 753 q 461 851 514 836 q 390 865 424 863 q 338 867 357 867 q 294 860 307 867 q 281 819 281 854 l 281 821 z "},"Q":{"ha":1003,"x_min":47,"x_max":974,"o":"m 974 -221 l 974 -246 q 959 -247 967 -246 q 943 -247 951 -247 q 924 -247 933 -247 q 908 -247 915 -247 q 642 -209 769 -247 q 433 -78 515 -171 l 368 -1 q 318 15 344 4 q 265 42 292 25 q 115 190 183 89 q 47 457 47 290 q 189 817 47 696 q 501 938 331 938 q 814 817 672 938 q 956 457 956 697 q 876 174 956 281 q 701 22 797 67 q 646 1 674 8 q 592 -10 618 -7 q 610 -33 596 -18 q 639 -67 624 -49 q 644 -71 642 -68 q 649 -76 647 -74 q 679 -105 665 -92 q 701 -125 693 -118 q 814 -192 750 -164 q 974 -221 878 -219 l 974 -221 m 501 889 q 485 887 493 888 q 469 886 478 886 q 288 776 371 874 q 206 457 206 678 q 296 129 206 229 q 501 29 386 29 q 707 129 617 29 q 797 457 797 229 q 715 776 797 678 q 533 886 632 874 q 517 887 525 886 q 501 888 510 888 l 501 889 z "},"R":{"ha":926,"x_min":24,"x_max":915,"o":"m 915 26 l 915 0 l 692 0 l 361 428 l 283 425 l 283 151 q 304 55 283 81 q 408 25 325 29 l 408 0 l 24 0 l 24 26 q 125 59 108 31 q 142 165 142 88 l 142 768 q 119 865 142 844 q 24 892 97 885 l 24 919 l 407 919 q 472 915 436 918 q 544 904 508 913 q 692 836 625 888 q 760 675 760 785 q 716 542 760 588 q 619 474 672 496 q 558 453 588 460 q 508 442 528 446 l 794 92 q 845 45 818 63 q 915 25 872 28 l 915 26 m 283 818 l 283 476 q 342 476 310 475 q 407 482 374 478 q 546 534 483 493 q 608 678 608 575 q 568 799 608 760 q 481 853 528 838 q 417 865 447 863 q 369 867 388 867 q 299 857 314 867 q 283 817 283 847 l 283 818 z "},"S":{"ha":772,"x_min":58,"x_max":682,"o":"m 621 939 l 651 643 l 617 643 q 613 656 615 649 q 610 669 611 663 q 522 815 586 749 q 358 881 458 881 q 356 881 357 881 q 354 881 356 881 q 260 847 303 879 q 218 751 218 815 q 269 642 218 688 q 390 556 321 596 q 419 538 404 546 q 450 519 435 529 q 610 403 538 468 q 682 231 682 338 q 681 212 682 221 q 679 194 681 203 q 594 47 665 114 q 389 -19 522 -19 q 317 -12 350 -19 q 257 3 283 -4 q 210 19 231 11 q 174 26 189 26 q 142 13 153 26 q 131 -14 132 0 q 131 -16 131 -15 q 131 -18 131 -17 l 100 -18 l 58 276 l 90 276 q 112 226 99 256 q 146 164 125 196 q 234 72 179 114 q 375 29 289 29 q 496 74 454 29 q 542 172 538 118 q 542 178 542 175 q 542 183 542 181 q 540 218 542 201 q 531 250 538 235 q 468 326 515 286 q 315 429 421 367 q 289 445 301 438 q 264 460 276 453 q 144 559 189 506 q 99 701 99 613 q 176 878 99 819 q 346 938 253 936 q 348 938 347 938 q 350 938 349 938 q 411 930 382 938 q 465 914 440 922 q 510 898 490 906 q 543 890 531 890 q 572 899 563 890 q 586 918 582 907 q 590 928 589 924 q 592 938 590 933 l 621 939 l 621 939 z "},"T":{"ha":849,"x_min":24,"x_max":824,"o":"m 628 26 l 628 0 l 222 0 l 222 26 q 335 59 317 29 q 353 165 353 89 l 353 861 l 278 861 q 122 828 164 860 q 57 682 81 796 l 24 683 l 32 919 l 815 919 l 824 683 l 790 683 q 726 828 768 797 q 569 860 685 860 l 494 861 l 494 151 q 517 53 494 79 q 628 25 540 28 l 628 26 z "},"U":{"ha":1003,"x_min":19,"x_max":979,"o":"m 979 919 l 979 893 q 874 853 899 883 q 849 714 849 824 l 849 353 q 847 278 849 321 q 831 190 844 235 q 734 46 808 111 q 489 -19 660 -19 q 265 39 336 -19 q 168 168 193 97 q 147 263 150 218 q 144 333 144 308 l 144 768 q 122 865 144 844 q 19 892 99 886 l 19 919 l 413 919 l 413 893 q 308 863 331 886 q 286 767 286 840 l 286 324 q 288 267 286 299 q 296 203 289 236 q 360 91 311 142 q 528 40 410 40 q 667 71 610 40 q 756 150 725 101 q 778 214 769 174 q 788 339 788 254 l 788 715 q 759 856 788 825 q 657 892 731 888 l 657 919 l 979 919 l 979 919 z "},"V":{"ha":1003,"x_min":22,"x_max":968,"o":"m 968 919 l 968 893 q 914 879 935 889 q 876 840 893 869 q 859 807 868 826 q 840 763 850 788 l 532 -15 l 511 -15 l 169 747 q 135 815 150 788 q 107 857 121 842 q 69 884 89 878 q 22 892 50 890 l 22 919 l 392 919 l 392 893 q 388 892 390 892 q 385 892 386 892 q 309 881 331 889 q 288 840 288 872 q 304 785 288 825 q 344 692 321 744 l 554 224 l 758 733 q 763 745 760 735 q 771 768 767 756 q 775 778 774 774 q 778 788 776 783 q 783 809 781 799 q 785 828 785 819 q 754 881 785 871 q 683 892 724 890 l 683 919 l 968 919 l 968 919 z "},"W":{"ha":1311,"x_min":7,"x_max":1294,"o":"m 1294 919 l 1294 893 q 1222 865 1243 883 q 1185 807 1200 847 q 1134 671 1160 740 q 1082 529 1108 601 q 1048 434 1065 482 q 1014 339 1031 386 q 952 159 982 249 q 896 -15 922 69 l 875 -15 q 827 119 857 39 q 765 282 797 199 q 760 294 763 288 q 757 306 758 300 q 701 449 728 379 q 653 571 674 519 l 439 -15 l 418 -15 q 366 135 396 50 q 303 311 336 221 q 299 324 301 318 q 294 338 296 331 q 212 564 251 457 q 150 729 172 671 q 132 775 140 754 q 115 813 124 796 q 72 870 96 853 q 7 892 49 888 l 7 919 l 347 919 l 347 893 q 278 881 300 890 q 257 844 257 872 q 258 832 257 839 q 261 818 260 825 q 265 804 263 811 q 269 792 267 797 q 270 787 269 789 q 272 783 271 785 l 472 263 l 621 654 l 575 768 q 554 815 564 794 q 536 849 544 835 q 494 883 517 876 q 435 892 472 890 l 435 919 l 806 919 l 806 893 q 789 892 797 892 q 771 890 781 892 q 722 878 744 889 q 699 839 699 867 q 710 796 699 821 q 736 731 721 771 l 919 258 l 1093 729 q 1101 751 1097 739 q 1108 778 1106 764 q 1113 804 1111 792 q 1115 828 1115 817 q 1087 877 1115 867 q 1024 892 1058 888 q 1022 892 1022 892 q 1019 892 1021 892 l 1019 919 l 1294 919 l 1294 919 z "},"X":{"ha":1003,"x_min":14,"x_max":978,"o":"m 967 919 l 967 893 q 966 892 967 892 q 964 892 965 892 q 927 888 944 890 q 893 879 910 885 q 835 843 865 869 q 760 761 806 817 l 557 510 l 824 129 q 851 91 839 107 q 876 64 864 75 q 921 36 897 44 q 978 25 944 28 l 978 0 l 565 0 l 565 26 q 574 26 569 25 q 583 26 579 26 q 649 36 626 29 q 672 72 672 43 q 663 101 672 82 q 642 142 654 121 q 636 150 639 146 q 632 158 633 154 q 615 184 624 172 q 601 204 607 196 l 469 400 l 304 194 q 293 179 299 186 q 281 164 288 172 q 274 155 278 160 q 267 144 271 150 q 242 107 253 125 q 232 76 232 89 q 265 35 232 43 q 338 25 297 28 l 338 0 l 14 0 l 14 26 q 53 31 36 26 q 85 43 69 35 q 137 90 108 58 q 215 183 165 122 l 433 453 l 282 675 q 169 824 208 781 q 96 881 129 867 q 67 888 82 885 q 35 892 53 890 q 33 892 35 892 q 31 892 32 892 l 31 919 l 450 919 l 450 893 q 370 885 396 890 q 344 847 344 879 q 369 783 344 826 q 463 642 393 740 l 521 561 l 678 753 q 717 804 701 782 q 733 846 733 826 q 706 883 733 876 q 643 892 678 890 q 640 892 642 892 q 636 892 638 892 l 636 919 l 967 919 l 967 919 z "},"Y":{"ha":1003,"x_min":31,"x_max":976,"o":"m 976 919 l 976 893 q 971 891 974 892 q 965 890 968 890 q 891 860 931 886 q 785 733 851 835 l 579 421 l 579 151 q 604 51 579 75 q 722 25 629 26 l 722 0 l 297 0 l 297 26 q 419 57 400 28 q 438 165 438 86 l 438 408 l 256 675 q 139 832 176 790 q 74 885 101 874 q 53 889 64 888 q 32 892 43 890 q 31 892 32 892 q 31 892 31 892 l 31 919 l 419 919 l 419 893 q 416 892 418 892 q 413 892 414 892 q 344 883 368 889 q 321 849 321 876 q 324 833 321 842 q 331 815 326 825 q 337 801 333 808 q 344 789 340 794 l 550 482 l 749 796 q 762 819 756 806 q 768 846 768 832 q 744 882 768 874 q 693 892 721 890 q 683 892 688 892 q 672 892 678 892 l 672 919 l 976 919 l 976 919 z "},"Z":{"ha":849,"x_min":13,"x_max":829,"o":"m 797 244 l 829 244 l 796 0 l 13 0 l 13 21 l 619 867 l 313 867 q 129 808 165 865 q 79 683 93 751 q 79 681 79 682 q 79 681 79 681 l 43 682 l 71 919 l 801 919 l 801 899 l 201 53 l 558 53 q 732 106 692 51 q 794 235 772 161 q 797 240 796 238 q 797 243 797 242 l 797 244 z "},"[":{"ha":463,"x_min":122,"x_max":415,"o":"m 415 885 l 290 885 q 247 872 260 883 q 231 847 235 861 q 228 834 228 840 q 228 822 228 828 l 228 -110 q 228 -124 228 -115 q 232 -143 229 -133 q 251 -170 238 -158 q 296 -182 265 -182 l 415 -182 l 415 -217 l 122 -217 l 122 919 l 415 919 l 415 885 l 415 885 z "},"\\":{"ha":386,"x_min":-12,"x_max":399,"o":"m -12 939 l 81 939 l 399 -19 l 304 -19 l -12 939 l -12 939 z "},"]":{"ha":463,"x_min":47,"x_max":340,"o":"m 47 -182 l 172 -182 q 215 -171 203 -182 q 232 -146 228 -160 q 235 -133 235 -139 q 235 -121 235 -126 l 235 813 q 234 826 235 817 q 231 844 233 835 q 211 872 225 860 q 167 883 197 883 l 47 885 l 47 919 l 340 919 l 340 -217 l 47 -217 l 47 -182 l 47 -182 z "},"^":{"ha":651,"x_min":33,"x_max":619,"o":"m 128 413 l 33 413 l 285 919 l 368 919 l 619 413 l 525 413 l 326 814 l 128 413 l 128 413 z "},"_":{"ha":694,"x_min":0,"x_max":694,"o":"m 694 -174 l 0 -174 l 0 -104 l 694 -104 l 694 -174 l 694 -174 z "},"`":{"ha":463,"x_min":26,"x_max":336,"o":"m 336 704 l 281 704 l 67 839 q 61 842 64 839 q 54 846 58 844 q 35 868 44 856 q 26 897 26 881 q 27 905 26 899 q 32 918 28 911 q 45 933 36 926 q 71 940 54 940 q 81 940 76 940 q 90 939 86 940 q 107 930 99 936 q 132 908 115 924 l 336 704 l 336 704 z "},"a":{"ha":617,"x_min":51,"x_max":614,"o":"m 614 92 l 614 56 q 539 -6 571 3 q 490 -14 507 -14 q 472 -13 483 -14 q 450 -7 461 -12 q 418 20 433 0 q 400 86 403 40 q 388 76 394 81 q 375 65 382 71 q 293 10 339 35 q 199 -14 247 -14 q 97 23 143 -14 q 51 129 51 60 q 94 246 51 201 q 218 329 136 290 q 301 365 256 347 q 399 404 346 383 l 399 490 q 376 569 399 544 q 328 600 354 593 q 309 603 318 603 q 292 604 300 604 q 283 604 288 604 q 275 603 279 604 q 219 583 244 600 q 193 536 193 565 q 194 520 193 528 q 197 506 196 513 q 199 492 197 499 q 200 482 200 486 q 200 480 200 481 q 200 478 200 479 q 181 440 199 457 q 138 422 164 422 q 102 434 115 422 q 82 460 89 446 q 79 472 81 467 q 78 483 78 478 q 83 511 78 496 q 97 542 88 526 q 169 608 119 578 q 304 638 219 638 q 456 593 415 638 q 507 496 497 549 q 510 454 510 475 q 511 415 511 433 l 511 146 q 516 89 511 114 q 551 64 521 64 q 585 71 571 64 q 610 88 599 78 q 612 88 611 88 q 614 90 613 89 l 614 92 m 399 171 l 399 372 q 338 349 365 360 q 289 325 311 338 q 192 244 210 283 q 174 176 174 204 l 174 175 q 200 95 174 125 q 265 65 226 65 q 279 67 272 65 q 294 69 286 68 q 311 74 303 71 q 326 79 319 76 q 341 85 335 82 q 351 90 347 89 q 360 95 356 93 q 368 99 364 97 q 394 128 389 113 q 399 169 399 143 l 399 171 z "},"b":{"ha":694,"x_min":4,"x_max":650,"o":"m 96 75 l 96 796 q 88 846 96 826 q 35 865 81 865 q 28 865 32 865 q 19 865 24 865 q 11 865 15 865 q 4 864 7 864 l 4 888 q 54 900 29 893 q 106 915 79 907 q 156 931 131 922 q 206 947 181 939 l 213 946 l 213 526 l 215 526 q 227 547 218 533 q 250 575 236 561 q 314 618 275 599 q 403 638 353 638 q 581 550 521 638 q 649 358 642 463 q 650 344 650 351 q 650 329 650 336 q 644 267 650 301 q 625 199 639 233 q 520 53 594 119 q 311 -14 446 -14 q 269 -10 293 -14 q 221 -1 246 -7 q 135 28 175 8 q 96 74 96 49 l 96 75 m 213 447 l 213 97 q 235 60 213 74 q 285 39 258 46 q 319 31 303 33 q 346 29 336 29 q 469 78 431 29 q 519 186 507 126 q 526 233 524 210 q 528 278 528 257 q 528 295 528 286 q 526 313 528 304 q 479 476 521 401 q 351 550 438 550 q 325 548 340 550 q 294 540 310 546 q 240 507 265 529 q 213 446 215 485 l 213 447 z "},"c":{"ha":617,"x_min":35,"x_max":572,"o":"m 553 217 l 572 204 q 448 35 517 85 q 294 -14 379 -14 q 260 -11 278 -14 q 224 -3 242 -8 q 94 91 153 19 q 35 294 35 163 q 123 540 35 454 q 317 636 211 625 q 331 637 324 636 q 346 638 339 638 q 369 636 357 638 q 394 632 382 635 q 449 616 422 626 q 493 594 475 606 q 517 574 507 585 q 535 551 528 563 q 549 522 544 536 q 553 497 553 508 q 537 456 553 474 q 489 436 521 439 q 487 436 488 436 q 485 436 486 436 q 448 452 463 436 q 425 488 433 468 q 423 494 424 490 q 421 500 422 497 l 413 532 q 412 534 413 532 q 411 538 411 536 q 388 581 403 565 q 321 597 372 597 q 285 592 307 597 q 242 574 264 586 q 173 498 204 550 q 142 350 142 446 q 204 158 142 231 q 354 85 267 85 q 474 124 429 85 q 553 215 518 163 l 553 217 z "},"d":{"ha":694,"x_min":38,"x_max":682,"o":"m 682 81 l 682 58 q 660 49 671 53 q 638 42 649 46 q 635 40 636 40 q 632 39 633 40 q 557 13 594 26 q 478 -14 519 0 l 472 -10 l 472 75 l 469 75 q 460 62 465 68 q 450 49 456 56 q 390 6 428 25 q 290 -14 351 -14 q 240 -8 274 -14 q 171 17 207 -3 q 79 108 121 44 q 38 296 38 172 q 123 535 38 432 q 325 638 208 638 q 390 628 361 638 q 447 599 419 618 q 459 588 453 593 q 472 578 465 583 l 472 796 q 465 846 472 826 q 411 865 457 865 q 401 865 407 865 q 389 865 396 865 q 383 865 386 865 q 378 864 381 864 l 378 888 q 481 915 431 900 q 582 947 532 929 l 589 946 l 589 158 q 597 98 589 118 q 657 78 606 78 q 661 78 660 78 q 665 78 663 78 q 667 78 665 78 q 669 79 668 78 q 675 79 672 79 q 682 79 678 79 l 682 81 m 472 142 l 472 461 q 425 562 465 528 q 338 599 385 596 q 334 599 336 599 q 329 599 332 599 q 312 597 321 599 q 293 594 303 596 q 199 522 242 581 q 157 342 157 463 q 210 133 157 199 q 328 58 264 67 q 338 58 333 58 q 349 57 343 57 q 428 80 393 57 q 472 140 464 103 l 472 142 z "},"e":{"ha":617,"x_min":35,"x_max":589,"o":"m 567 228 l 589 218 q 570 172 585 203 q 528 106 556 140 q 436 23 493 60 q 294 -14 379 -14 q 107 67 179 -14 q 35 296 35 149 q 93 514 35 438 q 222 618 151 590 q 272 633 247 628 q 318 638 296 638 q 484 578 417 638 q 563 383 551 519 l 131 385 q 191 167 140 232 q 301 86 242 101 q 326 82 314 83 q 351 81 339 81 q 458 108 415 81 q 528 169 500 136 q 550 199 540 185 q 567 226 560 214 l 567 228 m 135 429 l 421 429 q 417 451 419 439 q 413 475 415 463 q 377 552 403 517 q 288 588 351 588 q 191 553 231 588 q 135 428 151 519 l 135 429 z "},"f":{"ha":463,"x_min":28,"x_max":532,"o":"m 429 625 l 429 581 l 260 581 l 260 144 q 276 51 260 79 q 389 19 293 22 l 389 0 l 28 0 l 28 21 q 120 42 97 22 q 143 143 143 63 l 143 581 l 29 581 l 29 625 l 143 625 q 145 688 143 647 q 160 774 147 729 q 230 893 178 839 q 393 947 282 947 q 492 923 451 947 q 532 863 532 899 q 517 822 532 836 q 482 806 501 808 q 477 804 479 804 q 472 804 475 804 q 438 819 451 804 q 413 851 425 833 q 411 854 413 853 q 410 857 410 856 q 382 892 397 876 q 342 908 367 908 q 281 881 297 908 q 260 821 264 854 q 259 803 260 813 q 258 785 258 793 l 258 625 l 429 625 l 429 625 z "},"g":{"ha":694,"x_min":39,"x_max":653,"o":"m 653 539 l 538 539 q 540 532 539 535 q 542 526 542 529 q 558 481 551 506 q 564 410 564 456 q 522 288 564 332 q 429 222 479 243 q 383 210 406 214 q 343 206 361 206 q 328 206 338 206 q 308 208 318 207 q 306 208 307 208 q 303 210 304 208 q 281 211 290 210 q 268 213 271 213 q 252 208 261 213 q 235 194 243 203 q 217 179 225 188 q 201 161 208 171 q 190 142 194 151 q 185 125 185 132 q 207 100 185 107 q 256 90 229 93 q 275 88 265 89 q 293 88 285 88 l 472 81 q 574 51 539 76 q 624 -1 608 26 q 637 -39 633 -21 q 640 -68 640 -57 q 572 -201 640 -149 q 424 -279 504 -254 q 350 -297 386 -292 q 285 -303 314 -303 q 109 -263 179 -303 q 39 -168 39 -224 q 81 -78 39 -121 q 175 0 122 -36 q 172 2 174 1 q 168 3 169 3 q 122 31 142 15 q 101 74 101 46 q 101 76 101 75 q 101 78 101 76 q 119 121 101 94 q 225 225 138 147 q 130 299 164 253 q 96 406 96 346 q 153 563 96 508 q 279 632 210 617 q 307 636 293 635 q 335 638 321 638 q 363 636 350 638 q 389 632 376 635 q 426 622 407 628 q 469 606 446 615 q 510 594 492 597 q 546 592 529 592 l 653 593 l 653 539 l 653 539 m 136 -125 q 138 -137 136 -131 q 142 -150 139 -143 q 201 -201 154 -178 q 344 -224 247 -224 q 534 -184 467 -224 q 601 -89 601 -144 q 555 -33 601 -42 q 431 -21 508 -24 q 390 -19 408 -19 q 354 -18 371 -19 q 296 -15 319 -17 q 250 -11 272 -14 q 228 -8 239 -10 q 204 -3 217 -6 q 169 -47 183 -28 q 146 -83 154 -65 q 138 -103 140 -93 q 136 -125 136 -114 l 136 -125 m 211 475 q 211 457 211 465 q 213 440 211 449 q 250 303 218 365 q 356 240 282 240 q 418 263 397 240 q 447 311 439 285 q 456 347 454 331 q 457 374 457 364 q 453 417 457 386 q 438 482 449 449 q 394 563 424 526 q 315 599 365 599 q 310 599 313 599 q 304 599 307 599 q 240 567 269 594 q 211 474 211 539 l 211 475 z "},"h":{"ha":694,"x_min":13,"x_max":676,"o":"m 676 21 l 676 0 l 382 0 l 382 21 q 455 42 433 25 q 476 140 476 60 l 476 417 q 451 524 476 485 q 369 563 426 563 q 300 544 339 563 q 218 475 261 525 l 218 142 q 240 42 218 60 q 313 19 261 25 l 313 0 l 13 0 l 13 21 q 85 45 69 26 q 101 140 101 64 l 101 796 q 94 846 101 826 q 40 865 86 865 q 35 865 38 865 q 29 865 32 865 q 20 865 25 865 q 14 864 15 864 l 14 888 q 91 909 51 897 q 171 933 131 921 q 191 940 181 938 q 211 947 201 943 l 218 944 l 218 525 l 221 525 q 308 607 257 576 q 421 638 358 638 q 533 600 497 638 q 582 518 569 563 q 592 461 590 489 q 593 417 593 433 l 593 142 q 607 49 593 68 q 665 21 621 31 q 671 20 668 21 q 676 19 674 19 l 676 21 z "},"i":{"ha":386,"x_min":22,"x_max":351,"o":"m 22 0 l 22 21 q 110 41 88 22 q 132 140 132 60 l 132 464 q 119 530 132 515 q 93 546 107 544 q 88 546 90 546 q 83 546 86 546 q 56 544 69 546 q 28 540 42 543 l 28 563 q 82 579 56 569 q 136 599 108 589 q 190 618 163 608 q 243 638 217 628 l 249 635 l 249 142 q 264 48 249 72 q 351 19 279 24 l 351 0 l 22 0 l 22 0 m 108 878 q 110 889 108 882 q 114 903 111 896 q 136 933 121 919 q 178 947 151 947 q 230 926 210 947 q 250 876 250 906 q 230 826 250 846 q 178 806 210 806 q 135 819 151 806 q 114 850 119 833 q 110 864 111 857 q 108 876 108 871 l 108 878 z "},"j":{"ha":386,"x_min":-96,"x_max":269,"o":"m 151 -62 l 151 464 q 139 530 151 515 q 113 546 126 544 q 108 546 110 546 q 103 546 106 546 q 94 546 99 546 q 83 544 89 546 q 65 543 74 544 q 44 540 56 542 l 44 564 q 153 598 99 579 q 261 638 207 617 l 268 635 l 268 0 q 217 -212 268 -122 q 32 -303 167 -303 q -56 -283 -15 -303 q -96 -225 -96 -264 q -81 -189 -96 -203 q -47 -172 -65 -175 q -44 -172 -46 -172 q -40 -172 -42 -172 q -3 -185 -18 -172 q 24 -214 11 -199 q 26 -217 25 -215 q 31 -221 28 -219 q 53 -245 42 -235 q 82 -256 65 -256 q 143 -202 135 -256 q 151 -62 151 -149 l 151 -62 m 128 878 q 129 889 128 882 q 133 903 131 896 q 156 933 140 919 q 197 947 171 947 q 249 926 229 947 q 269 876 269 906 q 249 826 269 846 q 197 806 229 806 q 155 819 171 806 q 133 850 139 833 q 129 864 131 857 q 128 876 128 871 l 128 878 z "},"k":{"ha":694,"x_min":10,"x_max":701,"o":"m 10 0 l 10 21 q 28 22 19 21 q 46 25 38 24 q 102 49 90 35 q 114 113 114 64 l 114 783 q 103 848 114 829 q 51 867 92 867 q 28 866 38 867 q 10 864 18 865 l 10 888 q 115 915 61 900 q 225 947 169 929 l 231 946 l 231 368 l 233 365 q 278 404 253 381 q 332 451 304 428 q 333 453 332 453 q 335 454 333 454 q 379 494 357 475 q 421 531 401 514 q 444 557 436 546 q 453 578 453 568 q 440 597 453 589 q 383 604 428 604 l 383 625 l 667 625 l 667 604 q 647 603 656 603 q 628 601 638 603 q 533 566 586 597 q 367 428 481 535 l 326 392 l 539 122 q 633 38 592 54 q 701 19 674 22 l 701 0 l 399 0 l 399 21 l 425 21 q 430 19 428 19 q 435 21 432 19 q 449 27 443 22 q 454 42 454 32 q 446 59 454 49 q 425 88 438 69 l 233 344 l 231 344 l 231 93 q 251 36 231 49 q 307 21 272 24 l 335 21 l 335 0 l 10 0 l 10 0 z "},"l":{"ha":386,"x_min":26,"x_max":357,"o":"m 29 0 l 29 21 q 113 43 90 24 q 136 119 136 63 l 136 783 q 125 848 136 829 q 74 867 114 867 q 59 867 65 867 q 46 865 53 867 q 37 865 42 865 q 26 864 32 864 l 26 888 q 137 915 82 900 q 247 947 192 929 l 253 946 l 253 117 q 275 39 253 56 q 357 19 297 22 l 357 0 l 29 0 l 29 0 z "},"m":{"ha":1081,"x_min":22,"x_max":1076,"o":"m 119 118 l 119 469 q 107 540 119 525 q 81 557 94 556 q 76 557 78 557 q 71 557 74 557 q 46 556 57 557 q 26 551 35 554 l 26 576 q 124 604 75 589 q 221 638 174 619 l 231 636 l 231 532 q 297 580 267 558 q 357 617 326 601 q 399 632 378 626 q 444 638 421 638 q 547 601 513 638 q 593 521 582 565 q 615 544 601 531 q 647 572 629 558 q 722 617 679 597 q 817 638 765 638 q 935 583 901 638 q 976 464 968 529 q 980 426 979 444 q 981 390 981 407 l 981 106 q 981 103 981 104 q 981 103 981 103 q 981 91 981 97 q 982 79 981 85 q 995 44 983 61 q 1040 22 1007 28 l 1076 21 l 1076 0 l 772 0 l 772 21 q 778 20 775 19 q 785 21 782 21 q 847 42 829 26 q 864 119 864 57 l 864 414 q 864 426 864 419 q 864 438 864 432 q 846 526 863 486 q 763 565 829 565 q 669 541 706 565 q 608 481 632 517 l 608 132 q 637 36 608 51 q 708 19 665 21 l 708 0 l 397 0 l 397 21 q 468 36 444 22 q 492 118 492 50 l 492 421 q 471 527 492 489 q 396 565 450 565 q 328 552 358 565 q 276 524 297 539 q 247 498 257 510 q 236 483 236 486 l 236 93 q 265 31 236 40 q 331 19 294 21 l 331 0 l 22 0 l 22 21 q 92 34 64 21 q 119 117 119 47 l 119 118 z "},"n":{"ha":694,"x_min":22,"x_max":674,"o":"m 111 125 l 111 469 q 99 540 111 525 q 72 557 86 556 q 67 557 69 557 q 63 557 65 557 q 38 556 49 557 q 22 551 26 554 l 22 576 q 86 594 54 585 q 150 615 118 604 q 182 626 165 621 q 214 638 199 632 l 224 636 l 224 526 q 258 556 242 542 q 290 585 274 571 q 353 623 321 608 q 426 638 386 638 q 453 635 439 638 q 481 628 467 633 q 555 569 521 614 q 589 429 589 524 l 589 113 q 606 43 589 63 q 674 19 622 24 l 674 0 l 385 0 l 385 21 q 448 40 424 22 q 472 136 472 57 l 472 428 q 449 526 472 490 q 365 561 426 561 q 301 541 335 561 q 228 482 268 521 l 228 93 q 247 40 228 57 q 319 19 265 22 l 319 0 l 25 0 l 25 21 q 92 42 74 22 q 111 124 111 63 l 111 125 z "},"o":{"ha":694,"x_min":40,"x_max":653,"o":"m 340 639 q 565 552 476 638 q 653 315 653 467 q 649 267 653 292 q 638 218 646 243 q 540 58 613 131 q 344 -14 468 -14 q 125 81 210 -14 q 40 315 40 175 q 121 540 40 443 q 340 638 201 638 l 340 639 m 364 25 q 385 25 374 24 q 407 31 396 26 q 490 99 451 44 q 528 275 528 154 q 476 501 528 404 q 329 599 425 599 q 215 544 264 599 q 165 382 165 490 q 169 310 165 353 q 185 224 174 268 q 244 86 201 149 q 364 24 286 24 l 364 25 z "},"p":{"ha":694,"x_min":7,"x_max":653,"o":"m 104 -182 l 104 468 q 96 527 104 508 q 51 546 88 546 q 42 546 47 546 q 32 546 38 546 q 22 545 26 546 q 13 544 17 544 l 13 568 q 113 600 63 582 q 213 638 163 618 l 221 636 l 221 535 l 224 532 q 240 549 231 539 q 260 571 249 560 q 327 617 286 596 q 424 638 368 638 q 585 558 517 638 q 653 339 653 478 q 651 302 653 321 q 646 265 650 283 q 555 73 626 160 q 361 -14 483 -14 q 308 -8 332 -14 q 260 13 283 -1 q 240 26 250 18 q 221 44 231 35 l 221 -172 q 244 -258 221 -239 q 343 -276 268 -276 l 343 -301 l 7 -301 l 7 -278 q 90 -249 76 -272 q 104 -182 104 -226 l 104 -182 m 221 464 l 221 122 q 226 104 221 114 q 239 85 231 94 q 290 47 257 64 q 363 29 324 29 q 397 33 376 29 q 440 51 418 38 q 504 131 475 75 q 533 297 533 186 q 531 345 533 308 q 514 424 528 382 q 461 513 497 472 q 357 554 425 554 q 334 552 346 554 q 310 546 322 550 q 252 513 279 535 q 221 463 225 490 l 221 464 z "},"q":{"ha":694,"x_min":33,"x_max":678,"o":"m 500 590 l 575 635 l 585 639 l 590 633 l 590 -196 q 606 -254 590 -240 q 657 -278 621 -268 q 667 -279 661 -278 q 678 -282 672 -281 l 678 -301 l 350 -301 l 350 -278 q 451 -250 428 -275 q 474 -172 474 -225 l 474 86 l 467 86 q 456 70 463 78 q 440 56 450 63 q 378 15 417 33 q 299 -11 340 -3 q 280 -13 289 -12 q 261 -14 271 -14 q 101 61 168 -14 q 33 293 33 136 q 123 538 33 438 q 343 638 213 638 q 401 632 376 638 q 447 617 425 626 q 472 604 460 611 q 500 589 485 597 l 500 590 m 474 176 l 474 463 q 473 488 474 472 q 467 522 472 504 q 429 575 457 551 q 340 599 401 599 q 204 527 256 599 q 153 329 153 456 q 153 324 153 326 q 153 318 153 321 q 198 147 156 225 q 331 69 240 69 q 364 72 346 69 q 400 82 382 75 q 416 88 408 85 q 429 94 424 92 q 467 128 461 110 q 474 172 472 146 q 474 174 474 174 q 474 175 474 175 l 474 176 z "},"r":{"ha":463,"x_min":7,"x_max":465,"o":"m 106 117 l 106 464 q 93 530 106 515 q 67 546 81 544 q 62 546 64 546 q 57 546 60 546 q 31 544 43 546 q 10 540 19 543 l 10 564 q 60 580 35 571 q 113 599 86 589 q 165 617 139 607 q 215 638 190 628 l 222 636 l 222 513 l 225 513 q 293 596 263 568 q 354 632 324 624 q 372 636 363 635 q 390 638 381 638 q 446 617 426 638 q 465 563 465 597 q 451 519 465 536 q 413 501 438 501 q 382 509 394 501 q 358 526 369 517 q 353 531 356 528 q 347 536 350 533 q 333 546 340 542 q 317 550 325 550 q 299 545 308 550 q 281 532 290 540 q 254 507 267 522 q 233 475 242 492 q 225 455 228 465 q 222 436 222 444 l 222 125 q 255 37 222 51 q 340 19 288 22 l 340 0 l 7 0 l 7 21 q 20 22 14 21 q 32 24 26 24 q 90 48 74 32 q 106 115 106 64 l 106 117 z "},"s":{"ha":540,"x_min":71,"x_max":483,"o":"m 438 436 l 417 436 q 354 570 394 536 q 271 606 314 604 q 266 606 268 606 q 263 606 264 606 q 196 587 219 606 q 163 544 172 568 q 158 530 160 538 q 157 515 157 522 q 160 490 157 504 q 171 461 163 475 q 189 438 178 449 q 217 417 200 426 l 367 329 q 372 324 369 326 q 378 321 375 322 q 454 257 425 292 q 483 164 483 222 q 435 46 483 89 q 329 -8 388 3 q 306 -12 318 -11 q 282 -14 293 -14 q 238 -10 260 -14 q 194 -1 215 -6 q 156 6 174 1 q 124 10 139 10 q 123 10 124 10 q 122 10 122 10 q 122 10 122 10 q 121 10 121 10 q 106 8 111 10 q 94 0 100 6 q 93 -2 94 0 q 90 -6 92 -4 l 72 -6 l 72 211 l 94 211 q 103 176 99 194 q 113 140 107 158 q 165 54 129 93 q 274 15 200 15 q 290 16 282 15 q 306 19 297 17 q 361 48 336 25 q 386 117 386 71 q 367 176 386 150 q 314 219 347 201 l 233 267 q 120 347 169 301 q 71 468 71 392 q 72 484 71 476 q 74 499 72 492 q 131 594 85 551 q 265 638 178 638 q 308 633 289 638 q 343 624 328 629 q 372 614 360 618 q 393 610 385 610 q 404 613 400 610 q 413 619 408 615 q 415 622 414 621 q 417 625 415 624 l 432 626 l 438 436 l 438 436 z "},"t":{"ha":386,"x_min":18,"x_max":388,"o":"m 354 625 l 354 581 l 214 581 l 214 183 q 214 159 214 172 q 217 132 214 146 q 234 81 219 104 q 285 57 249 57 q 325 67 308 57 q 353 88 342 76 q 363 97 358 93 q 369 106 367 101 l 388 92 q 322 18 364 47 q 233 -14 279 -11 q 228 -14 231 -14 q 225 -14 226 -14 q 135 22 172 -14 q 97 161 97 57 l 97 581 l 24 581 q 20 583 22 581 q 18 589 18 586 q 19 595 18 592 q 24 601 21 599 q 47 619 32 610 q 79 644 63 628 q 104 671 93 658 q 126 696 115 683 q 135 707 131 701 q 143 718 139 713 q 171 756 157 735 q 204 803 185 776 q 213 798 211 803 q 214 785 214 793 l 214 625 l 354 625 l 354 625 z "},"u":{"ha":694,"x_min":13,"x_max":665,"o":"m 665 69 l 665 50 q 599 30 629 39 q 539 10 568 21 q 507 -1 524 4 q 472 -12 490 -6 l 469 -10 l 469 106 l 410 46 q 390 27 400 35 q 371 14 381 19 q 308 -9 338 -4 q 264 -14 278 -14 q 233 -11 250 -14 q 199 -1 217 -8 q 130 51 161 13 q 99 165 99 90 l 99 517 q 74 588 99 574 q 19 604 50 601 q 16 604 18 604 q 13 604 14 604 l 13 625 l 215 625 l 215 172 q 218 150 215 164 q 228 119 221 136 q 259 83 238 100 q 319 65 281 65 q 382 79 351 65 q 440 115 413 93 q 456 138 450 124 q 463 186 463 151 l 463 514 q 448 576 463 554 q 360 600 433 599 l 360 625 l 579 625 l 579 149 q 590 90 579 111 q 656 68 600 68 q 658 68 657 68 q 661 68 660 68 q 663 68 661 68 q 665 68 664 68 l 665 69 z "},"v":{"ha":694,"x_min":26,"x_max":663,"o":"m 663 625 l 663 604 q 628 593 640 601 q 604 565 615 585 q 590 535 597 553 q 572 494 582 518 l 394 50 q 374 1 383 21 q 357 -19 364 -19 q 351 -19 354 -19 q 347 -15 349 -18 q 336 2 342 -11 q 319 44 331 15 q 277 150 307 78 q 214 301 247 222 q 209 312 211 307 q 206 321 207 317 q 147 455 175 392 q 103 551 119 518 q 67 592 88 583 q 26 603 47 601 l 26 625 l 299 625 l 299 604 q 254 594 274 601 q 235 561 235 588 q 235 553 235 557 q 236 546 236 550 q 239 535 238 540 q 242 526 240 531 q 244 519 243 522 q 247 513 246 515 l 389 158 q 417 232 401 192 q 450 314 433 272 q 508 463 482 393 q 535 557 535 532 q 515 591 535 581 q 469 603 496 601 l 469 625 l 663 625 l 663 625 z "},"w":{"ha":1003,"x_min":29,"x_max":964,"o":"m 793 625 l 964 625 l 964 604 q 942 592 950 599 q 926 572 933 585 q 917 553 922 564 q 907 528 913 543 l 715 49 q 696 3 703 17 q 685 -17 689 -11 q 681 -19 682 -18 q 676 -19 679 -19 q 672 -19 674 -19 q 667 -15 669 -18 q 658 2 663 -10 q 643 39 653 14 l 517 368 l 361 35 q 342 -5 349 7 q 329 -19 335 -17 q 327 -19 328 -19 q 326 -19 326 -19 q 324 -19 325 -19 q 321 -18 322 -18 q 309 -1 315 -14 q 290 40 303 11 l 103 517 q 88 551 94 536 q 74 575 81 565 q 55 595 65 589 q 29 603 44 601 l 29 625 l 279 625 l 279 604 q 235 593 256 601 q 215 556 215 585 q 250 440 215 525 q 325 249 285 354 q 344 201 335 225 q 361 153 353 176 l 488 431 q 456 516 469 483 q 432 567 443 549 q 402 594 418 588 q 364 603 386 600 l 364 625 l 646 625 l 646 604 q 641 602 643 603 q 636 601 639 601 q 585 588 606 597 q 565 551 565 579 q 565 544 565 547 q 567 538 565 540 q 575 506 568 524 q 594 457 582 489 l 706 161 l 831 469 q 833 474 832 471 q 836 481 835 478 q 849 525 844 504 q 854 557 854 546 q 838 589 854 581 q 797 601 821 597 q 796 602 797 601 q 793 603 794 603 l 793 625 l 793 625 z "},"x":{"ha":694,"x_min":24,"x_max":665,"o":"m 419 101 l 307 274 l 197 103 q 192 94 194 99 q 185 82 189 89 q 182 76 183 79 q 179 71 181 74 q 172 57 175 64 q 169 44 169 50 q 184 24 171 29 q 213 19 197 19 q 219 19 215 19 q 225 19 222 19 l 225 0 l 24 0 l 24 21 q 24 19 24 19 q 26 19 25 19 q 47 23 38 21 q 64 29 56 25 q 92 49 78 35 q 125 90 106 63 l 283 321 l 153 521 q 112 573 128 556 q 81 597 96 590 q 65 601 74 600 q 47 603 57 603 q 41 603 44 603 q 33 603 38 603 l 33 625 l 321 625 l 321 604 q 313 603 317 603 q 304 603 308 603 q 274 594 288 601 q 261 571 261 588 q 273 537 261 560 q 301 489 285 514 q 305 481 303 485 q 310 475 307 478 q 328 446 319 460 q 344 421 338 432 q 422 534 407 510 q 438 569 438 558 q 438 570 438 569 q 438 571 438 571 q 425 594 438 588 q 397 601 413 600 q 390 602 393 601 q 382 603 386 603 l 382 625 l 601 625 l 601 604 q 551 592 574 603 q 513 568 528 581 q 498 554 504 561 q 489 542 492 547 l 374 376 l 551 104 q 619 32 592 43 q 665 19 647 21 l 665 0 l 386 0 l 386 21 q 430 27 418 21 q 442 56 442 33 q 438 73 442 65 q 429 88 435 81 q 424 95 426 92 q 419 100 421 99 l 419 101 z "},"y":{"ha":694,"x_min":19,"x_max":660,"o":"m 660 625 l 660 604 q 642 599 651 601 q 621 588 632 596 q 607 569 614 581 q 593 540 600 558 l 379 -25 q 360 -74 369 -51 q 340 -118 350 -97 q 253 -257 299 -211 q 143 -303 207 -303 q 74 -283 99 -303 q 44 -240 50 -264 q 42 -231 43 -235 q 42 -222 42 -226 q 43 -210 42 -219 q 49 -192 44 -201 q 69 -171 56 -181 q 108 -161 82 -161 q 119 -162 114 -161 q 129 -164 124 -162 q 148 -168 139 -165 q 165 -174 157 -171 q 189 -182 178 -178 q 207 -186 200 -186 q 260 -152 236 -186 q 301 -78 285 -118 q 326 -12 318 -42 q 335 26 335 18 q 322 65 335 35 q 292 128 308 94 q 291 131 292 129 q 289 135 290 133 q 265 182 276 160 q 249 218 254 204 l 90 561 q 74 582 83 574 q 54 594 64 590 q 35 601 44 599 q 19 604 26 603 l 19 625 l 306 625 l 306 604 q 293 602 300 603 q 279 601 286 601 q 242 591 258 599 q 225 563 225 583 q 226 556 225 560 q 226 549 226 551 q 229 538 228 543 q 233 528 231 532 q 236 519 235 522 q 239 513 238 515 l 399 163 l 507 471 q 510 481 508 475 q 515 492 513 486 q 531 536 524 515 q 539 564 539 557 q 524 593 539 583 q 478 603 508 603 q 475 603 476 603 q 472 603 474 603 l 472 625 l 660 625 l 660 625 z "},"z":{"ha":617,"x_min":38,"x_max":581,"o":"m 581 188 l 561 0 l 38 0 l 38 21 l 407 583 l 215 583 q 125 551 143 582 q 100 469 107 521 q 99 465 100 467 q 99 460 99 463 l 74 461 l 78 625 l 560 625 l 560 604 l 186 42 l 378 42 q 507 69 478 40 q 550 164 536 97 q 553 178 551 171 q 556 192 554 185 l 581 188 l 581 188 z "},"{":{"ha":667,"x_min":139,"x_max":486,"o":"m 257 -57 l 257 189 q 234 290 257 254 q 139 346 211 326 q 234 401 211 365 q 257 503 257 436 l 257 751 q 318 908 257 874 q 486 943 379 943 l 486 929 q 386 870 413 911 q 360 757 360 829 l 360 525 q 338 408 360 450 q 233 346 315 365 l 233 344 q 338 283 315 325 q 360 167 360 240 l 360 -65 q 386 -178 360 -137 q 486 -236 413 -219 l 486 -251 q 318 -217 379 -251 q 257 -57 257 -182 l 257 -57 z "},"|":{"ha":278,"x_min":93,"x_max":185,"o":"m 93 -19 l 93 939 l 185 939 l 185 -19 l 93 -19 l 93 -19 z "},"}":{"ha":667,"x_min":181,"x_max":528,"o":"m 410 750 l 410 504 q 433 401 410 436 q 528 346 456 365 q 433 290 456 326 q 410 188 410 254 l 410 -58 q 349 -217 410 -182 q 181 -251 288 -251 l 181 -236 q 281 -178 254 -219 q 307 -65 307 -137 l 307 168 q 330 283 307 240 q 433 344 353 326 l 433 349 q 330 408 353 365 q 307 524 307 450 l 307 758 q 281 870 307 829 q 181 928 254 911 l 181 944 q 349 908 288 943 q 410 749 410 874 l 410 750 z "},"~":{"ha":751,"x_min":56,"x_max":697,"o":"m 647 449 l 697 379 q 694 374 696 376 q 692 371 693 372 q 623 293 661 328 q 524 258 585 258 q 463 268 492 258 q 404 292 433 278 q 393 298 399 294 q 382 304 388 301 q 310 338 349 324 q 222 353 271 353 q 153 324 179 353 q 110 260 126 294 q 108 256 108 258 q 106 253 107 254 l 56 324 q 58 326 57 324 q 60 329 58 328 q 123 407 83 372 q 229 442 163 442 q 291 432 258 442 q 357 408 324 422 q 370 403 364 406 q 383 397 376 400 q 390 394 386 396 q 396 392 393 393 q 403 389 400 390 q 410 386 406 388 q 472 359 442 371 q 525 347 501 347 q 592 376 564 347 q 642 440 619 406 q 644 444 643 442 q 647 447 646 446 l 647 449 z "},"Ä":{"ha":1003,"x_min":21,"x_max":981,"o":"m 981 26 l 981 0 l 626 0 l 626 26 q 694 32 665 25 q 724 78 724 39 q 721 97 724 86 q 714 119 718 108 q 711 128 713 124 q 708 138 710 133 q 703 153 706 146 q 697 165 700 160 l 640 300 l 276 300 l 213 138 q 210 130 211 133 q 208 122 208 126 q 203 102 204 113 q 201 83 201 92 q 218 43 201 56 q 256 28 235 31 q 277 25 267 25 q 296 25 288 25 l 296 0 l 21 0 l 21 26 q 56 31 38 26 q 92 56 74 36 q 112 84 101 67 q 133 122 122 101 q 146 147 140 135 q 157 172 151 160 q 177 215 168 194 q 193 253 186 236 l 482 936 l 510 936 l 856 147 q 878 97 868 117 q 899 64 889 78 q 933 34 915 42 q 981 25 951 26 l 981 26 m 300 357 l 621 357 l 460 739 l 300 357 l 300 357 m 296 1090 q 297 1101 296 1094 q 301 1114 299 1107 q 322 1144 307 1131 q 363 1158 338 1158 q 411 1138 390 1158 q 432 1089 432 1117 q 411 1040 432 1060 q 363 1019 390 1019 q 321 1034 336 1019 q 300 1067 306 1049 q 297 1078 297 1072 q 296 1089 296 1083 l 296 1090 m 572 1090 q 574 1101 572 1094 q 578 1114 575 1107 q 599 1144 583 1131 q 639 1158 614 1158 q 688 1138 667 1158 q 708 1089 708 1117 q 688 1040 708 1060 q 639 1019 667 1019 q 597 1034 613 1019 q 576 1067 582 1049 q 573 1078 574 1072 q 572 1089 572 1083 l 572 1090 z "},"Å":{"ha":1003,"x_min":21,"x_max":981,"o":"m 981 26 l 981 0 l 626 0 l 626 26 q 694 32 665 25 q 724 78 724 39 q 721 97 724 86 q 714 119 718 108 q 711 128 713 124 q 708 138 710 133 q 703 153 706 146 q 697 165 700 160 l 640 300 l 276 300 l 213 138 q 210 130 211 133 q 208 122 208 126 q 203 102 204 113 q 201 83 201 92 q 218 43 201 56 q 256 28 235 31 q 277 25 267 25 q 296 25 288 25 l 296 0 l 21 0 l 21 26 q 56 31 38 26 q 92 56 74 36 q 112 84 101 67 q 133 122 122 101 q 146 147 140 135 q 157 172 151 160 q 177 215 168 194 q 193 253 186 236 l 482 936 l 510 936 l 856 147 q 878 97 868 117 q 899 64 889 78 q 933 34 915 42 q 981 25 951 26 l 981 26 m 300 357 l 621 357 l 460 739 l 300 357 l 300 357 m 350 1108 q 390 1205 350 1164 q 488 1246 429 1246 q 585 1205 544 1246 q 626 1107 626 1164 q 585 1010 626 1050 q 488 969 544 969 q 389 1010 428 969 q 350 1107 350 1051 l 350 1108 m 488 1200 q 434 1181 454 1199 q 404 1142 414 1163 q 399 1124 401 1133 q 397 1108 397 1115 q 399 1093 397 1101 q 404 1075 400 1085 q 433 1035 413 1054 q 486 1017 453 1017 q 553 1043 526 1017 q 579 1107 579 1069 q 553 1172 579 1144 q 488 1199 526 1199 l 488 1200 z "},"Ç":{"ha":926,"x_min":39,"x_max":879,"o":"m 368 -137 l 425 0 l 474 0 l 439 -90 q 444 -90 442 -90 q 449 -89 447 -89 q 463 -87 456 -87 q 478 -86 469 -86 q 563 -111 532 -86 q 594 -183 594 -136 q 594 -185 594 -185 q 594 -187 594 -186 q 553 -264 593 -229 q 426 -299 513 -299 q 366 -294 390 -299 q 325 -285 342 -290 q 314 -280 319 -282 q 304 -276 308 -278 l 324 -233 q 341 -239 331 -236 q 361 -243 351 -242 q 391 -249 378 -247 q 410 -250 404 -250 q 467 -237 443 -250 q 490 -187 490 -224 q 475 -151 490 -164 q 428 -139 460 -139 q 417 -139 422 -139 q 406 -139 411 -139 q 390 -141 397 -140 q 378 -144 383 -142 l 368 -137 l 368 -137 m 861 626 l 829 626 q 727 808 803 735 q 524 882 651 882 q 488 880 507 882 q 451 872 469 878 q 380 845 415 864 q 315 797 344 826 q 307 789 311 793 q 299 779 303 785 q 231 665 261 739 q 200 456 200 590 q 305 138 200 235 q 540 40 410 40 q 681 65 621 40 q 783 119 742 90 q 824 153 807 136 q 854 181 842 169 l 879 157 q 856 127 879 154 q 788 68 833 100 q 671 8 742 35 q 503 -19 600 -19 q 481 -19 492 -19 q 460 -18 469 -18 q 170 105 301 -6 q 39 458 39 215 q 185 815 39 692 q 511 938 332 938 q 597 931 557 938 q 668 915 638 924 q 722 899 700 906 q 756 892 744 892 q 768 892 758 892 q 789 899 778 893 q 807 912 799 903 q 819 938 815 921 l 849 939 l 861 626 l 861 626 z "},"É":{"ha":849,"x_min":17,"x_max":829,"o":"m 829 235 l 767 0 l 17 0 l 17 26 q 110 49 83 29 q 138 150 138 69 l 138 768 q 110 867 138 849 q 17 892 82 886 l 17 919 l 754 919 l 758 721 l 724 721 q 668 839 708 813 q 513 865 628 865 l 325 867 q 291 860 303 865 q 279 818 279 854 l 279 511 l 493 511 q 609 538 585 510 q 646 638 633 567 q 646 640 646 639 q 646 642 646 640 l 678 643 l 678 321 l 646 321 q 606 426 633 403 q 493 451 579 450 l 279 456 l 279 111 q 305 59 279 67 q 486 51 331 51 q 681 90 617 51 q 790 233 744 128 l 829 235 l 829 235 m 378 999 l 322 999 l 526 1204 q 553 1226 543 1219 q 572 1233 563 1232 q 579 1235 575 1235 q 588 1235 583 1235 q 615 1228 606 1235 q 628 1213 624 1221 q 633 1199 632 1206 q 633 1190 633 1192 q 626 1163 633 1175 q 608 1143 618 1151 q 600 1138 604 1140 q 592 1132 596 1135 l 378 999 l 378 999 z "},"Ñ":{"ha":1003,"x_min":17,"x_max":982,"o":"m 982 919 l 982 893 q 978 892 981 892 q 975 890 976 892 q 881 858 913 883 q 850 714 850 832 l 850 -15 l 826 -15 l 215 746 l 213 746 l 213 204 q 240 62 213 96 q 343 25 267 28 l 343 0 l 17 0 l 17 26 q 124 60 96 31 q 151 203 151 90 l 151 817 q 113 857 129 842 q 82 881 97 872 q 53 890 68 888 q 17 892 38 892 l 17 919 l 254 919 l 786 251 l 789 251 l 789 715 q 758 860 789 833 q 656 892 726 886 l 656 919 l 982 919 l 982 919 m 690 1181 l 731 1181 q 723 1151 728 1167 q 710 1118 718 1135 q 667 1059 696 1086 q 585 1032 638 1032 q 551 1035 567 1032 q 522 1043 536 1038 q 498 1053 510 1047 q 472 1065 486 1058 l 440 1082 q 428 1086 435 1083 q 415 1092 421 1089 q 402 1094 408 1093 q 389 1096 396 1096 q 346 1083 361 1096 q 322 1056 331 1071 q 317 1043 319 1049 q 313 1032 314 1038 l 272 1033 q 276 1049 274 1040 q 282 1067 279 1058 q 328 1140 296 1107 q 418 1172 361 1172 q 463 1166 440 1172 q 510 1147 486 1160 l 543 1132 q 550 1127 546 1129 q 557 1124 554 1125 q 570 1119 564 1121 q 582 1115 576 1117 q 597 1111 589 1113 q 610 1110 604 1110 q 648 1119 632 1110 q 678 1153 664 1128 q 684 1165 681 1158 q 690 1179 688 1171 l 690 1181 z "},"Ö":{"ha":1003,"x_min":47,"x_max":956,"o":"m 501 -19 q 180 108 313 -19 q 47 457 47 235 q 189 817 47 697 q 501 938 331 938 q 814 817 672 938 q 956 457 956 697 q 823 108 956 235 q 501 -19 690 -19 l 501 -19 m 501 31 q 707 129 617 29 q 797 458 797 229 q 715 776 797 678 q 533 886 632 874 q 517 887 525 886 q 501 888 510 888 q 485 887 493 888 q 469 886 478 886 q 288 776 371 874 q 206 458 206 678 q 296 129 206 229 q 501 29 386 29 l 501 31 m 296 1090 q 297 1101 296 1094 q 301 1114 299 1107 q 322 1144 307 1131 q 363 1158 338 1158 q 411 1138 390 1158 q 432 1089 432 1117 q 411 1040 432 1060 q 363 1019 390 1019 q 321 1034 336 1019 q 300 1067 306 1049 q 297 1078 297 1072 q 296 1089 296 1083 l 296 1090 m 572 1090 q 574 1101 572 1094 q 578 1114 575 1107 q 599 1144 583 1131 q 639 1158 614 1158 q 688 1138 667 1158 q 708 1089 708 1117 q 688 1040 708 1060 q 639 1019 667 1019 q 597 1034 613 1019 q 576 1067 582 1049 q 573 1078 574 1072 q 572 1089 572 1083 l 572 1090 z "},"Ü":{"ha":1003,"x_min":19,"x_max":979,"o":"m 979 919 l 979 893 q 874 853 899 883 q 849 714 849 824 l 849 353 q 847 278 849 321 q 831 190 844 235 q 734 46 808 111 q 489 -19 660 -19 q 265 39 336 -19 q 168 168 193 97 q 147 263 150 218 q 144 333 144 308 l 144 768 q 122 865 144 844 q 19 892 99 886 l 19 919 l 413 919 l 413 893 q 308 863 331 886 q 286 767 286 840 l 286 324 q 288 267 286 299 q 296 203 289 236 q 360 91 311 142 q 528 40 410 40 q 667 71 610 40 q 756 150 725 101 q 778 214 769 174 q 788 339 788 254 l 788 715 q 759 856 788 825 q 657 892 731 888 l 657 919 l 979 919 l 979 919 m 296 1090 q 297 1101 296 1094 q 301 1114 299 1107 q 322 1144 307 1131 q 363 1158 338 1158 q 411 1138 390 1158 q 432 1089 432 1117 q 411 1040 432 1060 q 363 1019 390 1019 q 321 1034 336 1019 q 300 1067 306 1049 q 297 1078 297 1072 q 296 1089 296 1083 l 296 1090 m 572 1090 q 574 1101 572 1094 q 578 1114 575 1107 q 599 1144 583 1131 q 639 1158 614 1158 q 688 1138 667 1158 q 708 1089 708 1117 q 688 1040 708 1060 q 639 1019 667 1019 q 597 1034 613 1019 q 576 1067 582 1049 q 573 1078 574 1072 q 572 1089 572 1083 l 572 1090 z "},"á":{"ha":617,"x_min":51,"x_max":614,"o":"m 614 92 l 614 56 q 539 -6 571 3 q 490 -14 507 -14 q 472 -13 483 -14 q 450 -7 461 -12 q 418 20 433 0 q 400 86 403 40 q 388 76 394 81 q 375 65 382 71 q 293 10 339 35 q 199 -14 247 -14 q 97 23 143 -14 q 51 129 51 60 q 94 246 51 201 q 218 329 136 290 q 301 365 256 347 q 399 404 346 383 l 399 490 q 376 569 399 544 q 328 600 354 593 q 309 603 318 603 q 292 604 300 604 q 283 604 288 604 q 275 603 279 604 q 219 583 244 600 q 193 536 193 565 q 194 520 193 528 q 197 506 196 513 q 199 492 197 499 q 200 482 200 486 q 200 480 200 481 q 200 478 200 479 q 181 440 199 457 q 138 422 164 422 q 102 434 115 422 q 82 460 89 446 q 79 472 81 467 q 78 483 78 478 q 83 511 78 496 q 97 542 88 526 q 169 608 119 578 q 304 638 219 638 q 456 593 415 638 q 507 496 497 549 q 510 454 510 475 q 511 415 511 433 l 511 146 q 516 89 511 114 q 551 64 521 64 q 585 71 571 64 q 610 88 599 78 q 612 88 611 88 q 614 90 613 89 l 614 92 m 399 171 l 399 372 q 338 349 365 360 q 289 325 311 338 q 192 244 210 283 q 174 176 174 204 l 174 175 q 200 95 174 125 q 265 65 226 65 q 279 67 272 65 q 294 69 286 68 q 311 74 303 71 q 326 79 319 76 q 341 85 335 82 q 351 90 347 89 q 360 95 356 93 q 368 99 364 97 q 394 128 389 113 q 399 169 399 143 l 399 171 m 263 704 l 207 704 l 411 910 q 438 931 428 925 q 457 939 447 938 q 464 940 460 940 q 472 940 468 940 q 499 933 490 940 q 513 918 508 926 q 517 904 517 911 q 518 896 518 897 q 510 869 518 881 q 493 849 503 857 q 485 843 489 846 q 476 838 481 840 l 263 704 l 263 704 z "},"à":{"ha":617,"x_min":51,"x_max":614,"o":"m 614 92 l 614 56 q 539 -6 571 3 q 490 -14 507 -14 q 472 -13 483 -14 q 450 -7 461 -12 q 418 20 433 0 q 400 86 403 40 q 388 76 394 81 q 375 65 382 71 q 293 10 339 35 q 199 -14 247 -14 q 97 23 143 -14 q 51 129 51 60 q 94 246 51 201 q 218 329 136 290 q 301 365 256 347 q 399 404 346 383 l 399 490 q 376 569 399 544 q 328 600 354 593 q 309 603 318 603 q 292 604 300 604 q 283 604 288 604 q 275 603 279 604 q 219 583 244 600 q 193 536 193 565 q 194 520 193 528 q 197 506 196 513 q 199 492 197 499 q 200 482 200 486 q 200 480 200 481 q 200 478 200 479 q 181 440 199 457 q 138 422 164 422 q 102 434 115 422 q 82 460 89 446 q 79 472 81 467 q 78 483 78 478 q 83 511 78 496 q 97 542 88 526 q 169 608 119 578 q 304 638 219 638 q 456 593 415 638 q 507 496 497 549 q 510 454 510 475 q 511 415 511 433 l 511 146 q 516 89 511 114 q 551 64 521 64 q 585 71 571 64 q 610 88 599 78 q 612 88 611 88 q 614 90 613 89 l 614 92 m 399 171 l 399 372 q 338 349 365 360 q 289 325 311 338 q 192 244 210 283 q 174 176 174 204 l 174 175 q 200 95 174 125 q 265 65 226 65 q 279 67 272 65 q 294 69 286 68 q 311 74 303 71 q 326 79 319 76 q 341 85 335 82 q 351 90 347 89 q 360 95 356 93 q 368 99 364 97 q 394 128 389 113 q 399 169 399 143 l 399 171 m 414 704 l 358 704 l 144 839 q 139 842 142 839 q 132 846 136 844 q 113 868 122 856 q 104 897 104 881 q 105 905 104 899 q 110 918 106 911 q 123 933 114 926 q 149 940 132 940 q 159 940 154 940 q 168 939 164 940 q 185 930 176 936 q 210 908 193 924 l 414 704 l 414 704 z "},"â":{"ha":617,"x_min":51,"x_max":614,"o":"m 614 92 l 614 56 q 539 -6 571 3 q 490 -14 507 -14 q 472 -13 483 -14 q 450 -7 461 -12 q 418 20 433 0 q 400 86 403 40 q 388 76 394 81 q 375 65 382 71 q 293 10 339 35 q 199 -14 247 -14 q 97 23 143 -14 q 51 129 51 60 q 94 246 51 201 q 218 329 136 290 q 301 365 256 347 q 399 404 346 383 l 399 490 q 376 569 399 544 q 328 600 354 593 q 309 603 318 603 q 292 604 300 604 q 283 604 288 604 q 275 603 279 604 q 219 583 244 600 q 193 536 193 565 q 194 520 193 528 q 197 506 196 513 q 199 492 197 499 q 200 482 200 486 q 200 480 200 481 q 200 478 200 479 q 181 440 199 457 q 138 422 164 422 q 102 434 115 422 q 82 460 89 446 q 79 472 81 467 q 78 483 78 478 q 83 511 78 496 q 97 542 88 526 q 169 608 119 578 q 304 638 219 638 q 456 593 415 638 q 507 496 497 549 q 510 454 510 475 q 511 415 511 433 l 511 146 q 516 89 511 114 q 551 64 521 64 q 585 71 571 64 q 610 88 599 78 q 612 88 611 88 q 614 90 613 89 l 614 92 m 399 171 l 399 372 q 338 349 365 360 q 289 325 311 338 q 192 244 210 283 q 174 176 174 204 l 174 175 q 200 95 174 125 q 265 65 226 65 q 279 67 272 65 q 294 69 286 68 q 311 74 303 71 q 326 79 319 76 q 341 85 335 82 q 351 90 347 89 q 360 95 356 93 q 368 99 364 97 q 394 128 389 113 q 399 169 399 143 l 399 171 m 525 704 l 478 704 l 308 847 l 140 704 l 93 704 l 265 936 l 351 936 l 525 704 l 525 704 z "},"ä":{"ha":617,"x_min":51,"x_max":614,"o":"m 614 92 l 614 56 q 539 -6 571 3 q 490 -14 507 -14 q 472 -13 483 -14 q 450 -7 461 -12 q 418 20 433 0 q 400 86 403 40 q 388 76 394 81 q 375 65 382 71 q 293 10 339 35 q 199 -14 247 -14 q 97 23 143 -14 q 51 129 51 60 q 94 246 51 201 q 218 329 136 290 q 301 365 256 347 q 399 404 346 383 l 399 490 q 376 569 399 544 q 328 600 354 593 q 309 603 318 603 q 292 604 300 604 q 283 604 288 604 q 275 603 279 604 q 219 583 244 600 q 193 536 193 565 q 194 520 193 528 q 197 506 196 513 q 199 492 197 499 q 200 482 200 486 q 200 480 200 481 q 200 478 200 479 q 181 440 199 457 q 138 422 164 422 q 102 434 115 422 q 82 460 89 446 q 79 472 81 467 q 78 483 78 478 q 83 511 78 496 q 97 542 88 526 q 169 608 119 578 q 304 638 219 638 q 456 593 415 638 q 507 496 497 549 q 510 454 510 475 q 511 415 511 433 l 511 146 q 516 89 511 114 q 551 64 521 64 q 585 71 571 64 q 610 88 599 78 q 612 88 611 88 q 614 90 613 89 l 614 92 m 399 171 l 399 372 q 338 349 365 360 q 289 325 311 338 q 192 244 210 283 q 174 176 174 204 l 174 175 q 200 95 174 125 q 265 65 226 65 q 279 67 272 65 q 294 69 286 68 q 311 74 303 71 q 326 79 319 76 q 341 85 335 82 q 351 90 347 89 q 360 95 356 93 q 368 99 364 97 q 394 128 389 113 q 399 169 399 143 l 399 171 m 103 796 q 104 806 103 800 q 108 819 106 813 q 129 850 114 836 q 169 864 144 864 q 218 843 197 864 q 239 794 239 822 q 218 745 239 765 q 169 725 197 725 q 128 740 143 725 q 107 772 113 754 q 103 783 104 778 q 103 794 103 789 l 103 796 m 379 796 q 381 806 379 800 q 385 819 382 813 q 406 850 390 836 q 446 864 421 864 q 494 843 474 864 q 515 794 515 822 q 494 745 515 765 q 446 725 474 725 q 404 740 419 725 q 383 772 389 754 q 380 783 381 778 q 379 794 379 789 l 379 796 z "},"ã":{"ha":617,"x_min":51,"x_max":614,"o":"m 614 92 l 614 56 q 539 -6 571 3 q 490 -14 507 -14 q 472 -13 483 -14 q 450 -7 461 -12 q 418 20 433 0 q 400 86 403 40 q 388 76 394 81 q 375 65 382 71 q 293 10 339 35 q 199 -14 247 -14 q 97 23 143 -14 q 51 129 51 60 q 94 246 51 201 q 218 329 136 290 q 301 365 256 347 q 399 404 346 383 l 399 490 q 376 569 399 544 q 328 600 354 593 q 309 603 318 603 q 292 604 300 604 q 283 604 288 604 q 275 603 279 604 q 219 583 244 600 q 193 536 193 565 q 194 520 193 528 q 197 506 196 513 q 199 492 197 499 q 200 482 200 486 q 200 480 200 481 q 200 478 200 479 q 181 440 199 457 q 138 422 164 422 q 102 434 115 422 q 82 460 89 446 q 79 472 81 467 q 78 483 78 478 q 83 511 78 496 q 97 542 88 526 q 169 608 119 578 q 304 638 219 638 q 456 593 415 638 q 507 496 497 549 q 510 454 510 475 q 511 415 511 433 l 511 146 q 516 89 511 114 q 551 64 521 64 q 585 71 571 64 q 610 88 599 78 q 612 88 611 88 q 614 90 613 89 l 614 92 m 399 171 l 399 372 q 338 349 365 360 q 289 325 311 338 q 192 244 210 283 q 174 176 174 204 l 174 175 q 200 95 174 125 q 265 65 226 65 q 279 67 272 65 q 294 69 286 68 q 311 74 303 71 q 326 79 319 76 q 341 85 335 82 q 351 90 347 89 q 360 95 356 93 q 368 99 364 97 q 394 128 389 113 q 399 169 399 143 l 399 171 m 497 886 l 538 886 q 530 856 535 872 q 517 824 525 840 q 474 765 503 792 q 392 738 444 738 q 358 740 374 738 q 329 749 343 743 q 305 758 317 753 q 279 771 293 764 l 247 788 q 235 792 242 789 q 222 797 228 794 q 209 800 215 799 q 196 801 203 801 q 153 789 168 801 q 129 761 138 776 q 124 749 126 754 q 119 738 121 743 l 79 739 q 83 755 81 746 q 89 772 86 764 q 135 845 103 813 q 225 878 168 878 q 270 872 247 878 q 317 853 293 865 l 350 838 q 357 833 353 835 q 364 829 361 831 q 377 824 371 826 q 389 821 383 822 q 403 817 396 818 q 417 815 411 815 q 455 824 439 815 q 485 858 471 833 q 491 870 488 864 q 497 885 494 876 l 497 886 z "},"å":{"ha":617,"x_min":51,"x_max":614,"o":"m 614 92 l 614 56 q 539 -6 571 3 q 490 -14 507 -14 q 472 -13 483 -14 q 450 -7 461 -12 q 418 20 433 0 q 400 86 403 40 q 388 76 394 81 q 375 65 382 71 q 293 10 339 35 q 199 -14 247 -14 q 97 23 143 -14 q 51 129 51 60 q 94 246 51 201 q 218 329 136 290 q 301 365 256 347 q 399 404 346 383 l 399 490 q 376 569 399 544 q 328 600 354 593 q 309 603 318 603 q 292 604 300 604 q 283 604 288 604 q 275 603 279 604 q 219 583 244 600 q 193 536 193 565 q 194 520 193 528 q 197 506 196 513 q 199 492 197 499 q 200 482 200 486 q 200 480 200 481 q 200 478 200 479 q 181 440 199 457 q 138 422 164 422 q 102 434 115 422 q 82 460 89 446 q 79 472 81 467 q 78 483 78 478 q 83 511 78 496 q 97 542 88 526 q 169 608 119 578 q 304 638 219 638 q 456 593 415 638 q 507 496 497 549 q 510 454 510 475 q 511 415 511 433 l 511 146 q 516 89 511 114 q 551 64 521 64 q 585 71 571 64 q 610 88 599 78 q 612 88 611 88 q 614 90 613 89 l 614 92 m 399 171 l 399 372 q 338 349 365 360 q 289 325 311 338 q 192 244 210 283 q 174 176 174 204 l 174 175 q 200 95 174 125 q 265 65 226 65 q 279 67 272 65 q 294 69 286 68 q 311 74 303 71 q 326 79 319 76 q 341 85 335 82 q 351 90 347 89 q 360 95 356 93 q 368 99 364 97 q 394 128 389 113 q 399 169 399 143 l 399 171 m 171 849 q 210 945 171 904 q 308 986 250 986 q 406 945 365 986 q 447 847 447 904 q 406 750 447 790 q 308 710 365 710 q 210 751 249 710 q 171 847 171 792 l 171 849 m 308 940 q 255 921 275 939 q 225 882 235 903 q 220 865 222 874 q 218 849 218 856 q 219 833 218 842 q 225 815 221 825 q 253 776 233 794 q 307 757 274 757 q 374 783 347 757 q 400 847 400 810 q 374 912 400 885 q 308 939 347 939 l 308 940 z "},"ç":{"ha":617,"x_min":35,"x_max":572,"o":"m 214 -137 l 271 0 l 319 0 l 285 -90 q 290 -90 288 -90 q 294 -89 293 -89 q 308 -87 301 -87 q 324 -86 315 -86 q 409 -111 378 -86 q 440 -183 440 -136 q 440 -185 440 -185 q 440 -187 440 -186 q 399 -264 439 -229 q 272 -299 358 -299 q 212 -294 236 -299 q 171 -285 188 -290 q 160 -280 165 -282 q 150 -276 154 -278 l 169 -233 q 187 -239 176 -236 q 207 -243 197 -242 q 237 -249 224 -247 q 256 -250 250 -250 q 313 -237 289 -250 q 336 -187 336 -224 q 321 -151 336 -164 q 274 -139 306 -139 q 263 -139 268 -139 q 251 -139 257 -139 q 236 -141 243 -140 q 224 -144 229 -142 l 214 -137 l 214 -137 m 553 217 l 572 204 q 448 35 517 85 q 294 -14 379 -14 q 260 -11 278 -14 q 224 -3 242 -8 q 94 91 153 19 q 35 294 35 163 q 123 540 35 454 q 317 636 211 625 q 331 637 324 636 q 346 638 339 638 q 369 636 357 638 q 394 632 382 635 q 449 616 422 626 q 493 594 475 606 q 517 574 507 585 q 535 551 528 563 q 549 522 544 536 q 553 497 553 508 q 537 456 553 474 q 489 436 521 439 q 487 436 488 436 q 485 436 486 436 q 448 452 463 436 q 425 488 433 468 q 423 494 424 490 q 421 500 422 497 l 413 532 q 412 534 413 532 q 411 538 411 536 q 388 581 403 565 q 321 597 372 597 q 285 592 307 597 q 242 574 264 586 q 173 498 204 550 q 142 350 142 446 q 204 158 142 231 q 354 85 267 85 q 474 124 429 85 q 553 215 518 163 l 553 217 z "},"é":{"ha":617,"x_min":35,"x_max":589,"o":"m 567 228 l 589 218 q 570 172 585 203 q 528 106 556 140 q 436 23 493 60 q 294 -14 379 -14 q 107 67 179 -14 q 35 296 35 149 q 93 514 35 438 q 222 618 151 590 q 272 633 247 628 q 318 638 296 638 q 484 578 417 638 q 563 383 551 519 l 131 385 q 191 167 140 232 q 301 86 242 101 q 326 82 314 83 q 351 81 339 81 q 458 108 415 81 q 528 169 500 136 q 550 199 540 185 q 567 226 560 214 l 567 228 m 135 429 l 421 429 q 417 451 419 439 q 413 475 415 463 q 377 552 403 517 q 288 588 351 588 q 191 553 231 588 q 135 428 151 519 l 135 429 m 263 704 l 207 704 l 411 910 q 438 931 428 925 q 457 939 447 938 q 464 940 460 940 q 472 940 468 940 q 499 933 490 940 q 513 918 508 926 q 517 904 517 911 q 518 896 518 897 q 510 869 518 881 q 493 849 503 857 q 485 843 489 846 q 476 838 481 840 l 263 704 l 263 704 z "},"è":{"ha":617,"x_min":35,"x_max":589,"o":"m 567 228 l 589 218 q 570 172 585 203 q 528 106 556 140 q 436 23 493 60 q 294 -14 379 -14 q 107 67 179 -14 q 35 296 35 149 q 93 514 35 438 q 222 618 151 590 q 272 633 247 628 q 318 638 296 638 q 484 578 417 638 q 563 383 551 519 l 131 385 q 191 167 140 232 q 301 86 242 101 q 326 82 314 83 q 351 81 339 81 q 458 108 415 81 q 528 169 500 136 q 550 199 540 185 q 567 226 560 214 l 567 228 m 135 429 l 421 429 q 417 451 419 439 q 413 475 415 463 q 377 552 403 517 q 288 588 351 588 q 191 553 231 588 q 135 428 151 519 l 135 429 m 414 704 l 358 704 l 144 839 q 139 842 142 839 q 132 846 136 844 q 113 868 122 856 q 104 897 104 881 q 105 905 104 899 q 110 918 106 911 q 123 933 114 926 q 149 940 132 940 q 159 940 154 940 q 168 939 164 940 q 185 930 176 936 q 210 908 193 924 l 414 704 l 414 704 z "},"ê":{"ha":617,"x_min":35,"x_max":589,"o":"m 567 228 l 589 218 q 570 172 585 203 q 528 106 556 140 q 436 23 493 60 q 294 -14 379 -14 q 107 67 179 -14 q 35 296 35 149 q 93 514 35 438 q 222 618 151 590 q 272 633 247 628 q 318 638 296 638 q 484 578 417 638 q 563 383 551 519 l 131 385 q 191 167 140 232 q 301 86 242 101 q 326 82 314 83 q 351 81 339 81 q 458 108 415 81 q 528 169 500 136 q 550 199 540 185 q 567 226 560 214 l 567 228 m 135 429 l 421 429 q 417 451 419 439 q 413 475 415 463 q 377 552 403 517 q 288 588 351 588 q 191 553 231 588 q 135 428 151 519 l 135 429 m 525 704 l 478 704 l 308 847 l 140 704 l 93 704 l 265 936 l 351 936 l 525 704 l 525 704 z "},"ë":{"ha":617,"x_min":35,"x_max":589,"o":"m 567 228 l 589 218 q 570 172 585 203 q 528 106 556 140 q 436 23 493 60 q 294 -14 379 -14 q 107 67 179 -14 q 35 296 35 149 q 93 514 35 438 q 222 618 151 590 q 272 633 247 628 q 318 638 296 638 q 484 578 417 638 q 563 383 551 519 l 131 385 q 191 167 140 232 q 301 86 242 101 q 326 82 314 83 q 351 81 339 81 q 458 108 415 81 q 528 169 500 136 q 550 199 540 185 q 567 226 560 214 l 567 228 m 135 429 l 421 429 q 417 451 419 439 q 413 475 415 463 q 377 552 403 517 q 288 588 351 588 q 191 553 231 588 q 135 428 151 519 l 135 429 m 103 796 q 104 806 103 800 q 108 819 106 813 q 129 850 114 836 q 169 864 144 864 q 218 843 197 864 q 239 794 239 822 q 218 745 239 765 q 169 725 197 725 q 128 740 143 725 q 107 772 113 754 q 103 783 104 778 q 103 794 103 789 l 103 796 m 379 796 q 381 806 379 800 q 385 819 382 813 q 406 850 390 836 q 446 864 421 864 q 494 843 474 864 q 515 794 515 822 q 494 745 515 765 q 446 725 474 725 q 404 740 419 725 q 383 772 389 754 q 380 783 381 778 q 379 794 379 789 l 379 796 z "},"í":{"ha":386,"x_min":22,"x_max":403,"o":"m 22 0 l 22 21 q 110 41 88 22 q 132 140 132 60 l 132 464 q 119 530 132 515 q 93 546 107 544 q 88 546 90 546 q 83 546 86 546 q 56 544 69 546 q 28 540 42 543 l 28 563 l 243 639 l 249 635 l 249 142 q 264 48 249 72 q 351 19 279 24 l 351 0 l 22 0 l 22 0 m 147 704 l 92 704 l 296 910 q 322 931 313 925 q 342 939 332 938 q 349 940 344 940 q 357 940 353 940 q 384 933 375 940 q 397 918 393 926 q 402 904 401 911 q 403 896 403 897 q 395 869 403 881 q 378 849 388 857 q 369 843 374 846 q 361 838 365 840 l 147 704 l 147 704 z "},"ì":{"ha":386,"x_min":-10,"x_max":351,"o":"m 22 0 l 22 21 q 110 41 88 22 q 132 140 132 60 l 132 464 q 119 530 132 515 q 93 546 107 544 q 88 546 90 546 q 83 546 86 546 q 56 544 69 546 q 28 540 42 543 l 28 563 l 243 639 l 249 635 l 249 142 q 264 48 249 72 q 351 19 279 24 l 351 0 l 22 0 l 22 0 m 299 704 l 243 704 l 29 839 q 24 842 26 839 q 17 846 21 844 q -1 868 7 856 q -10 897 -10 881 q -9 905 -10 899 q -4 918 -8 911 q 8 933 0 926 q 33 940 17 940 q 44 940 39 940 q 53 939 49 940 q 69 930 61 936 q 94 908 78 924 l 299 704 l 299 704 z "},"î":{"ha":386,"x_min":-22,"x_max":410,"o":"m 22 0 l 22 21 q 110 41 88 22 q 132 140 132 60 l 132 464 q 119 530 132 515 q 93 546 107 544 q 88 546 90 546 q 83 546 86 546 q 56 544 69 546 q 28 540 42 543 l 28 563 l 243 639 l 249 635 l 249 142 q 264 48 249 72 q 351 19 279 24 l 351 0 l 22 0 l 22 0 m 410 704 l 363 704 l 193 847 l 25 704 l -22 704 l 150 936 l 236 936 l 410 704 l 410 704 z "},"ï":{"ha":386,"x_min":-12,"x_max":400,"o":"m 22 0 l 22 21 q 110 41 88 22 q 132 140 132 60 l 132 464 q 119 530 132 515 q 93 546 107 544 q 88 546 90 546 q 83 546 86 546 q 56 544 69 546 q 28 540 42 543 l 28 563 l 243 639 l 249 635 l 249 142 q 264 48 249 72 q 351 19 279 24 l 351 0 l 22 0 l 22 0 m -12 796 q -10 806 -11 800 q -6 819 -8 813 q 15 850 0 836 q 54 864 29 864 q 103 843 82 864 q 124 794 124 822 q 103 745 124 765 q 54 725 82 725 q 13 740 28 725 q -7 772 -1 754 q -10 783 -10 778 q -11 794 -11 789 l -12 796 m 264 796 q 265 806 264 800 q 269 819 267 813 q 290 850 275 836 q 331 864 306 864 q 379 843 358 864 q 400 794 400 822 q 379 745 400 765 q 331 725 358 725 q 289 740 304 725 q 268 772 274 754 q 265 783 265 778 q 264 794 264 789 l 264 796 z "},"ñ":{"ha":694,"x_min":22,"x_max":674,"o":"m 111 125 l 111 469 q 99 540 111 525 q 72 557 86 556 q 67 557 69 557 q 63 557 65 557 q 38 556 49 557 q 22 551 26 554 l 22 576 q 86 594 54 585 q 150 615 118 604 q 182 626 165 621 q 214 638 199 632 l 224 636 l 224 526 q 258 556 242 542 q 290 585 274 571 q 353 623 321 608 q 426 638 386 638 q 453 635 439 638 q 481 628 467 633 q 555 569 521 614 q 589 429 589 524 l 589 113 q 606 43 589 63 q 674 19 622 24 l 674 0 l 385 0 l 385 21 q 448 40 424 22 q 472 136 472 57 l 472 428 q 449 526 472 490 q 365 561 426 561 q 301 541 335 561 q 228 482 268 521 l 228 93 q 247 40 228 57 q 319 19 265 22 l 319 0 l 25 0 l 25 21 q 92 42 74 22 q 111 124 111 63 l 111 125 m 536 886 l 576 886 q 569 856 574 872 q 556 824 564 840 q 513 765 542 792 q 431 738 483 738 q 397 740 413 738 q 368 749 382 743 q 344 758 356 753 q 318 771 332 764 l 286 788 q 274 792 281 789 q 261 797 267 794 q 248 800 254 799 q 235 801 242 801 q 192 789 207 801 q 168 761 176 776 q 163 749 165 754 q 158 738 160 743 l 118 739 q 122 755 119 746 q 128 772 125 764 q 174 845 142 813 q 264 878 207 878 q 309 872 286 878 q 356 853 332 865 l 389 838 q 396 833 392 835 q 403 829 400 831 q 416 824 410 826 q 428 821 422 822 q 442 817 435 818 q 456 815 450 815 q 494 824 478 815 q 524 858 510 833 q 530 870 526 864 q 536 885 533 876 l 536 886 z "},"ó":{"ha":694,"x_min":40,"x_max":653,"o":"m 340 639 q 565 552 476 638 q 653 315 653 467 q 649 267 653 292 q 638 218 646 243 q 540 58 613 131 q 344 -14 468 -14 q 125 81 210 -14 q 40 315 40 175 q 121 540 40 443 q 340 638 201 638 l 340 639 m 364 25 q 385 25 374 24 q 407 31 396 26 q 490 99 451 44 q 528 275 528 154 q 476 501 528 404 q 329 599 425 599 q 215 544 264 599 q 165 382 165 490 q 169 310 165 353 q 185 224 174 268 q 244 86 201 149 q 364 24 286 24 l 364 25 m 301 704 l 246 704 l 450 910 q 476 931 467 925 q 496 939 486 938 q 503 940 499 940 q 511 940 507 940 q 538 933 529 940 q 551 918 547 926 q 556 904 556 911 q 557 896 557 897 q 549 869 557 881 q 532 849 542 857 q 524 843 528 846 q 515 838 519 840 l 301 704 l 301 704 z "},"ò":{"ha":694,"x_min":40,"x_max":653,"o":"m 340 639 q 565 552 476 638 q 653 315 653 467 q 649 267 653 292 q 638 218 646 243 q 540 58 613 131 q 344 -14 468 -14 q 125 81 210 -14 q 40 315 40 175 q 121 540 40 443 q 340 638 201 638 l 340 639 m 364 25 q 385 25 374 24 q 407 31 396 26 q 490 99 451 44 q 528 275 528 154 q 476 501 528 404 q 329 599 425 599 q 215 544 264 599 q 165 382 165 490 q 169 310 165 353 q 185 224 174 268 q 244 86 201 149 q 364 24 286 24 l 364 25 m 453 704 l 397 704 l 183 839 q 178 842 181 839 q 171 846 175 844 q 152 868 161 856 q 143 897 143 881 q 144 905 143 899 q 149 918 144 911 q 162 933 153 926 q 188 940 171 940 q 198 940 193 940 q 207 939 203 940 q 224 930 215 936 q 249 908 232 924 l 453 704 l 453 704 z "},"ô":{"ha":694,"x_min":40,"x_max":653,"o":"m 340 639 q 565 552 476 638 q 653 315 653 467 q 649 267 653 292 q 638 218 646 243 q 540 58 613 131 q 344 -14 468 -14 q 125 81 210 -14 q 40 315 40 175 q 121 540 40 443 q 340 638 201 638 l 340 639 m 364 25 q 385 25 374 24 q 407 31 396 26 q 490 99 451 44 q 528 275 528 154 q 476 501 528 404 q 329 599 425 599 q 215 544 264 599 q 165 382 165 490 q 169 310 165 353 q 185 224 174 268 q 244 86 201 149 q 364 24 286 24 l 364 25 m 564 704 l 517 704 l 347 847 l 179 704 l 132 704 l 304 936 l 390 936 l 564 704 l 564 704 z "},"ö":{"ha":694,"x_min":40,"x_max":653,"o":"m 340 639 q 565 552 476 638 q 653 315 653 467 q 649 267 653 292 q 638 218 646 243 q 540 58 613 131 q 344 -14 468 -14 q 125 81 210 -14 q 40 315 40 175 q 121 540 40 443 q 340 638 201 638 l 340 639 m 364 25 q 385 25 374 24 q 407 31 396 26 q 490 99 451 44 q 528 275 528 154 q 476 501 528 404 q 329 599 425 599 q 215 544 264 599 q 165 382 165 490 q 169 310 165 353 q 185 224 174 268 q 244 86 201 149 q 364 24 286 24 l 364 25 m 142 796 q 143 806 142 800 q 147 819 144 813 q 168 850 153 836 q 208 864 183 864 q 257 843 236 864 q 278 794 278 822 q 257 745 278 765 q 208 725 236 725 q 167 740 182 725 q 146 772 151 754 q 142 783 143 778 q 142 794 142 789 l 142 796 m 418 796 q 419 806 418 800 q 424 819 421 813 q 444 850 429 836 q 485 864 460 864 q 533 843 513 864 q 554 794 554 822 q 533 745 554 765 q 485 725 513 725 q 443 740 458 725 q 422 772 428 754 q 419 783 419 778 q 418 794 418 789 l 418 796 z "},"õ":{"ha":694,"x_min":40,"x_max":653,"o":"m 340 639 q 565 552 476 638 q 653 315 653 467 q 649 267 653 292 q 638 218 646 243 q 540 58 613 131 q 344 -14 468 -14 q 125 81 210 -14 q 40 315 40 175 q 121 540 40 443 q 340 638 201 638 l 340 639 m 364 25 q 385 25 374 24 q 407 31 396 26 q 490 99 451 44 q 528 275 528 154 q 476 501 528 404 q 329 599 425 599 q 215 544 264 599 q 165 382 165 490 q 169 310 165 353 q 185 224 174 268 q 244 86 201 149 q 364 24 286 24 l 364 25 m 536 886 l 576 886 q 569 856 574 872 q 556 824 564 840 q 513 765 542 792 q 431 738 483 738 q 397 740 413 738 q 368 749 382 743 q 344 758 356 753 q 318 771 332 764 l 286 788 q 274 792 281 789 q 261 797 267 794 q 248 800 254 799 q 235 801 242 801 q 192 789 207 801 q 168 761 176 776 q 163 749 165 754 q 158 738 160 743 l 118 739 q 122 755 119 746 q 128 772 125 764 q 174 845 142 813 q 264 878 207 878 q 309 872 286 878 q 356 853 332 865 l 389 838 q 396 833 392 835 q 403 829 400 831 q 416 824 410 826 q 428 821 422 822 q 442 817 435 818 q 456 815 450 815 q 494 824 478 815 q 524 858 510 833 q 530 870 526 864 q 536 885 533 876 l 536 886 z "},"ú":{"ha":694,"x_min":13,"x_max":665,"o":"m 665 69 l 665 50 q 599 30 629 39 q 539 10 568 21 q 507 -1 524 4 q 472 -12 490 -6 l 469 -10 l 469 106 l 410 46 q 390 27 400 35 q 371 14 381 19 q 308 -9 338 -4 q 264 -14 278 -14 q 233 -11 250 -14 q 199 -1 217 -8 q 130 51 161 13 q 99 165 99 90 l 99 517 q 74 588 99 574 q 19 604 50 601 q 16 604 18 604 q 13 604 14 604 l 13 625 l 215 625 l 215 172 q 218 150 215 164 q 228 119 221 136 q 259 83 238 100 q 319 65 281 65 q 382 79 351 65 q 440 115 413 93 q 456 138 450 124 q 463 186 463 151 l 463 514 q 448 576 463 554 q 360 600 433 599 l 360 625 l 579 625 l 579 149 q 590 90 579 111 q 656 68 600 68 q 658 68 657 68 q 661 68 660 68 q 663 68 661 68 q 665 68 664 68 l 665 69 m 301 704 l 246 704 l 450 910 q 476 931 467 925 q 496 939 486 938 q 503 940 499 940 q 511 940 507 940 q 538 933 529 940 q 551 918 547 926 q 556 904 556 911 q 557 896 557 897 q 549 869 557 881 q 532 849 542 857 q 524 843 528 846 q 515 838 519 840 l 301 704 l 301 704 z "},"ù":{"ha":694,"x_min":13,"x_max":665,"o":"m 665 69 l 665 50 q 599 30 629 39 q 539 10 568 21 q 507 -1 524 4 q 472 -12 490 -6 l 469 -10 l 469 106 l 410 46 q 390 27 400 35 q 371 14 381 19 q 308 -9 338 -4 q 264 -14 278 -14 q 233 -11 250 -14 q 199 -1 217 -8 q 130 51 161 13 q 99 165 99 90 l 99 517 q 74 588 99 574 q 19 604 50 601 q 16 604 18 604 q 13 604 14 604 l 13 625 l 215 625 l 215 172 q 218 150 215 164 q 228 119 221 136 q 259 83 238 100 q 319 65 281 65 q 382 79 351 65 q 440 115 413 93 q 456 138 450 124 q 463 186 463 151 l 463 514 q 448 576 463 554 q 360 600 433 599 l 360 625 l 579 625 l 579 149 q 590 90 579 111 q 656 68 600 68 q 658 68 657 68 q 661 68 660 68 q 663 68 661 68 q 665 68 664 68 l 665 69 m 453 704 l 397 704 l 183 839 q 178 842 181 839 q 171 846 175 844 q 152 868 161 856 q 143 897 143 881 q 144 905 143 899 q 149 918 144 911 q 162 933 153 926 q 188 940 171 940 q 198 940 193 940 q 207 939 203 940 q 224 930 215 936 q 249 908 232 924 l 453 704 l 453 704 z "},"û":{"ha":694,"x_min":13,"x_max":665,"o":"m 665 69 l 665 50 q 599 30 629 39 q 539 10 568 21 q 507 -1 524 4 q 472 -12 490 -6 l 469 -10 l 469 106 l 410 46 q 390 27 400 35 q 371 14 381 19 q 308 -9 338 -4 q 264 -14 278 -14 q 233 -11 250 -14 q 199 -1 217 -8 q 130 51 161 13 q 99 165 99 90 l 99 517 q 74 588 99 574 q 19 604 50 601 q 16 604 18 604 q 13 604 14 604 l 13 625 l 215 625 l 215 172 q 218 150 215 164 q 228 119 221 136 q 259 83 238 100 q 319 65 281 65 q 382 79 351 65 q 440 115 413 93 q 456 138 450 124 q 463 186 463 151 l 463 514 q 448 576 463 554 q 360 600 433 599 l 360 625 l 579 625 l 579 149 q 590 90 579 111 q 656 68 600 68 q 658 68 657 68 q 661 68 660 68 q 663 68 661 68 q 665 68 664 68 l 665 69 m 564 704 l 517 704 l 347 847 l 179 704 l 132 704 l 304 936 l 390 936 l 564 704 l 564 704 z "},"ü":{"ha":694,"x_min":13,"x_max":665,"o":"m 665 69 l 665 50 q 599 30 629 39 q 539 10 568 21 q 507 -1 524 4 q 472 -12 490 -6 l 469 -10 l 469 106 l 410 46 q 390 27 400 35 q 371 14 381 19 q 308 -9 338 -4 q 264 -14 278 -14 q 233 -11 250 -14 q 199 -1 217 -8 q 130 51 161 13 q 99 165 99 90 l 99 517 q 74 588 99 574 q 19 604 50 601 q 16 604 18 604 q 13 604 14 604 l 13 625 l 215 625 l 215 172 q 218 150 215 164 q 228 119 221 136 q 259 83 238 100 q 319 65 281 65 q 382 79 351 65 q 440 115 413 93 q 456 138 450 124 q 463 186 463 151 l 463 514 q 448 576 463 554 q 360 600 433 599 l 360 625 l 579 625 l 579 149 q 590 90 579 111 q 656 68 600 68 q 658 68 657 68 q 661 68 660 68 q 663 68 661 68 q 665 68 664 68 l 665 69 m 142 796 q 143 806 142 800 q 147 819 144 813 q 168 850 153 836 q 208 864 183 864 q 257 843 236 864 q 278 794 278 822 q 257 745 278 765 q 208 725 236 725 q 167 740 182 725 q 146 772 151 754 q 142 783 143 778 q 142 794 142 789 l 142 796 m 418 796 q 419 806 418 800 q 424 819 421 813 q 444 850 429 836 q 485 864 460 864 q 533 843 513 864 q 554 794 554 822 q 533 745 554 765 q 485 725 513 725 q 443 740 458 725 q 422 772 428 754 q 419 783 419 778 q 418 794 418 789 l 418 796 z "},"†":{"ha":694,"x_min":82,"x_max":614,"o":"m 364 -207 l 335 -207 l 333 -36 q 319 152 332 63 q 292 299 307 242 q 283 328 288 315 q 275 350 279 342 q 309 408 297 374 q 326 481 321 443 q 333 550 332 517 q 333 607 333 583 q 269 598 294 604 q 225 585 243 592 q 207 577 215 581 q 190 569 199 574 q 167 563 179 565 q 139 560 154 560 q 133 560 136 560 q 125 561 129 560 q 95 577 108 564 q 82 621 82 590 q 95 661 82 647 q 125 679 108 675 q 133 680 129 679 q 139 681 136 681 q 167 677 154 681 q 190 669 179 674 q 203 663 197 667 q 218 656 210 660 q 263 640 236 647 q 333 632 290 633 q 326 732 333 696 q 308 792 318 768 q 300 810 304 801 q 293 826 296 818 q 286 848 289 838 q 283 872 283 858 q 303 918 283 899 q 349 938 322 938 q 393 918 374 938 q 413 872 413 899 q 410 848 413 858 q 403 826 407 838 q 396 810 400 818 q 388 792 392 801 q 370 732 378 768 q 363 632 363 696 q 433 640 406 633 q 478 656 460 647 q 492 663 486 660 q 506 669 499 667 q 529 677 517 674 q 557 681 542 681 q 563 680 560 681 q 571 679 567 679 q 601 661 588 675 q 614 621 614 647 q 601 577 614 590 q 571 561 588 564 q 563 560 567 560 q 557 560 560 560 q 529 563 542 560 q 506 569 517 565 q 489 577 497 574 q 471 585 481 581 q 427 598 453 592 q 363 607 401 604 q 363 550 363 583 q 369 481 364 517 q 387 408 375 443 q 421 350 399 374 q 417 342 419 346 q 414 333 415 338 q 381 181 396 283 q 365 -36 365 79 l 364 -207 l 364 -207 z "},"¢":{"ha":694,"x_min":74,"x_max":622,"o":"m 560 804 l 494 617 q 565 572 536 601 q 597 511 593 543 q 599 504 599 507 q 599 499 599 501 q 582 454 599 472 q 542 436 565 436 q 496 451 514 436 q 463 499 478 467 q 460 503 461 501 q 458 508 460 506 l 318 106 q 331 99 325 101 q 343 96 338 97 q 369 90 356 92 q 397 88 382 88 q 490 109 450 88 q 568 176 531 131 q 585 200 576 188 q 604 226 594 213 l 622 217 q 509 47 574 107 q 354 -12 444 -12 q 326 -11 339 -12 q 303 -7 314 -10 q 292 -3 297 -6 q 279 0 286 -1 l 211 -192 l 164 -192 l 235 17 q 157 73 188 39 q 110 143 126 107 q 80 235 86 192 q 74 297 74 278 q 156 535 74 450 q 339 635 239 619 q 359 637 349 636 q 379 638 369 638 q 413 635 396 638 q 450 631 431 633 l 511 804 l 560 804 l 560 804 m 275 136 l 435 585 q 406 592 421 589 q 368 596 392 596 q 336 593 353 596 q 303 583 319 590 q 219 513 257 564 q 181 360 181 461 q 203 233 181 290 q 275 135 226 175 l 275 136 z "},"£":{"ha":694,"x_min":17,"x_max":681,"o":"m 478 518 l 478 456 l 308 456 l 310 418 q 310 403 310 410 q 311 393 310 397 q 311 382 311 388 q 311 372 311 376 q 311 365 311 368 q 311 357 311 361 q 302 288 310 328 q 276 153 294 247 q 397 114 342 124 q 485 104 451 104 q 564 118 533 104 q 615 150 594 132 q 649 181 636 167 q 672 194 661 194 q 678 194 675 194 q 681 188 681 193 q 671 153 681 181 q 640 93 661 125 q 625 74 633 83 q 607 54 617 64 q 535 7 576 24 q 444 -10 494 -10 q 342 16 392 -10 q 247 74 293 42 q 244 71 246 72 q 242 67 243 69 q 185 13 215 36 q 110 -11 156 -11 q 104 -11 107 -11 q 99 -11 101 -11 q 42 11 68 -8 q 17 72 17 31 q 53 151 17 124 q 146 179 89 179 q 162 178 154 179 q 176 178 169 178 q 191 175 183 176 q 207 172 199 174 q 208 175 207 174 q 208 179 208 176 q 209 182 208 181 q 210 185 210 183 q 210 191 210 188 q 211 196 211 194 q 203 297 211 232 q 182 454 194 361 l 32 456 l 32 518 l 181 518 q 178 528 179 522 q 176 540 178 535 q 172 570 174 554 q 171 610 171 586 q 251 858 171 779 q 442 938 332 938 q 574 899 528 938 q 622 813 621 860 q 622 810 622 811 q 622 808 622 810 q 601 754 622 774 q 554 735 581 735 q 506 763 514 735 q 499 824 499 790 q 499 826 499 825 q 499 828 499 826 q 486 874 499 860 q 458 894 474 889 q 436 899 446 899 q 421 900 426 900 q 339 868 367 900 q 300 797 311 836 q 291 749 293 772 q 289 711 289 725 q 290 668 289 688 q 292 629 290 649 q 297 577 294 604 q 304 517 300 550 l 478 518 l 478 518 m 108 28 q 154 39 136 26 q 182 67 172 51 q 194 90 190 79 q 197 106 197 101 q 197 108 197 107 q 196 108 197 108 q 174 121 192 115 q 138 128 157 126 q 127 129 132 129 q 118 129 122 129 q 71 117 89 129 q 53 76 53 104 q 69 40 53 54 q 108 26 86 26 l 108 28 z "},"§":{"ha":694,"x_min":97,"x_max":592,"o":"m 97 392 q 141 512 97 463 q 260 561 185 561 q 273 561 267 561 q 285 560 279 561 l 288 564 q 259 587 272 575 q 233 610 246 599 q 175 680 197 643 q 153 768 153 717 q 213 897 153 856 q 350 938 274 938 q 470 901 417 938 q 524 803 524 864 q 506 750 524 772 q 453 728 489 728 q 413 739 426 728 q 393 763 399 750 q 389 776 390 769 q 388 788 388 782 q 395 817 388 804 q 411 838 403 829 q 427 853 419 847 q 435 863 435 858 q 412 895 435 882 q 340 908 389 908 q 275 890 299 908 q 240 851 251 872 q 233 830 235 840 q 231 811 231 819 q 233 787 231 800 q 242 760 236 774 q 256 734 247 746 q 278 711 265 722 l 468 556 q 555 458 518 513 q 592 342 592 403 q 551 224 592 276 q 431 171 511 171 q 426 171 428 171 q 421 172 424 171 q 416 172 418 172 q 411 172 414 172 l 408 171 q 467 116 443 140 q 507 69 492 92 q 529 22 522 46 q 536 -31 536 -1 q 488 -151 536 -96 q 339 -206 440 -206 q 201 -166 257 -206 q 144 -67 144 -126 q 165 -14 144 -32 q 213 7 186 4 q 216 7 214 7 q 219 7 218 7 q 262 -5 246 7 q 283 -32 278 -17 q 285 -40 285 -36 q 286 -49 286 -44 q 278 -78 286 -67 q 263 -99 271 -90 q 249 -111 256 -106 q 240 -122 243 -117 q 240 -125 240 -124 q 239 -128 239 -126 q 242 -137 239 -132 q 250 -149 244 -143 q 282 -167 260 -158 q 342 -176 304 -176 q 426 -148 393 -176 q 458 -67 458 -119 q 458 -49 458 -57 q 454 -33 457 -40 q 399 37 444 -3 q 233 168 353 76 q 188 208 208 188 q 151 249 167 228 q 110 321 124 285 q 97 390 97 357 l 97 392 m 267 532 q 255 530 261 531 q 242 528 249 529 q 193 501 215 522 q 171 439 171 479 q 187 376 171 401 q 222 329 203 350 q 228 323 225 326 q 235 317 232 319 q 246 306 240 311 q 257 294 251 300 q 322 241 288 267 q 390 206 356 215 q 406 203 399 204 q 421 201 414 201 q 490 227 460 201 q 519 299 519 253 q 508 341 519 318 q 476 389 496 364 q 429 438 456 414 q 376 482 403 463 q 317 517 346 504 q 267 531 288 531 l 267 532 z "},"¶":{"ha":629,"x_min":-29,"x_max":625,"o":"m 331 889 l 331 -214 l 117 -214 l 117 -183 q 222 -150 204 -179 q 239 -43 239 -121 l 239 379 q 35 452 100 378 q -29 657 -29 526 q 38 856 -29 794 q 260 918 104 918 l 625 919 l 625 893 q 524 863 546 886 q 503 767 503 840 l 503 -58 q 524 -153 503 -128 q 625 -183 544 -178 l 625 -214 l 411 -214 l 411 889 l 331 889 l 331 889 m 239 410 l 239 889 q 115 838 156 882 q 75 656 75 794 q 119 467 75 521 q 239 408 164 414 l 239 410 z "},"ß":{"ha":694,"x_min":17,"x_max":650,"o":"m 17 0 l 17 21 q 19 19 18 19 q 21 19 21 19 q 80 36 58 22 q 101 115 101 50 l 101 631 q 103 692 101 654 q 115 772 106 731 q 185 892 133 838 q 353 947 238 947 q 383 946 368 947 q 414 940 399 944 q 531 880 478 926 q 585 743 585 833 q 564 644 585 686 q 478 563 543 601 q 442 543 461 553 q 399 524 422 533 l 399 522 q 441 513 418 518 q 488 497 464 507 q 599 415 549 472 q 650 251 650 357 q 649 235 650 243 q 649 219 649 228 q 573 60 638 132 q 404 -12 508 -12 q 321 5 350 -12 q 279 43 292 22 q 269 67 272 56 q 267 86 267 78 q 285 135 267 117 q 329 154 303 154 q 371 137 356 154 q 388 99 386 119 l 390 69 q 391 62 390 65 q 392 54 392 58 q 402 35 394 44 q 431 26 410 26 q 503 89 488 26 q 519 238 519 151 q 505 350 519 306 q 474 421 490 394 q 454 446 464 436 q 438 461 444 456 q 424 471 431 467 q 410 478 417 475 q 369 490 389 488 q 333 494 350 493 q 303 501 315 497 q 292 518 292 504 q 301 532 292 528 q 326 539 311 536 q 351 543 338 540 q 378 550 364 546 q 437 598 410 563 q 464 718 464 633 q 428 863 464 817 q 342 910 392 910 q 267 886 292 910 q 231 833 242 863 q 220 789 222 810 q 218 761 218 768 l 218 0 l 17 0 l 17 0 z "},"®":{"ha":1056,"x_min":53,"x_max":1003,"o":"m 1003 458 q 866 119 1003 258 q 531 -19 729 -19 q 191 119 329 -19 q 53 457 53 258 q 191 797 53 656 q 531 938 329 938 q 866 797 729 938 q 1003 457 1003 656 l 1003 458 m 926 458 q 812 753 926 626 q 531 879 697 879 q 245 752 361 879 q 129 457 129 625 q 246 164 129 290 q 531 38 363 38 q 811 164 696 38 q 926 457 926 290 l 926 458 m 304 701 l 304 722 l 550 722 q 660 690 611 721 q 710 594 710 660 q 678 502 710 540 q 600 449 647 464 l 679 340 q 696 317 688 328 q 713 296 704 307 q 751 252 732 272 q 785 221 771 232 l 785 211 l 696 211 q 685 211 690 210 q 676 217 681 213 q 617 292 649 233 q 528 435 585 351 l 461 436 l 461 299 q 461 295 461 296 q 461 294 461 294 q 467 246 461 256 q 510 232 474 236 q 519 231 514 232 q 529 231 524 231 l 529 211 l 304 211 l 304 232 q 315 231 310 231 q 324 232 319 232 q 366 246 360 236 q 372 294 372 256 q 372 295 372 294 q 372 297 372 296 l 372 633 q 372 634 372 633 q 372 636 372 635 q 367 685 372 675 q 325 697 361 694 q 315 699 321 699 q 304 700 310 700 l 304 701 m 461 696 l 461 463 l 521 463 q 594 497 572 461 q 617 588 617 532 q 588 671 617 647 q 518 694 558 694 l 461 696 l 461 696 z "},"©":{"ha":1056,"x_min":53,"x_max":1003,"o":"m 531 939 q 866 797 729 938 q 1003 457 1003 656 q 866 119 1003 258 q 531 -19 729 -19 q 191 119 329 -19 q 53 457 53 258 q 191 797 53 656 q 531 938 329 938 l 531 939 m 531 881 q 245 752 361 879 q 129 457 129 625 q 246 164 129 290 q 531 38 363 38 q 811 164 696 38 q 926 457 926 290 q 812 753 926 626 q 531 879 697 879 l 531 881 m 738 343 l 760 343 l 738 246 q 731 231 738 235 q 714 222 725 226 q 708 220 711 221 q 701 218 704 219 q 688 214 696 217 q 669 208 679 211 q 618 199 647 203 q 556 194 589 194 q 350 258 436 194 q 264 469 264 322 q 267 504 264 486 q 275 540 269 522 q 367 676 297 614 q 565 738 438 738 q 643 731 614 738 q 699 714 672 724 q 699 714 699 714 q 700 714 700 714 q 705 712 703 713 q 708 711 707 711 q 731 699 724 707 q 738 683 738 692 l 738 588 l 714 588 q 713 594 714 590 q 711 603 713 599 q 669 676 703 643 q 561 710 635 710 q 418 643 464 710 q 371 475 372 576 q 417 294 369 365 q 569 222 464 222 q 678 258 639 222 q 738 342 717 294 l 738 343 z "},"™":{"ha":1361,"x_min":42,"x_max":1329,"o":"m 924 356 l 717 781 l 714 781 l 714 476 q 727 409 714 429 q 788 385 740 389 l 788 358 l 606 358 l 606 386 q 665 409 651 389 q 678 475 678 429 l 678 822 q 639 872 665 853 q 582 890 613 890 l 582 919 l 750 919 l 964 490 l 1186 919 l 1329 919 l 1329 892 q 1267 869 1283 889 q 1251 814 1251 850 l 1251 461 q 1251 456 1251 458 q 1251 453 1251 454 q 1258 402 1251 413 q 1300 388 1264 392 q 1310 386 1304 386 q 1321 385 1315 386 l 1321 358 l 1085 358 l 1085 386 q 1096 386 1090 386 q 1106 388 1101 386 q 1147 402 1142 392 q 1153 450 1153 413 q 1153 455 1153 453 q 1153 460 1153 457 l 1153 783 l 1150 783 l 939 356 l 924 356 l 924 356 m 331 892 l 331 461 q 331 456 331 458 q 331 453 331 454 q 337 402 331 413 q 379 388 343 392 q 389 386 383 386 q 400 385 394 386 l 400 358 l 163 358 l 163 386 q 174 386 168 386 q 183 388 179 386 q 226 402 219 392 q 232 453 232 413 q 232 456 232 454 q 232 460 232 458 l 232 892 l 164 892 q 100 863 121 890 q 69 796 79 835 l 42 797 l 42 919 l 521 919 l 521 797 l 493 797 q 463 863 483 835 q 400 890 443 890 l 331 892 l 331 892 z "},"´":{"ha":463,"x_min":129,"x_max":440,"o":"m 185 704 l 129 704 l 333 910 q 360 931 350 925 q 379 939 369 938 q 386 940 382 940 q 394 940 390 940 q 422 933 413 940 q 435 918 431 926 q 440 904 439 911 q 440 896 440 897 q 433 869 440 881 q 415 849 425 857 q 407 843 411 846 q 399 838 403 840 l 185 704 l 185 704 z "},"¨":{"ha":463,"x_min":25,"x_max":438,"o":"m 25 796 q 26 806 25 800 q 31 819 28 813 q 51 850 36 836 q 92 864 67 864 q 140 843 119 864 q 161 794 161 822 q 140 745 161 765 q 92 725 119 725 q 50 740 65 725 q 29 772 35 754 q 26 783 26 778 q 25 794 25 789 l 25 796 m 301 796 q 303 806 301 800 q 307 819 304 813 q 328 850 313 836 q 368 864 343 864 q 417 843 396 864 q 438 794 438 822 q 417 745 438 765 q 368 725 396 725 q 326 740 342 725 q 306 772 311 754 q 302 783 303 778 q 301 794 301 789 l 301 796 z "},"≠":{"ha":347,"x_min":0,"x_max":0,"o":""},"Æ":{"ha":1235,"x_min":0,"x_max":1199,"o":"m 1133 724 l 1101 724 q 1038 847 1090 825 q 849 868 985 868 l 728 869 q 722 868 725 868 q 717 867 719 868 q 699 858 707 865 q 690 826 690 850 l 690 508 l 844 508 q 991 538 960 507 q 1028 642 1022 568 l 1057 643 l 1057 318 l 1028 318 q 1028 317 1028 317 q 1028 319 1028 318 q 1001 415 1021 374 q 892 456 981 456 l 690 457 l 690 126 q 704 63 690 74 q 786 51 718 51 l 892 53 q 1023 69 975 51 q 1113 143 1071 86 q 1138 182 1125 160 q 1165 232 1151 204 l 1199 233 l 1138 0 l 429 0 l 429 26 l 453 29 q 532 55 511 35 q 553 149 553 75 l 553 361 l 308 361 q 220 185 260 267 q 181 69 181 103 q 196 44 181 53 q 231 32 211 36 q 258 27 244 28 q 276 25 271 26 l 276 0 l 0 0 l 0 26 q 3 26 1 25 q 6 26 4 26 q 35 33 22 29 q 61 46 49 36 q 90 77 75 57 q 122 133 104 97 l 463 807 q 465 808 464 807 q 465 811 465 810 q 468 817 467 814 q 471 824 469 821 q 474 833 472 828 q 475 842 475 838 q 444 878 475 867 q 350 890 414 890 l 350 919 l 1133 919 l 1133 724 l 1133 724 m 332 415 l 553 415 l 553 850 l 549 850 l 332 415 l 332 415 z "},"Ø":{"ha":1003,"x_min":47,"x_max":956,"o":"m 914 1019 l 792 839 q 910 683 865 778 q 956 457 956 588 q 823 108 956 235 q 501 -19 690 -19 q 371 -3 433 -19 q 256 49 308 14 l 146 -111 l 78 -111 l 210 82 q 91 238 135 142 q 47 457 47 333 q 189 817 47 697 q 501 938 331 938 q 628 921 567 938 q 746 869 690 904 l 846 1019 l 914 1019 l 914 1019 m 732 750 l 304 122 q 396 51 344 74 q 501 29 447 29 q 707 129 617 29 q 797 458 797 229 q 780 626 797 556 q 732 749 763 697 l 732 750 m 269 171 l 697 799 q 624 857 664 836 q 543 885 583 878 q 522 887 532 886 q 501 888 511 888 q 485 887 493 888 q 469 886 478 886 q 288 776 371 874 q 206 458 206 678 q 222 292 206 364 q 269 169 239 221 l 269 171 z "},"∞":{"ha":347,"x_min":0,"x_max":0,"o":""},"±":{"ha":783,"x_min":42,"x_max":742,"o":"m 42 0 l 42 92 l 742 92 l 742 0 l 42 0 l 42 0 m 346 483 l 346 703 l 438 703 l 438 483 l 742 483 l 742 392 l 438 392 l 438 169 l 346 169 l 346 392 l 42 392 l 42 483 l 346 483 l 346 483 z "},"≤":{"ha":347,"x_min":0,"x_max":0,"o":""},"≥":{"ha":347,"x_min":0,"x_max":0,"o":""},"¥":{"ha":694,"x_min":-74,"x_max":711,"o":"m 493 26 l 493 0 l 154 0 l 154 26 q 246 57 228 28 q 264 165 264 86 l 264 253 l 22 253 l 22 308 l 264 308 l 264 414 l 254 433 l 22 433 l 22 489 l 222 489 l 90 729 q 51 796 68 767 q 18 844 33 825 q -22 880 -1 868 q -72 892 -43 892 l -74 919 l 264 919 l 264 893 q 261 892 263 892 q 260 892 260 892 q 257 892 258 892 q 254 892 256 892 q 192 881 211 892 q 174 850 174 871 q 176 831 174 842 q 183 807 179 819 q 187 798 185 803 q 192 789 189 793 l 356 483 l 511 789 q 517 800 514 794 q 522 811 521 806 q 528 830 526 821 q 531 849 531 839 q 509 882 531 871 q 456 893 488 893 q 452 893 454 893 q 449 893 450 893 q 444 892 446 892 q 440 892 443 892 l 440 919 l 711 919 l 711 893 q 622 847 661 882 q 547 743 583 813 l 419 489 l 622 489 l 622 433 l 392 433 l 382 414 l 382 308 l 622 308 l 622 253 l 382 253 l 382 151 q 408 49 382 72 q 493 25 433 26 l 493 26 z "},"µ":{"ha":694,"x_min":50,"x_max":711,"o":"m 597 625 l 597 128 q 597 110 597 119 q 599 92 597 101 q 610 53 601 71 q 642 36 618 36 q 645 36 643 36 q 650 36 647 36 q 677 48 663 39 q 711 75 692 57 l 711 65 q 682 28 696 43 q 653 6 668 14 q 615 -10 635 -6 q 575 -14 596 -14 q 505 18 526 -14 q 481 89 483 50 q 479 97 479 93 q 479 106 479 101 l 476 107 q 400 22 447 54 q 301 -14 353 -11 q 298 -14 300 -14 q 293 -14 296 -14 q 255 -10 276 -14 q 210 3 233 -7 q 168 33 189 14 q 131 82 147 51 l 128 81 q 132 45 129 63 q 139 10 135 28 q 145 -16 142 -3 q 151 -43 149 -29 q 169 -118 161 -81 q 178 -190 178 -156 q 165 -271 178 -239 q 114 -303 151 -303 q 63 -271 76 -303 q 50 -190 50 -239 q 56 -126 50 -160 q 67 -58 61 -93 q 69 -50 68 -54 q 69 -42 69 -46 q 79 17 75 -12 q 83 74 83 46 l 83 625 l 206 625 l 206 200 q 235 107 206 143 q 328 71 265 71 q 401 89 368 71 q 454 129 433 107 q 467 144 461 138 q 475 158 472 151 l 475 625 l 597 625 l 597 625 z "},"∂":{"ha":347,"x_min":0,"x_max":0,"o":""},"Σ":{"ha":347,"x_min":0,"x_max":0,"o":""},"∏":{"ha":347,"x_min":0,"x_max":0,"o":""},"π":{"ha":347,"x_min":0,"x_max":0,"o":""},"∫":{"ha":347,"x_min":0,"x_max":0,"o":""},"ª":{"ha":383,"x_min":6,"x_max":375,"o":"m 375 614 l 375 589 q 326 551 347 557 q 294 546 306 546 q 281 547 289 546 q 265 550 274 547 q 244 568 254 556 q 231 607 235 581 q 224 601 228 604 q 218 594 221 597 q 167 561 196 576 q 106 546 138 546 q 102 546 104 546 q 99 546 100 546 q 35 572 64 549 q 6 639 6 594 q 38 714 6 686 q 129 765 71 742 q 172 782 150 774 q 218 799 193 790 l 218 842 q 206 883 218 867 q 169 899 193 899 q 163 899 167 899 q 157 897 160 899 q 122 887 138 896 q 106 868 106 878 q 106 859 106 864 q 108 850 107 854 q 109 843 108 846 q 110 838 110 840 q 98 813 110 824 q 65 801 86 801 q 37 812 47 801 q 24 836 26 822 q 22 840 22 838 q 22 844 22 842 q 22 850 22 847 q 24 856 22 853 q 65 912 28 886 q 174 938 101 938 q 272 913 242 938 q 311 857 301 888 q 317 829 315 843 q 318 804 318 815 l 318 646 q 320 608 318 621 q 336 596 322 596 q 358 601 349 596 q 375 613 368 607 l 375 614 m 219 658 l 219 765 q 121 719 149 742 q 93 676 93 696 q 108 628 93 646 q 149 611 124 611 q 158 612 153 611 q 168 614 163 613 q 178 617 172 615 q 188 619 183 618 q 197 623 193 621 q 204 626 201 625 q 216 642 214 635 q 219 654 218 649 q 219 656 219 656 q 219 657 219 657 l 219 658 z "},"º":{"ha":431,"x_min":8,"x_max":422,"o":"m 218 939 q 365 888 307 938 q 422 751 422 838 q 421 726 422 739 q 417 701 419 714 q 351 594 401 643 q 207 546 300 546 q 64 602 119 546 q 8 738 8 658 q 63 878 8 819 q 218 938 117 938 l 218 939 m 211 893 q 139 866 168 892 q 110 794 110 840 q 112 754 110 778 q 119 706 114 731 q 152 627 129 663 q 219 592 175 592 q 230 592 225 592 q 240 593 235 593 q 296 623 271 599 q 321 703 321 647 q 292 837 321 782 q 211 892 264 892 l 211 893 z "},"Ω":{"ha":347,"x_min":0,"x_max":0,"o":""},"æ":{"ha":926,"x_min":53,"x_max":878,"o":"m 861 214 l 878 207 q 826 110 854 149 q 771 47 799 72 q 679 -4 724 6 q 610 -14 635 -14 q 511 5 547 -14 q 454 47 475 24 q 438 67 444 57 q 425 86 431 78 q 406 70 415 78 q 386 54 396 63 q 308 6 349 25 q 213 -14 267 -14 q 112 16 149 -14 q 63 83 75 46 q 55 108 57 96 q 53 132 53 121 q 84 230 53 192 q 181 303 115 268 q 268 343 218 322 q 379 389 318 364 q 381 434 381 413 q 382 474 382 456 q 365 572 382 539 q 296 604 349 604 q 229 588 258 604 q 201 533 200 571 q 201 531 201 532 q 201 526 201 529 l 203 513 q 203 507 203 510 q 204 501 203 504 q 204 494 204 497 q 204 488 204 492 q 204 479 204 483 q 203 471 204 475 q 187 437 200 453 q 142 421 174 421 q 133 422 138 421 q 124 424 128 422 q 96 444 108 429 q 83 489 83 458 q 149 596 83 554 q 303 638 214 638 q 399 621 364 638 q 457 585 433 604 q 463 580 460 582 q 468 575 465 578 q 497 597 483 588 q 524 613 510 606 q 576 632 549 626 q 638 638 603 638 q 773 594 729 638 q 835 497 817 550 q 850 434 846 465 q 856 383 854 403 l 492 385 q 492 351 492 368 q 492 318 492 335 q 526 153 494 228 q 669 78 557 78 q 776 117 726 78 q 861 213 826 157 l 861 214 m 174 165 q 176 142 174 154 q 183 117 178 129 q 215 72 193 92 q 274 51 236 51 q 294 53 283 51 q 315 58 304 56 q 349 72 333 64 q 378 90 365 81 q 399 107 392 99 q 407 121 407 115 q 403 136 407 125 q 393 168 399 147 q 385 215 389 188 q 381 278 381 242 l 379 351 q 311 324 340 336 q 260 300 282 313 q 191 241 208 272 q 174 164 174 210 l 174 165 m 493 426 l 724 426 q 722 458 724 439 q 718 497 721 476 q 688 566 710 535 q 617 597 665 597 q 533 565 558 597 q 500 494 508 533 q 494 457 496 475 q 493 425 493 439 l 493 426 z "},"ø":{"ha":694,"x_min":40,"x_max":653,"o":"m 607 765 l 517 592 q 617 481 581 551 q 653 315 653 411 q 649 267 653 292 q 638 218 646 243 q 540 58 613 131 q 344 -14 468 -14 q 277 -7 310 -14 q 214 14 244 0 l 124 -156 l 72 -156 l 174 39 q 76 154 111 82 q 40 315 40 226 q 121 540 40 443 q 340 638 201 638 q 410 631 376 638 q 474 613 443 625 l 553 765 l 607 765 l 607 765 m 472 508 l 249 83 q 298 40 269 56 q 364 24 326 24 q 385 25 374 24 q 407 31 396 26 q 490 99 451 44 q 528 275 528 154 q 514 402 528 342 q 472 507 500 463 l 472 508 m 219 128 l 440 550 q 390 585 418 572 q 329 599 363 599 q 215 544 264 599 q 165 382 165 490 q 169 313 165 354 q 183 226 174 271 q 199 174 190 200 q 219 126 207 149 l 219 128 z "},"¿":{"ha":617,"x_min":42,"x_max":522,"o":"m 278 408 l 301 408 q 301 388 301 397 q 299 368 300 378 q 291 317 296 342 q 279 269 286 292 q 268 232 274 247 q 260 210 263 217 l 221 122 q 219 117 219 119 q 217 113 218 114 q 200 67 208 92 q 186 18 192 43 q 174 -37 179 -10 q 169 -85 169 -64 q 169 -97 169 -90 q 171 -108 169 -103 q 213 -213 176 -165 q 322 -261 250 -261 q 335 -260 329 -261 q 349 -258 342 -260 q 419 -228 388 -251 q 451 -176 451 -206 q 447 -156 451 -165 q 433 -139 442 -147 q 430 -134 432 -136 q 425 -129 428 -132 q 407 -105 415 -118 q 399 -72 399 -92 q 399 -64 399 -68 q 401 -56 400 -60 q 418 -28 406 -40 q 453 -15 431 -15 q 508 -42 494 -15 q 522 -103 522 -68 q 472 -233 522 -186 q 360 -294 421 -279 q 327 -301 343 -299 q 296 -303 311 -303 q 274 -302 285 -303 q 253 -299 264 -301 q 158 -269 203 -292 q 92 -222 113 -247 q 78 -206 85 -214 q 68 -189 72 -197 q 47 -139 53 -165 q 42 -72 42 -112 q 47 -33 42 -54 q 61 8 53 -12 q 85 55 71 32 q 113 99 99 78 q 129 122 121 111 q 146 143 138 133 q 181 186 165 165 q 211 226 197 207 q 252 307 236 265 q 278 407 268 349 l 278 408 m 288 647 q 297 645 292 646 q 307 643 301 644 q 346 622 328 639 q 364 575 364 606 q 342 522 364 544 q 288 500 319 500 q 235 522 257 500 q 214 575 214 543 q 229 620 214 604 q 263 642 244 636 q 276 645 269 644 q 288 646 282 646 l 288 647 z "},"¡":{"ha":463,"x_min":135,"x_max":285,"o":"m 200 392 l 218 392 l 231 242 q 240 154 233 208 q 256 42 247 100 q 274 -94 265 -29 q 282 -186 282 -160 q 282 -195 282 -190 q 282 -206 282 -200 q 263 -272 279 -242 q 210 -303 247 -303 q 151 -272 168 -303 q 135 -190 135 -240 q 135 -167 135 -179 q 138 -140 136 -154 l 200 392 l 200 392 m 208 649 q 217 647 213 647 q 228 644 222 646 q 267 624 249 640 q 285 576 285 607 q 263 524 285 546 q 208 501 240 501 q 156 523 178 501 q 135 576 135 544 q 150 622 135 606 q 183 643 165 638 q 197 647 190 646 q 208 647 203 647 l 208 649 z "},"¬":{"ha":347,"x_min":0,"x_max":0,"o":""},"√":{"ha":347,"x_min":0,"x_max":0,"o":""},"ƒ":{"ha":694,"x_min":10,"x_max":681,"o":"m 600 565 l 586 522 l 419 522 q 402 390 410 450 q 388 275 394 329 q 376 195 382 233 q 364 121 371 157 q 274 -161 329 -60 q 119 -262 219 -262 q 39 -234 68 -262 q 10 -165 10 -206 q 21 -129 10 -142 q 46 -110 32 -117 q 60 -106 53 -107 q 74 -104 68 -104 q 110 -118 97 -104 q 124 -156 124 -132 q 120 -174 124 -165 q 114 -187 117 -182 q 106 -200 110 -194 q 103 -211 103 -206 q 110 -224 103 -218 q 129 -229 118 -229 q 210 -162 186 -229 q 243 -15 235 -96 q 245 -2 244 -8 q 246 11 246 4 l 267 251 q 270 292 268 271 q 275 333 272 313 q 285 417 279 375 q 299 500 292 460 l 301 522 l 147 522 l 161 565 l 310 565 q 322 637 313 586 q 351 743 332 688 q 428 877 378 817 q 565 938 479 938 q 639 916 610 938 q 676 868 668 894 q 680 857 679 863 q 681 846 681 851 q 660 798 681 815 q 615 781 640 781 q 585 790 597 781 q 569 810 574 799 q 565 819 567 814 q 564 828 564 824 q 567 844 564 836 q 574 857 569 851 q 579 869 576 864 q 582 879 582 875 q 572 894 582 890 q 551 897 563 897 q 460 799 483 897 q 425 564 438 701 l 600 565 l 600 565 z "},"≈":{"ha":347,"x_min":0,"x_max":0,"o":""},"∆":{"ha":347,"x_min":0,"x_max":0,"o":""},"«":{"ha":694,"x_min":58,"x_max":633,"o":"m 58 315 l 101 353 q 190 428 133 378 q 307 539 246 479 q 318 549 313 544 q 329 560 324 554 q 342 572 339 569 q 349 576 346 575 q 349 576 349 576 q 351 576 350 576 q 363 572 360 576 q 365 561 365 568 q 339 515 365 553 q 281 433 313 478 q 276 428 278 431 q 274 425 275 426 q 222 357 246 389 q 188 311 197 325 q 214 277 199 296 q 246 239 229 258 q 276 201 261 219 q 303 167 292 182 q 314 152 308 160 q 325 138 319 144 q 329 130 326 133 q 333 124 332 126 q 357 86 347 104 q 367 60 367 68 q 363 49 367 53 q 351 44 358 44 q 302 89 344 44 q 201 186 260 133 q 188 198 194 192 q 175 210 182 204 q 153 228 171 214 q 118 260 136 243 q 77 296 96 279 q 58 314 58 313 l 58 315 m 325 315 l 368 353 q 456 428 400 378 q 574 539 513 479 q 585 549 579 544 q 596 560 590 554 q 609 572 606 569 q 615 576 613 575 q 616 576 615 576 q 618 576 617 576 q 629 572 626 576 q 632 561 632 568 q 606 515 632 553 q 547 433 579 478 q 543 428 544 431 q 540 425 542 426 q 488 357 513 389 q 454 311 464 325 q 481 277 465 296 q 513 239 496 258 q 543 201 528 219 q 569 167 558 182 q 581 152 575 160 q 592 138 586 144 q 596 130 593 133 q 600 124 599 126 q 624 86 614 104 q 633 60 633 68 q 629 49 633 53 q 618 44 625 44 q 569 89 611 44 q 468 186 526 133 q 455 198 461 192 q 442 210 449 204 q 420 228 438 214 q 385 260 403 243 q 344 296 363 279 q 325 314 325 313 l 325 315 z "},"»":{"ha":694,"x_min":61,"x_max":636,"o":"m 369 308 l 326 271 q 238 192 294 243 q 121 82 182 142 q 110 72 115 76 q 99 61 104 67 q 85 49 89 51 q 81 44 82 46 q 78 44 79 44 q 76 44 78 44 q 65 49 68 44 q 63 60 63 53 q 89 106 63 68 q 147 188 115 143 q 151 192 150 190 q 154 196 153 194 q 206 264 182 232 q 240 310 231 296 q 214 344 229 325 q 183 382 199 363 q 151 420 167 401 q 125 454 136 439 q 114 469 119 461 q 103 483 108 476 q 99 491 101 488 q 94 497 96 494 q 71 535 81 517 q 61 561 61 553 q 66 572 61 568 q 76 576 71 576 q 126 532 83 576 q 226 435 168 488 q 240 423 233 429 q 253 411 246 417 q 274 392 257 407 q 310 361 292 378 q 351 325 332 342 q 369 307 369 308 l 369 308 m 636 308 l 593 271 q 505 192 561 243 q 388 82 449 142 q 376 72 382 76 q 365 61 371 67 q 352 49 356 51 q 347 44 349 46 q 345 44 346 44 q 343 44 344 44 q 332 49 335 44 q 329 60 329 53 q 356 106 329 68 q 414 188 382 143 q 418 192 417 190 q 421 196 419 194 q 473 264 449 232 q 507 310 497 296 q 481 344 496 325 q 450 382 465 363 q 418 420 433 401 q 392 454 403 439 q 381 469 386 461 q 369 483 375 476 q 365 491 368 488 q 361 497 363 494 q 338 535 347 517 q 328 561 328 553 q 333 572 328 568 q 343 576 338 576 q 392 532 350 576 q 493 435 435 488 q 506 423 500 429 q 519 411 513 417 q 541 392 524 407 q 576 361 558 378 q 617 325 599 342 q 636 307 636 308 l 636 308 z "},"…":{"ha":1389,"x_min":154,"x_max":1233,"o":"m 231 -15 q 218 -14 225 -15 q 204 -10 211 -12 q 169 13 185 -3 q 154 58 154 29 q 177 115 154 92 q 231 138 200 138 q 285 114 263 138 q 308 58 308 90 q 293 15 308 31 q 258 -10 278 -1 q 244 -14 251 -12 q 231 -15 238 -15 l 231 -15 m 693 -15 q 681 -14 688 -15 q 667 -10 674 -12 q 632 13 647 -3 q 617 58 617 29 q 640 115 617 92 q 693 138 663 138 q 748 114 725 138 q 771 58 771 90 q 756 15 771 31 q 721 -10 740 -1 q 707 -14 714 -12 q 693 -15 700 -15 l 693 -15 m 1156 -15 q 1143 -14 1150 -15 q 1129 -10 1136 -12 q 1094 13 1110 -3 q 1079 58 1079 29 q 1102 115 1079 92 q 1156 138 1125 138 q 1210 114 1188 138 q 1233 58 1233 90 q 1218 15 1233 31 q 1183 -10 1203 -1 q 1169 -14 1176 -12 q 1156 -15 1163 -15 l 1156 -15 z "},"À":{"ha":1003,"x_min":21,"x_max":981,"o":"m 981 26 l 981 0 l 626 0 l 626 26 q 694 32 665 25 q 724 78 724 39 q 721 97 724 86 q 714 119 718 108 q 711 128 713 124 q 708 138 710 133 q 703 153 706 146 q 697 165 700 160 l 640 300 l 276 300 l 213 138 q 210 130 211 133 q 208 122 208 126 q 203 102 204 113 q 201 83 201 92 q 218 43 201 56 q 256 28 235 31 q 277 25 267 25 q 296 25 288 25 l 296 0 l 21 0 l 21 26 q 56 31 38 26 q 92 56 74 36 q 112 84 101 67 q 133 122 122 101 q 146 147 140 135 q 157 172 151 160 q 177 215 168 194 q 193 253 186 236 l 482 936 l 510 936 l 856 147 q 878 97 868 117 q 899 64 889 78 q 933 34 915 42 q 981 25 951 26 l 981 26 m 300 357 l 621 357 l 460 739 l 300 357 l 300 357 m 607 999 l 551 999 l 338 1133 q 332 1136 335 1133 q 325 1140 329 1139 q 306 1163 315 1150 q 297 1192 297 1175 q 298 1199 297 1193 q 303 1213 299 1206 q 316 1228 307 1221 q 342 1235 325 1235 q 352 1235 347 1235 q 361 1233 357 1235 q 378 1224 369 1231 q 403 1203 386 1218 l 607 999 l 607 999 z "},"Ã":{"ha":1003,"x_min":21,"x_max":981,"o":"m 981 26 l 981 0 l 626 0 l 626 26 q 694 32 665 25 q 724 78 724 39 q 721 97 724 86 q 714 119 718 108 q 711 128 713 124 q 708 138 710 133 q 703 153 706 146 q 697 165 700 160 l 640 300 l 276 300 l 213 138 q 210 130 211 133 q 208 122 208 126 q 203 102 204 113 q 201 83 201 92 q 218 43 201 56 q 256 28 235 31 q 277 25 267 25 q 296 25 288 25 l 296 0 l 21 0 l 21 26 q 56 31 38 26 q 92 56 74 36 q 112 84 101 67 q 133 122 122 101 q 146 147 140 135 q 157 172 151 160 q 177 215 168 194 q 193 253 186 236 l 482 936 l 510 936 l 856 147 q 878 97 868 117 q 899 64 889 78 q 933 34 915 42 q 981 25 951 26 l 981 26 m 300 357 l 621 357 l 460 739 l 300 357 l 300 357 m 690 1181 l 731 1181 q 723 1151 728 1167 q 710 1118 718 1135 q 667 1059 696 1086 q 585 1032 638 1032 q 551 1035 567 1032 q 522 1043 536 1038 q 498 1053 510 1047 q 472 1065 486 1058 l 440 1082 q 428 1086 435 1083 q 415 1092 421 1089 q 402 1094 408 1093 q 389 1096 396 1096 q 346 1083 361 1096 q 322 1056 331 1071 q 317 1043 319 1049 q 313 1032 314 1038 l 272 1033 q 276 1049 274 1040 q 282 1067 279 1058 q 328 1140 296 1107 q 418 1172 361 1172 q 463 1166 440 1172 q 510 1147 486 1160 l 543 1132 q 550 1127 546 1129 q 557 1124 554 1125 q 570 1119 564 1121 q 582 1115 576 1117 q 597 1111 589 1113 q 610 1110 604 1110 q 648 1119 632 1110 q 678 1153 664 1128 q 684 1165 681 1158 q 690 1179 688 1171 l 690 1181 z "},"Õ":{"ha":1003,"x_min":47,"x_max":956,"o":"m 501 -19 q 180 108 313 -19 q 47 457 47 235 q 189 817 47 697 q 501 938 331 938 q 814 817 672 938 q 956 457 956 697 q 823 108 956 235 q 501 -19 690 -19 l 501 -19 m 501 31 q 707 129 617 29 q 797 458 797 229 q 715 776 797 678 q 533 886 632 874 q 517 887 525 886 q 501 888 510 888 q 485 887 493 888 q 469 886 478 886 q 288 776 371 874 q 206 458 206 678 q 296 129 206 229 q 501 29 386 29 l 501 31 m 690 1181 l 731 1181 q 723 1151 728 1167 q 710 1118 718 1135 q 667 1059 696 1086 q 585 1032 638 1032 q 551 1035 567 1032 q 522 1043 536 1038 q 498 1053 510 1047 q 472 1065 486 1058 l 440 1082 q 428 1086 435 1083 q 415 1092 421 1089 q 402 1094 408 1093 q 389 1096 396 1096 q 346 1083 361 1096 q 322 1056 331 1071 q 317 1043 319 1049 q 313 1032 314 1038 l 272 1033 q 276 1049 274 1040 q 282 1067 279 1058 q 328 1140 296 1107 q 418 1172 361 1172 q 463 1166 440 1172 q 510 1147 486 1160 l 543 1132 q 550 1127 546 1129 q 557 1124 554 1125 q 570 1119 564 1121 q 582 1115 576 1117 q 597 1111 589 1113 q 610 1110 604 1110 q 648 1119 632 1110 q 678 1153 664 1128 q 684 1165 681 1158 q 690 1179 688 1171 l 690 1181 z "},"Œ":{"ha":1235,"x_min":42,"x_max":1229,"o":"m 1164 724 l 1132 724 q 1068 847 1121 825 q 899 868 1015 868 l 828 869 q 751 861 764 868 q 738 835 738 854 l 738 508 q 996 522 949 507 q 1056 626 1043 538 q 1058 634 1057 631 q 1058 642 1058 638 l 1089 643 l 1089 318 l 1058 318 q 1040 399 1053 368 q 993 440 1026 431 q 988 442 990 442 q 982 444 985 443 q 919 453 961 451 q 738 456 878 456 l 738 117 q 758 60 738 69 q 815 51 778 51 l 988 56 q 1007 56 997 54 q 1028 60 1017 57 q 1108 104 1067 68 q 1196 232 1149 140 l 1229 233 l 1168 0 l 682 0 q 651 0 667 0 q 619 -1 635 0 q 587 -2 603 -1 q 556 -4 571 -3 q 535 -5 546 -4 q 514 -6 525 -6 q 504 -6 510 -6 q 494 -7 499 -7 q 463 -8 478 -7 q 432 -8 447 -8 q 159 105 276 -8 q 42 435 42 218 q 170 811 42 696 q 488 926 299 926 q 515 926 494 926 q 565 922 535 925 q 586 922 575 922 q 608 921 597 921 q 658 919 632 919 q 711 918 685 918 l 1164 919 l 1164 724 l 1164 724 m 599 182 l 599 732 q 599 739 599 735 q 599 749 599 743 q 571 836 596 796 q 461 876 546 876 q 258 750 318 876 q 197 457 197 624 q 256 161 197 281 q 463 42 314 42 q 574 83 550 42 q 599 181 599 125 l 599 182 z "},"œ":{"ha":1003,"x_min":42,"x_max":958,"o":"m 943 201 l 958 193 q 948 169 953 181 q 936 147 943 158 q 851 36 904 86 q 713 -14 799 -14 q 601 19 644 -14 q 532 117 558 51 q 494 58 515 82 q 453 21 474 35 q 382 -8 415 -3 q 333 -14 349 -14 q 302 -12 318 -14 q 269 -7 286 -11 q 113 83 183 10 q 42 306 42 157 q 48 372 42 331 q 72 458 54 414 q 158 582 99 526 q 326 638 218 638 q 393 628 350 638 q 482 583 436 619 q 508 560 496 572 q 533 532 521 547 q 545 549 539 540 q 558 565 551 557 q 619 615 582 592 q 715 638 656 638 q 759 633 732 638 q 817 614 786 628 q 899 539 861 592 q 936 383 936 486 l 583 385 q 588 322 585 361 q 600 242 590 283 q 652 128 615 179 q 765 78 689 78 q 844 100 810 78 q 903 150 879 122 q 926 177 915 164 q 943 200 936 190 l 943 201 m 315 599 q 291 595 304 597 q 265 588 278 593 q 197 526 228 572 q 167 389 167 481 q 168 317 167 358 q 175 231 169 275 q 221 87 186 153 q 332 21 256 21 q 445 94 414 21 q 476 285 476 167 q 474 347 476 308 q 464 428 472 386 q 417 544 450 492 q 315 597 383 597 l 315 599 m 582 426 l 804 426 l 804 464 q 804 465 804 464 q 804 467 804 465 q 775 556 803 515 q 697 597 747 597 q 624 569 647 597 q 590 506 600 540 q 583 460 585 482 q 582 425 582 438 l 582 426 z "},"—":{"ha":1389,"x_min":0,"x_max":1389,"o":"m 0 347 l 1389 347 l 1389 279 l 0 279 l 0 347 l 0 347 z "},"“":{"ha":617,"x_min":60,"x_max":575,"o":"m 215 939 l 228 913 q 214 902 221 907 q 201 893 207 897 q 131 817 149 853 q 114 764 114 782 q 120 749 114 754 q 133 744 126 744 q 139 745 136 744 q 146 747 142 746 q 154 749 149 749 q 167 750 160 750 q 178 749 172 750 q 192 747 185 749 q 233 728 214 743 q 253 681 253 713 q 234 626 253 644 q 193 603 215 608 q 183 601 188 601 q 172 600 178 600 q 150 603 164 600 q 122 613 136 606 q 79 651 99 624 q 60 733 60 679 q 86 820 60 779 q 144 890 113 861 q 184 921 165 908 q 215 938 203 933 l 215 939 m 538 939 l 550 913 q 536 902 543 907 q 524 893 529 897 q 453 817 471 853 q 436 764 436 782 q 442 749 436 754 q 456 744 449 744 q 461 745 458 744 q 468 747 464 746 q 476 749 471 749 q 489 750 482 750 q 501 749 494 750 q 514 747 507 749 q 556 728 536 743 q 575 681 575 713 q 556 626 575 644 q 515 603 538 608 q 505 601 510 601 q 494 600 500 600 q 472 603 486 600 q 444 613 458 606 q 401 651 421 624 q 382 733 382 679 q 408 820 382 779 q 467 890 435 861 q 506 921 488 908 q 538 938 525 933 l 538 939 z "},"”":{"ha":617,"x_min":42,"x_max":557,"o":"m 79 601 l 67 628 q 81 635 74 631 q 93 644 88 640 q 163 720 146 685 q 181 774 181 756 q 174 788 181 783 q 161 793 168 793 q 156 792 160 793 q 149 790 153 792 q 140 788 146 789 q 128 788 135 788 q 116 788 122 788 q 103 790 110 789 q 61 810 81 794 q 42 857 42 825 q 60 911 42 893 q 101 935 79 929 q 112 937 107 936 q 122 938 117 938 q 144 935 131 938 q 172 925 158 932 q 215 886 196 914 q 235 804 235 858 q 208 717 235 758 q 150 647 182 676 q 110 617 129 629 q 79 600 92 604 l 79 601 m 401 601 l 389 628 q 403 635 396 631 q 415 644 410 640 q 485 720 468 685 q 503 774 503 756 q 497 788 503 783 q 483 793 490 793 q 478 792 482 793 q 471 790 475 792 q 463 788 468 789 q 450 788 457 788 q 438 788 444 788 q 425 790 432 789 q 383 810 403 794 q 364 857 364 825 q 383 911 364 893 q 424 935 401 929 q 434 937 429 936 q 444 938 439 938 q 467 935 453 938 q 494 925 481 932 q 538 886 518 914 q 557 804 557 858 q 531 717 557 758 q 472 647 504 676 q 433 617 451 629 q 401 600 414 604 l 401 601 z "},"‘":{"ha":463,"x_min":160,"x_max":353,"o":"m 315 939 l 328 913 q 314 902 321 907 q 301 893 307 897 q 231 817 249 853 q 214 764 214 782 q 220 749 214 754 q 233 744 226 744 q 239 745 236 744 q 246 747 242 746 q 254 749 249 749 q 267 750 260 750 q 278 749 272 750 q 292 747 285 749 q 333 728 314 743 q 353 681 353 713 q 334 626 353 644 q 293 603 315 608 q 283 601 288 601 q 272 600 278 600 q 250 603 264 600 q 222 613 236 606 q 179 651 199 624 q 160 733 160 679 q 186 820 160 779 q 244 890 213 861 q 284 921 265 908 q 315 938 303 933 l 315 939 z "},"’":{"ha":463,"x_min":110,"x_max":303,"o":"m 147 601 l 135 628 q 149 635 142 631 q 161 644 156 640 q 231 720 214 685 q 249 774 249 756 q 242 788 249 783 q 229 793 236 793 q 224 792 228 793 q 217 790 221 792 q 208 788 214 789 q 196 788 203 788 q 184 788 190 788 q 171 790 178 789 q 129 810 149 794 q 110 857 110 825 q 128 911 110 893 q 169 935 147 929 q 180 937 175 936 q 190 938 185 938 q 213 935 199 938 q 240 925 226 932 q 283 886 264 914 q 303 804 303 858 q 276 717 303 758 q 218 647 250 676 q 178 617 197 629 q 147 600 160 604 l 147 601 z "},"÷":{"ha":347,"x_min":0,"x_max":0,"o":""},"◊":{"ha":347,"x_min":0,"x_max":0,"o":""},"ÿ":{"ha":694,"x_min":19,"x_max":660,"o":"m 660 625 l 660 604 q 642 599 651 601 q 621 588 632 596 q 607 569 614 581 q 593 540 600 558 l 379 -25 q 360 -74 369 -51 q 340 -118 350 -97 q 253 -257 299 -211 q 143 -303 207 -303 q 74 -283 99 -303 q 44 -240 50 -264 q 42 -231 43 -235 q 42 -222 42 -226 q 43 -210 42 -219 q 49 -192 44 -201 q 69 -171 56 -181 q 108 -161 82 -161 q 119 -162 114 -161 q 129 -164 124 -162 q 148 -168 139 -165 q 165 -174 157 -171 q 189 -182 178 -178 q 207 -186 200 -186 q 260 -152 236 -186 q 301 -78 285 -118 q 326 -12 318 -42 q 335 26 335 18 q 322 65 335 35 q 292 128 308 94 q 291 131 292 129 q 289 135 290 133 q 265 182 276 160 q 249 218 254 204 l 90 561 q 74 582 83 574 q 54 594 64 590 q 35 601 44 599 q 19 604 26 603 l 19 625 l 306 625 l 306 604 q 293 602 300 603 q 279 601 286 601 q 242 591 258 599 q 225 563 225 583 q 226 556 225 560 q 226 549 226 551 q 229 538 228 543 q 233 528 231 532 q 236 519 235 522 q 239 513 238 515 l 399 163 l 507 471 q 510 481 508 475 q 515 492 513 486 q 531 536 524 515 q 539 564 539 557 q 524 593 539 583 q 478 603 508 603 q 475 603 476 603 q 472 603 474 603 l 472 625 l 660 625 l 660 625 m 142 796 q 143 806 142 800 q 147 819 144 813 q 168 850 153 836 q 208 864 183 864 q 257 843 236 864 q 278 794 278 822 q 257 745 278 765 q 208 725 236 725 q 167 740 182 725 q 146 772 151 754 q 142 783 143 778 q 142 794 142 789 l 142 796 m 418 796 q 419 806 418 800 q 424 819 421 813 q 444 850 429 836 q 485 864 460 864 q 533 843 513 864 q 554 794 554 822 q 533 745 554 765 q 485 725 513 725 q 443 740 458 725 q 422 772 428 754 q 419 783 419 778 q 418 794 418 789 l 418 796 z "},"Ÿ":{"ha":1003,"x_min":31,"x_max":976,"o":"m 976 919 l 976 893 q 971 891 974 892 q 965 890 968 890 q 891 860 931 886 q 785 733 851 835 l 579 421 l 579 151 q 604 51 579 75 q 722 25 629 26 l 722 0 l 297 0 l 297 26 q 419 57 400 28 q 438 165 438 86 l 438 408 l 256 675 q 139 832 176 790 q 74 885 101 874 q 53 889 64 888 q 32 892 43 890 q 31 892 32 892 q 31 892 31 892 l 31 919 l 419 919 l 419 893 q 416 892 418 892 q 413 892 414 892 q 344 883 368 889 q 321 849 321 876 q 324 833 321 842 q 331 815 326 825 q 337 801 333 808 q 344 789 340 794 l 550 482 l 749 796 q 762 819 756 806 q 768 846 768 832 q 744 882 768 874 q 693 892 721 890 q 683 892 688 892 q 672 892 678 892 l 672 919 l 976 919 l 976 919 m 296 1090 q 297 1101 296 1094 q 301 1114 299 1107 q 322 1144 307 1131 q 363 1158 338 1158 q 411 1138 390 1158 q 432 1089 432 1117 q 411 1040 432 1060 q 363 1019 390 1019 q 321 1034 336 1019 q 300 1067 306 1049 q 297 1078 297 1072 q 296 1089 296 1083 l 296 1090 m 572 1090 q 574 1101 572 1094 q 578 1114 575 1107 q 599 1144 583 1131 q 639 1158 614 1158 q 688 1138 667 1158 q 708 1089 708 1117 q 688 1040 708 1060 q 639 1019 667 1019 q 597 1034 613 1019 q 576 1067 582 1049 q 573 1078 574 1072 q 572 1089 572 1083 l 572 1090 z "},"∕":{"ha":232,"x_min":-233,"x_max":460,"o":"m 460 939 l -165 -19 l -233 -19 l 396 939 l 460 939 l 460 939 z "},"¤":{"ha":694,"x_min":-31,"x_max":725,"o":"m -31 150 l 106 283 q 64 362 79 317 q 49 458 49 407 q 65 556 49 511 q 106 632 82 601 l -31 769 l 39 836 l 172 703 q 252 740 207 725 q 349 756 297 756 q 447 740 401 756 q 522 701 492 725 l 658 836 l 725 769 l 592 633 q 631 556 615 600 q 646 458 646 511 q 631 362 646 407 q 592 282 615 317 l 725 150 l 658 81 l 522 217 q 447 175 492 192 q 349 158 401 158 q 251 175 297 158 q 172 215 204 192 l 39 81 l -31 150 l -31 150 m 349 668 q 202 604 261 667 q 143 458 143 542 q 202 310 143 374 q 349 247 261 247 q 494 310 436 247 q 551 458 551 374 q 494 604 551 542 q 349 667 436 667 l 349 668 z "},"‹":{"ha":463,"x_min":88,"x_max":396,"o":"m 88 315 l 131 353 q 219 428 163 378 q 336 539 275 479 q 347 549 342 544 q 358 560 353 554 q 372 572 368 569 q 378 576 375 575 q 378 576 378 576 q 381 576 379 576 q 392 572 389 576 q 394 561 394 568 q 368 515 394 553 q 310 433 342 478 q 306 428 307 431 q 303 425 304 426 q 251 357 275 389 q 217 311 226 325 q 243 277 228 296 q 275 239 258 258 q 306 201 290 219 q 332 167 321 182 q 343 152 338 160 q 354 138 349 144 q 358 130 356 133 q 363 124 361 126 q 386 86 376 104 q 396 60 396 68 q 392 49 396 53 q 381 44 388 44 q 331 89 374 44 q 231 186 289 133 q 217 198 224 192 q 204 210 211 204 q 183 228 200 214 q 147 260 165 243 q 106 296 125 279 q 88 314 88 313 l 88 315 z "},"›":{"ha":463,"x_min":67,"x_max":375,"o":"m 375 308 l 332 271 q 244 192 300 243 q 126 82 188 142 q 115 72 121 76 q 104 61 110 67 q 91 49 94 51 q 86 44 88 46 q 84 44 85 44 q 82 44 83 44 q 71 49 74 44 q 68 60 68 53 q 94 106 68 68 q 153 188 121 143 q 157 192 156 190 q 160 196 158 194 q 212 264 188 232 q 246 310 236 296 q 219 344 235 325 q 189 382 204 363 q 157 420 172 401 q 131 454 142 439 q 119 469 125 461 q 108 483 114 476 q 104 491 107 488 q 100 497 101 494 q 76 535 86 517 q 67 561 67 553 q 72 572 67 568 q 82 576 76 576 q 131 532 89 576 q 232 435 174 488 q 245 423 239 429 q 258 411 251 417 q 280 392 263 407 q 315 361 297 378 q 356 325 338 342 q 375 307 375 308 l 375 308 z "},"":{"ha":772,"x_min":43,"x_max":724,"o":"m 43 581 l 43 625 l 139 625 q 220 863 144 778 q 442 947 296 947 q 563 924 510 947 q 617 847 617 901 q 602 811 617 826 q 568 796 588 796 q 530 809 544 796 q 503 840 515 822 q 499 848 501 844 q 493 854 496 851 q 457 894 478 876 q 397 913 436 913 q 324 890 356 913 q 278 842 293 868 q 272 833 275 838 q 268 824 269 828 q 253 743 256 793 q 253 624 251 693 l 471 625 q 500 624 485 624 q 531 626 515 625 q 582 631 557 628 q 628 638 607 633 l 633 635 q 633 608 633 621 q 632 582 632 596 q 631 536 632 558 q 631 497 631 514 l 631 135 q 651 43 631 63 q 724 19 671 24 l 724 0 l 418 0 l 418 21 q 501 47 488 24 q 514 133 514 71 l 514 501 q 506 555 514 540 q 464 575 499 569 q 444 576 460 575 q 408 576 429 576 q 383 577 396 576 q 357 578 371 578 q 294 578 324 578 q 254 579 265 579 l 254 122 q 267 51 254 79 q 350 19 281 22 l 350 0 l 44 0 l 44 21 q 117 39 96 21 q 138 129 138 57 l 138 581 l 43 581 l 43 581 z "},"":{"ha":772,"x_min":44,"x_max":724,"o":"m 44 581 l 44 625 l 143 625 q 183 824 143 757 q 269 918 222 892 q 329 942 300 938 q 376 947 358 947 q 432 942 410 947 q 471 931 454 936 q 494 921 485 925 q 515 914 504 917 q 522 913 518 914 q 528 913 525 913 q 549 917 535 913 q 576 929 563 922 q 578 929 578 929 q 581 931 579 929 q 609 942 596 936 q 628 947 622 947 l 635 946 l 635 113 q 649 43 635 64 q 724 19 664 22 l 724 0 l 425 0 l 425 21 q 490 37 461 22 q 518 115 518 51 l 518 581 l 257 581 l 257 110 q 285 38 257 51 q 356 19 313 24 l 356 0 l 44 0 l 44 21 q 48 19 46 19 q 51 19 50 19 q 120 41 100 24 q 140 144 140 58 l 140 581 l 44 581 l 44 581 m 518 625 l 518 821 q 517 819 518 819 q 515 817 517 818 q 508 812 513 814 q 497 810 504 810 q 449 826 465 810 q 421 860 433 842 q 420 860 421 860 q 419 861 419 861 q 392 895 407 881 q 349 910 378 910 q 272 844 289 910 q 256 697 256 778 q 256 692 256 694 q 256 686 256 689 q 256 669 256 678 q 257 654 256 661 q 257 638 257 646 q 257 624 257 631 l 518 625 l 518 625 z "},"‡":{"ha":694,"x_min":81,"x_max":614,"o":"m 614 622 q 601 577 614 590 q 571 561 588 564 q 563 560 567 560 q 557 560 560 560 q 529 563 542 560 q 506 569 517 565 q 489 577 497 574 q 471 585 481 581 q 427 598 453 592 q 363 607 401 604 q 363 600 363 604 q 363 592 363 596 q 363 535 363 568 q 371 467 364 503 q 388 410 376 438 q 418 360 399 382 q 385 308 397 338 q 368 246 374 278 q 362 184 363 214 q 361 131 361 154 q 361 123 361 126 q 361 117 361 119 q 426 126 400 119 q 469 139 451 132 q 488 147 479 143 q 504 154 496 150 q 528 161 515 158 q 556 164 540 164 q 562 164 558 164 q 569 163 565 164 q 599 147 586 160 q 613 103 613 133 q 599 63 613 76 q 569 44 586 49 q 562 44 565 44 q 556 43 558 43 q 528 47 540 43 q 504 54 515 50 q 491 60 497 57 q 476 68 485 64 q 431 83 458 76 q 361 92 404 90 q 369 -8 361 28 q 386 -67 376 -43 q 394 -85 390 -76 q 401 -101 399 -93 q 408 -123 406 -112 q 411 -147 411 -133 q 392 -193 411 -174 q 347 -212 372 -212 q 301 -193 321 -212 q 282 -147 282 -174 q 285 -123 282 -133 q 292 -101 288 -112 q 299 -85 294 -93 q 307 -67 303 -76 q 324 -8 317 -43 q 332 92 332 28 q 262 83 289 90 q 217 68 235 76 q 202 60 208 64 q 189 54 196 57 q 165 47 178 50 q 138 43 153 43 q 131 44 135 43 q 124 44 128 44 q 94 63 107 49 q 81 103 81 76 q 94 147 81 133 q 124 163 107 160 q 131 164 128 164 q 138 164 135 164 q 165 161 153 164 q 189 154 178 158 q 206 147 197 150 q 224 139 214 143 q 267 126 242 132 q 332 117 293 119 q 332 122 332 119 q 332 128 332 125 q 331 177 332 149 q 326 236 331 206 q 311 306 322 272 q 276 360 300 339 q 305 409 294 382 q 322 464 315 436 q 332 540 331 503 q 333 600 333 576 q 333 603 333 601 q 333 607 333 606 q 269 598 294 604 q 225 585 243 592 q 207 577 215 581 q 190 569 199 574 q 167 563 179 565 q 139 560 154 560 q 133 560 136 560 q 125 561 129 560 q 95 577 108 564 q 82 621 82 590 q 95 661 82 647 q 125 679 108 675 q 133 680 129 679 q 139 681 136 681 q 167 677 154 681 q 190 669 179 674 q 203 663 197 667 q 218 656 210 660 q 263 640 236 647 q 333 632 290 633 q 326 732 333 696 q 308 792 318 768 q 300 810 304 801 q 293 826 296 818 q 286 848 289 838 q 283 872 283 858 q 303 918 283 899 q 349 938 322 938 q 393 918 374 938 q 413 872 413 899 q 410 848 413 858 q 403 826 407 838 q 396 810 400 818 q 388 792 392 801 q 370 732 378 768 q 363 632 363 696 q 433 640 406 633 q 478 656 460 647 q 492 663 486 660 q 506 669 499 667 q 529 677 517 674 q 557 681 542 681 q 563 680 560 681 q 571 679 567 679 q 601 661 588 675 q 614 621 614 647 l 614 622 z "},"∙":{"ha":347,"x_min":97,"x_max":251,"o":"m 174 276 q 161 276 168 275 q 147 281 154 278 q 113 304 128 288 q 97 350 97 321 q 120 406 97 383 q 174 429 143 429 q 228 406 206 429 q 251 350 251 382 q 236 306 251 322 q 201 281 221 289 q 188 276 194 278 q 174 275 181 275 l 174 276 z "},"‚":{"ha":347,"x_min":0,"x_max":0,"o":""},"„":{"ha":617,"x_min":63,"x_max":578,"o":"m 100 -196 l 88 -169 q 101 -160 94 -165 q 114 -151 108 -156 q 184 -76 167 -111 q 201 -22 201 -40 q 195 -8 201 -12 q 182 -3 189 -3 q 177 -3 181 -3 q 169 -6 174 -4 q 161 -8 167 -7 q 149 -8 156 -8 q 137 -8 143 -8 q 124 -6 131 -7 q 82 13 101 -1 q 63 60 63 28 q 81 114 63 96 q 122 138 100 132 q 133 140 128 139 q 143 140 138 140 q 165 138 151 140 q 193 128 179 135 q 236 89 217 117 q 256 7 256 61 q 229 -78 256 -37 q 171 -149 203 -119 q 131 -179 150 -167 q 100 -196 113 -192 l 100 -196 m 422 -196 l 410 -169 q 424 -160 417 -165 q 436 -151 431 -156 q 506 -76 489 -111 q 524 -22 524 -40 q 517 -8 524 -12 q 504 -3 511 -3 q 499 -3 503 -3 q 492 -6 496 -4 q 483 -8 489 -7 q 471 -8 478 -8 q 459 -8 465 -8 q 446 -6 453 -7 q 404 13 424 -1 q 385 60 385 28 q 403 114 385 96 q 444 138 422 132 q 455 140 450 139 q 465 140 460 140 q 488 138 474 140 q 515 128 501 135 q 558 89 539 117 q 578 7 578 61 q 551 -78 578 -37 q 493 -149 525 -119 q 453 -179 472 -167 q 422 -196 435 -192 l 422 -196 z "},"‰":{"ha":1389,"x_min":10,"x_max":1381,"o":"m 743 458 q 844 413 810 457 q 878 307 878 369 q 817 83 878 171 q 682 -22 756 -6 q 667 -26 675 -25 q 651 -26 658 -26 q 619 -22 638 -26 q 579 -8 600 -18 q 513 51 543 8 q 482 169 482 93 q 559 361 482 274 q 728 457 636 449 q 735 457 732 457 q 743 457 739 457 l 743 458 m 760 419 q 672 367 710 418 q 613 254 635 315 q 590 174 597 213 q 582 113 582 135 q 601 42 582 74 q 657 10 621 10 q 759 60 718 10 q 822 168 800 110 q 840 234 833 203 q 846 289 846 265 q 821 386 846 354 q 760 418 796 418 l 760 419 m 1246 458 q 1347 413 1313 457 q 1381 307 1381 369 q 1319 83 1381 171 q 1185 -22 1258 -6 q 1169 -26 1178 -25 q 1154 -26 1161 -26 q 1122 -22 1140 -26 q 1082 -8 1103 -18 q 1015 51 1046 8 q 985 169 985 93 q 1062 361 985 274 q 1231 457 1139 449 q 1238 457 1235 457 q 1246 457 1242 457 l 1246 458 m 1263 419 q 1175 367 1213 418 q 1115 254 1138 315 q 1092 174 1100 213 q 1085 113 1085 135 q 1104 42 1085 74 q 1160 10 1124 10 q 1262 60 1221 10 q 1325 168 1303 110 q 1342 234 1336 203 q 1349 289 1349 265 q 1324 386 1349 354 q 1263 418 1299 418 l 1263 419 m 788 981 l 190 -25 l 125 -25 l 663 874 l 660 876 q 657 872 658 874 q 653 868 656 869 q 599 827 633 846 q 488 808 564 808 q 483 808 485 808 q 479 808 481 808 q 451 812 467 808 q 399 828 436 815 q 403 803 401 817 q 404 772 404 790 q 401 728 404 751 q 393 683 399 706 q 315 524 372 596 q 174 451 258 451 q 142 456 164 451 q 94 474 119 460 q 36 534 63 492 q 10 657 10 576 q 13 697 10 676 q 25 738 17 717 q 119 875 51 813 q 276 938 186 938 q 320 928 303 938 q 353 906 338 918 q 361 898 357 901 q 369 892 365 894 q 419 859 390 874 q 501 844 449 844 q 551 849 529 844 q 593 865 574 854 q 651 908 621 881 q 726 979 682 935 l 788 981 l 788 981 m 108 594 q 109 579 108 586 q 111 565 110 572 q 133 513 115 536 q 190 489 150 489 q 294 548 250 489 q 358 679 339 607 q 367 724 364 701 q 371 768 371 747 q 366 827 371 813 q 343 850 361 842 q 340 851 342 850 q 336 853 338 851 q 330 856 333 854 q 324 858 326 857 q 307 869 314 864 q 293 881 300 875 q 285 890 289 885 q 275 900 281 894 q 192 840 225 885 q 140 743 160 794 q 116 655 124 697 q 108 593 108 613 l 108 594 z "},"Â":{"ha":1003,"x_min":21,"x_max":981,"o":"m 981 26 l 981 0 l 626 0 l 626 26 q 694 32 665 25 q 724 78 724 39 q 721 97 724 86 q 714 119 718 108 q 711 128 713 124 q 708 138 710 133 q 703 153 706 146 q 697 165 700 160 l 640 300 l 276 300 l 213 138 q 210 130 211 133 q 208 122 208 126 q 203 102 204 113 q 201 83 201 92 q 218 43 201 56 q 256 28 235 31 q 277 25 267 25 q 296 25 288 25 l 296 0 l 21 0 l 21 26 q 56 31 38 26 q 92 56 74 36 q 112 84 101 67 q 133 122 122 101 q 146 147 140 135 q 157 172 151 160 q 177 215 168 194 q 193 253 186 236 l 482 936 l 510 936 l 856 147 q 878 97 868 117 q 899 64 889 78 q 933 34 915 42 q 981 25 951 26 l 981 26 m 300 357 l 621 357 l 460 739 l 300 357 l 300 357 m 718 999 l 671 999 l 501 1142 l 333 999 l 286 999 l 458 1231 l 544 1231 l 718 999 l 718 999 z "},"Ê":{"ha":849,"x_min":17,"x_max":829,"o":"m 829 235 l 767 0 l 17 0 l 17 26 q 110 49 83 29 q 138 150 138 69 l 138 768 q 110 867 138 849 q 17 892 82 886 l 17 919 l 754 919 l 758 721 l 724 721 q 668 839 708 813 q 513 865 628 865 l 325 867 q 291 860 303 865 q 279 818 279 854 l 279 511 l 493 511 q 609 538 585 510 q 646 638 633 567 q 646 640 646 639 q 646 642 646 640 l 678 643 l 678 321 l 646 321 q 606 426 633 403 q 493 451 579 450 l 279 456 l 279 111 q 305 59 279 67 q 486 51 331 51 q 681 90 617 51 q 790 233 744 128 l 829 235 l 829 235 m 640 999 l 593 999 l 424 1142 l 256 999 l 208 999 l 381 1231 l 467 1231 l 640 999 l 640 999 z "},"Á":{"ha":1003,"x_min":21,"x_max":981,"o":"m 981 26 l 981 0 l 626 0 l 626 26 q 694 32 665 25 q 724 78 724 39 q 721 97 724 86 q 714 119 718 108 q 711 128 713 124 q 708 138 710 133 q 703 153 706 146 q 697 165 700 160 l 640 300 l 276 300 l 213 138 q 210 130 211 133 q 208 122 208 126 q 203 102 204 113 q 201 83 201 92 q 218 43 201 56 q 256 28 235 31 q 277 25 267 25 q 296 25 288 25 l 296 0 l 21 0 l 21 26 q 56 31 38 26 q 92 56 74 36 q 112 84 101 67 q 133 122 122 101 q 146 147 140 135 q 157 172 151 160 q 177 215 168 194 q 193 253 186 236 l 482 936 l 510 936 l 856 147 q 878 97 868 117 q 899 64 889 78 q 933 34 915 42 q 981 25 951 26 l 981 26 m 300 357 l 621 357 l 460 739 l 300 357 l 300 357 m 456 999 l 400 999 l 604 1204 q 631 1226 621 1219 q 650 1233 640 1232 q 657 1235 653 1235 q 665 1235 661 1235 q 692 1228 683 1235 q 706 1213 701 1221 q 710 1199 710 1206 q 711 1190 711 1192 q 703 1163 711 1175 q 686 1143 696 1151 q 678 1138 682 1140 q 669 1132 674 1135 l 456 999 l 456 999 z "},"Ë":{"ha":849,"x_min":17,"x_max":829,"o":"m 829 235 l 767 0 l 17 0 l 17 26 q 110 49 83 29 q 138 150 138 69 l 138 768 q 110 867 138 849 q 17 892 82 886 l 17 919 l 754 919 l 758 721 l 724 721 q 668 839 708 813 q 513 865 628 865 l 325 867 q 291 860 303 865 q 279 818 279 854 l 279 511 l 493 511 q 609 538 585 510 q 646 638 633 567 q 646 640 646 639 q 646 642 646 640 l 678 643 l 678 321 l 646 321 q 606 426 633 403 q 493 451 579 450 l 279 456 l 279 111 q 305 59 279 67 q 486 51 331 51 q 681 90 617 51 q 790 233 744 128 l 829 235 l 829 235 m 218 1090 q 219 1101 218 1094 q 224 1114 221 1107 q 244 1144 229 1131 q 285 1158 260 1158 q 333 1138 313 1158 q 354 1089 354 1117 q 333 1040 354 1060 q 285 1019 313 1019 q 243 1034 258 1019 q 222 1067 228 1049 q 219 1078 219 1072 q 218 1089 218 1083 l 218 1090 m 494 1090 q 496 1101 494 1094 q 500 1114 497 1107 q 521 1144 506 1131 q 561 1158 536 1158 q 610 1138 589 1158 q 631 1089 631 1117 q 610 1040 631 1060 q 561 1019 589 1019 q 519 1034 535 1019 q 499 1067 504 1049 q 495 1078 496 1072 q 494 1089 494 1083 l 494 1090 z "},"È":{"ha":849,"x_min":17,"x_max":829,"o":"m 829 235 l 767 0 l 17 0 l 17 26 q 110 49 83 29 q 138 150 138 69 l 138 768 q 110 867 138 849 q 17 892 82 886 l 17 919 l 754 919 l 758 721 l 724 721 q 668 839 708 813 q 513 865 628 865 l 325 867 q 291 860 303 865 q 279 818 279 854 l 279 511 l 493 511 q 609 538 585 510 q 646 638 633 567 q 646 640 646 639 q 646 642 646 640 l 678 643 l 678 321 l 646 321 q 606 426 633 403 q 493 451 579 450 l 279 456 l 279 111 q 305 59 279 67 q 486 51 331 51 q 681 90 617 51 q 790 233 744 128 l 829 235 l 829 235 m 529 999 l 474 999 l 260 1133 q 254 1136 257 1133 q 247 1140 251 1139 q 228 1163 238 1150 q 219 1192 219 1175 q 220 1199 219 1193 q 225 1213 221 1206 q 238 1228 229 1221 q 264 1235 247 1235 q 274 1235 269 1235 q 283 1233 279 1235 q 300 1224 292 1231 q 325 1203 308 1218 l 529 999 l 529 999 z "},"Í":{"ha":463,"x_min":25,"x_max":440,"o":"m 25 0 l 25 26 q 137 52 114 28 q 160 150 160 76 l 160 768 q 135 866 160 844 q 25 892 111 888 l 25 919 l 438 919 l 438 893 q 331 869 361 889 q 301 767 301 850 l 301 151 q 331 49 301 69 q 438 25 361 28 l 438 0 l 25 0 l 25 0 m 185 999 l 129 999 l 333 1204 q 360 1226 350 1219 q 379 1233 369 1232 q 386 1235 382 1235 q 394 1235 390 1235 q 422 1228 413 1235 q 435 1213 431 1221 q 440 1199 439 1206 q 440 1190 440 1192 q 433 1163 440 1175 q 415 1143 425 1151 q 407 1138 411 1140 q 399 1132 403 1135 l 185 999 l 185 999 z "},"Î":{"ha":463,"x_min":15,"x_max":447,"o":"m 25 0 l 25 26 q 137 52 114 28 q 160 150 160 76 l 160 768 q 135 866 160 844 q 25 892 111 888 l 25 919 l 438 919 l 438 893 q 331 869 361 889 q 301 767 301 850 l 301 151 q 331 49 301 69 q 438 25 361 28 l 438 0 l 25 0 l 25 0 m 447 999 l 400 999 l 231 1142 l 63 999 l 15 999 l 188 1231 l 274 1231 l 447 999 l 447 999 z "},"Ï":{"ha":463,"x_min":25,"x_max":438,"o":"m 25 0 l 25 26 q 137 52 114 28 q 160 150 160 76 l 160 768 q 135 866 160 844 q 25 892 111 888 l 25 919 l 438 919 l 438 893 q 331 869 361 889 q 301 767 301 850 l 301 151 q 331 49 301 69 q 438 25 361 28 l 438 0 l 25 0 l 25 0 m 25 1090 q 26 1101 25 1094 q 31 1114 28 1107 q 51 1144 36 1131 q 92 1158 67 1158 q 140 1138 119 1158 q 161 1089 161 1117 q 140 1040 161 1060 q 92 1019 119 1019 q 50 1034 65 1019 q 29 1067 35 1049 q 26 1078 26 1072 q 25 1089 25 1083 l 25 1090 m 301 1090 q 303 1101 301 1094 q 307 1114 304 1107 q 328 1144 313 1131 q 368 1158 343 1158 q 417 1138 396 1158 q 438 1089 438 1117 q 417 1040 438 1060 q 368 1019 396 1019 q 326 1034 342 1019 q 306 1067 311 1049 q 302 1078 303 1072 q 301 1089 301 1083 l 301 1090 z "},"Ì":{"ha":463,"x_min":25,"x_max":438,"o":"m 25 0 l 25 26 q 137 52 114 28 q 160 150 160 76 l 160 768 q 135 866 160 844 q 25 892 111 888 l 25 919 l 438 919 l 438 893 q 331 869 361 889 q 301 767 301 850 l 301 151 q 331 49 301 69 q 438 25 361 28 l 438 0 l 25 0 l 25 0 m 336 999 l 281 999 l 67 1133 q 61 1136 64 1133 q 54 1140 58 1139 q 35 1163 44 1150 q 26 1192 26 1175 q 27 1199 26 1193 q 32 1213 28 1206 q 45 1228 36 1221 q 71 1235 54 1235 q 81 1235 76 1235 q 90 1233 86 1235 q 107 1224 99 1231 q 132 1203 115 1218 l 336 999 l 336 999 z "},"Ó":{"ha":1003,"x_min":47,"x_max":956,"o":"m 501 -19 q 180 108 313 -19 q 47 457 47 235 q 189 817 47 697 q 501 938 331 938 q 814 817 672 938 q 956 457 956 697 q 823 108 956 235 q 501 -19 690 -19 l 501 -19 m 501 31 q 707 129 617 29 q 797 458 797 229 q 715 776 797 678 q 533 886 632 874 q 517 887 525 886 q 501 888 510 888 q 485 887 493 888 q 469 886 478 886 q 288 776 371 874 q 206 458 206 678 q 296 129 206 229 q 501 29 386 29 l 501 31 m 456 999 l 400 999 l 604 1204 q 631 1226 621 1219 q 650 1233 640 1232 q 657 1235 653 1235 q 665 1235 661 1235 q 692 1228 683 1235 q 706 1213 701 1221 q 710 1199 710 1206 q 711 1190 711 1192 q 703 1163 711 1175 q 686 1143 696 1151 q 678 1138 682 1140 q 669 1132 674 1135 l 456 999 l 456 999 z "},"Ô":{"ha":1003,"x_min":47,"x_max":956,"o":"m 501 -19 q 180 108 313 -19 q 47 457 47 235 q 189 817 47 697 q 501 938 331 938 q 814 817 672 938 q 956 457 956 697 q 823 108 956 235 q 501 -19 690 -19 l 501 -19 m 501 31 q 707 129 617 29 q 797 458 797 229 q 715 776 797 678 q 533 886 632 874 q 517 887 525 886 q 501 888 510 888 q 485 887 493 888 q 469 886 478 886 q 288 776 371 874 q 206 458 206 678 q 296 129 206 229 q 501 29 386 29 l 501 31 m 718 999 l 671 999 l 501 1142 l 333 999 l 286 999 l 458 1231 l 544 1231 l 718 999 l 718 999 z "},"":{"ha":347,"x_min":0,"x_max":0,"o":""},"Ò":{"ha":347,"x_min":0,"x_max":0,"o":""},"Ú":{"ha":1003,"x_min":19,"x_max":979,"o":"m 979 919 l 979 893 q 874 853 899 883 q 849 714 849 824 l 849 353 q 847 278 849 321 q 831 190 844 235 q 734 46 808 111 q 489 -19 660 -19 q 265 39 336 -19 q 168 168 193 97 q 147 263 150 218 q 144 333 144 308 l 144 768 q 122 865 144 844 q 19 892 99 886 l 19 919 l 413 919 l 413 893 q 308 863 331 886 q 286 767 286 840 l 286 324 q 288 267 286 299 q 296 203 289 236 q 360 91 311 142 q 528 40 410 40 q 667 71 610 40 q 756 150 725 101 q 778 214 769 174 q 788 339 788 254 l 788 715 q 759 856 788 825 q 657 892 731 888 l 657 919 l 979 919 l 979 919 m 456 999 l 400 999 l 604 1204 q 631 1226 621 1219 q 650 1233 640 1232 q 657 1235 653 1235 q 665 1235 661 1235 q 692 1228 683 1235 q 706 1213 701 1221 q 710 1199 710 1206 q 711 1190 711 1192 q 703 1163 711 1175 q 686 1143 696 1151 q 678 1138 682 1140 q 669 1132 674 1135 l 456 999 l 456 999 z "},"Û":{"ha":1003,"x_min":19,"x_max":979,"o":"m 979 919 l 979 893 q 874 853 899 883 q 849 714 849 824 l 849 353 q 847 278 849 321 q 831 190 844 235 q 734 46 808 111 q 489 -19 660 -19 q 265 39 336 -19 q 168 168 193 97 q 147 263 150 218 q 144 333 144 308 l 144 768 q 122 865 144 844 q 19 892 99 886 l 19 919 l 413 919 l 413 893 q 308 863 331 886 q 286 767 286 840 l 286 324 q 288 267 286 299 q 296 203 289 236 q 360 91 311 142 q 528 40 410 40 q 667 71 610 40 q 756 150 725 101 q 778 214 769 174 q 788 339 788 254 l 788 715 q 759 856 788 825 q 657 892 731 888 l 657 919 l 979 919 l 979 919 m 718 999 l 671 999 l 501 1142 l 333 999 l 286 999 l 458 1231 l 544 1231 l 718 999 l 718 999 z "},"Ù":{"ha":1003,"x_min":19,"x_max":979,"o":"m 979 919 l 979 893 q 874 853 899 883 q 849 714 849 824 l 849 353 q 847 278 849 321 q 831 190 844 235 q 734 46 808 111 q 489 -19 660 -19 q 265 39 336 -19 q 168 168 193 97 q 147 263 150 218 q 144 333 144 308 l 144 768 q 122 865 144 844 q 19 892 99 886 l 19 919 l 413 919 l 413 893 q 308 863 331 886 q 286 767 286 840 l 286 324 q 288 267 286 299 q 296 203 289 236 q 360 91 311 142 q 528 40 410 40 q 667 71 610 40 q 756 150 725 101 q 778 214 769 174 q 788 339 788 254 l 788 715 q 759 856 788 825 q 657 892 731 888 l 657 919 l 979 919 l 979 919 m 607 999 l 551 999 l 338 1133 q 332 1136 335 1133 q 325 1140 329 1139 q 306 1163 315 1150 q 297 1192 297 1175 q 298 1199 297 1193 q 303 1213 299 1206 q 316 1228 307 1221 q 342 1235 325 1235 q 352 1235 347 1235 q 361 1233 357 1235 q 378 1224 369 1231 q 403 1203 386 1218 l 607 999 l 607 999 z "},"ı":{"ha":386,"x_min":22,"x_max":351,"o":"m 22 0 l 22 21 q 110 41 88 22 q 132 140 132 60 l 132 464 q 119 530 132 515 q 93 546 107 544 q 88 546 90 546 q 83 546 86 546 q 56 544 69 546 q 28 540 42 543 l 28 563 l 243 639 l 249 635 l 249 142 q 264 48 249 72 q 351 19 279 24 l 351 0 l 22 0 l 22 0 z "},"˜":{"ha":463,"x_min":15,"x_max":447,"o":"m 447 704 l 400 704 l 231 847 l 63 704 l 15 704 l 188 936 l 274 936 l 447 704 l 447 704 z "},"ˆ":{"ha":463,"x_min":1,"x_max":460,"o":"m 419 886 l 460 886 q 452 856 457 872 q 439 824 447 840 q 396 765 425 792 q 314 738 367 738 q 281 740 296 738 q 251 749 265 743 q 227 758 239 753 q 201 771 215 764 l 169 788 q 157 792 164 789 q 144 797 150 794 q 131 800 138 799 q 118 801 125 801 q 75 789 90 801 q 51 761 60 776 q 46 749 49 754 q 42 738 43 743 l 1 739 q 6 755 3 746 q 11 772 8 764 q 58 845 25 813 q 147 878 90 878 q 192 872 169 878 q 239 853 215 865 l 272 838 q 279 833 275 835 q 286 829 283 831 q 299 824 293 826 q 311 821 306 822 q 326 817 318 818 q 339 815 333 815 q 377 824 361 815 q 407 858 393 833 q 413 870 410 864 q 419 885 417 876 l 419 886 z "},"ˉ":{"ha":463,"x_min":15,"x_max":447,"o":"m 15 835 l 447 835 l 447 760 l 15 760 l 15 835 l 15 835 z "},"˘":{"ha":463,"x_min":36,"x_max":426,"o":"m 386 922 l 426 922 q 420 878 425 907 q 403 817 415 849 q 344 738 385 774 q 228 703 304 703 q 95 754 154 703 q 36 915 36 806 q 36 916 36 915 q 36 918 36 917 q 36 920 36 919 q 36 921 36 921 l 76 922 q 126 822 88 857 q 231 786 164 786 q 335 825 307 786 q 383 914 364 864 q 385 917 385 915 q 386 921 386 919 l 386 922 z "},"˙":{"ha":463,"x_min":164,"x_max":300,"o":"m 164 796 q 165 806 164 800 q 169 819 167 813 q 190 850 175 836 q 231 864 206 864 q 279 843 258 864 q 300 794 300 822 q 279 745 300 765 q 231 725 258 725 q 189 740 204 725 q 168 772 174 754 q 165 783 165 778 q 164 794 164 789 l 164 796 z "},"˚":{"ha":463,"x_min":93,"x_max":369,"o":"m 93 849 q 133 945 93 904 q 231 986 172 986 q 328 945 288 986 q 369 847 369 904 q 328 750 369 790 q 231 710 288 710 q 132 751 171 710 q 93 847 93 792 l 93 849 m 231 940 q 177 921 197 939 q 147 882 157 903 q 142 865 144 874 q 140 849 140 856 q 142 833 140 842 q 147 815 143 825 q 176 776 156 794 q 229 757 196 757 q 296 783 269 757 q 322 847 322 810 q 296 912 322 885 q 231 939 269 939 l 231 940 z "},"¸":{"ha":463,"x_min":72,"x_max":363,"o":"m 136 -137 l 193 0 l 242 0 l 207 -90 q 213 -90 210 -90 q 217 -89 215 -89 q 231 -87 224 -87 q 246 -86 238 -86 q 331 -111 300 -86 q 363 -183 363 -136 q 363 -185 363 -185 q 363 -187 363 -186 q 321 -264 361 -229 q 194 -299 281 -299 q 134 -294 158 -299 q 93 -285 110 -290 q 82 -280 88 -282 q 72 -276 76 -278 l 92 -233 q 109 -239 99 -236 q 129 -243 119 -242 q 159 -249 146 -247 q 178 -250 172 -250 q 235 -237 211 -250 q 258 -187 258 -224 q 243 -151 258 -164 q 196 -139 228 -139 q 185 -139 190 -139 q 174 -139 179 -139 q 158 -141 165 -140 q 146 -144 151 -142 l 136 -137 l 136 -137 z "},"ʺ":{"ha":463,"x_min":-4,"x_max":524,"o":"m 51 704 l -4 704 l 200 910 q 226 931 217 925 q 246 939 236 938 q 253 940 249 940 q 261 940 257 940 q 288 933 279 940 q 301 918 297 926 q 306 904 306 911 q 307 896 307 897 q 299 869 307 881 q 282 849 292 857 q 274 843 278 846 q 265 838 269 840 l 51 704 l 51 704 m 268 704 l 213 704 l 417 910 q 443 931 433 925 q 463 939 453 938 q 469 940 465 940 q 478 940 474 940 q 505 933 496 940 q 518 918 514 926 q 523 904 522 911 q 524 896 524 897 q 516 869 524 881 q 499 849 508 857 q 490 843 494 846 q 482 838 486 840 l 268 704 l 268 704 z "},"˛":{"ha":463,"x_min":89,"x_max":346,"o":"m 318 -101 l 346 -124 q 280 -197 319 -164 q 193 -229 240 -229 q 119 -201 149 -229 q 89 -117 89 -172 q 90 -106 89 -111 q 92 -94 90 -100 q 113 -52 99 -72 q 143 -17 128 -32 q 153 -8 149 -12 q 164 0 158 -3 l 228 0 q 219 -7 224 -3 q 208 -17 214 -11 q 180 -51 193 -31 q 167 -96 167 -72 q 183 -137 167 -122 q 217 -151 199 -151 q 267 -139 244 -151 q 308 -110 289 -126 q 313 -105 311 -107 q 318 -101 315 -103 l 318 -101 z "},"ˇ":{"ha":463,"x_min":15,"x_max":447,"o":"m 447 936 l 274 704 l 188 704 l 15 936 l 63 936 l 231 793 l 400 936 l 447 936 l 447 936 z "},"Ł":{"ha":849,"x_min":17,"x_max":831,"o":"m 831 242 l 764 0 l 17 0 l 17 26 q 110 49 83 29 q 138 150 138 69 l 138 388 l 17 314 l 17 382 l 138 457 l 138 768 q 110 867 138 849 q 17 892 82 886 l 17 919 l 408 919 l 408 893 q 308 868 338 888 q 279 767 279 849 l 279 525 l 494 657 l 494 589 l 279 458 l 279 111 q 306 60 279 68 q 419 53 333 53 q 656 78 576 53 q 796 240 736 104 l 831 242 l 831 242 z "},"ł":{"ha":386,"x_min":26,"x_max":360,"o":"m 29 0 l 29 21 q 113 43 90 24 q 136 119 136 63 l 136 439 l 28 367 l 28 428 l 136 501 l 136 783 q 125 848 136 829 q 74 867 114 867 q 59 867 65 867 q 46 865 53 867 q 37 865 42 865 q 26 864 32 864 l 26 888 q 137 915 82 900 q 247 947 192 929 l 253 946 l 253 582 l 360 656 l 360 594 l 253 522 l 253 117 q 275 39 253 56 q 357 19 297 22 l 357 0 l 29 0 l 29 0 z "},"Š":{"ha":772,"x_min":58,"x_max":682,"o":"m 621 939 l 651 643 l 617 643 q 613 656 615 649 q 610 669 611 663 q 522 815 586 749 q 358 881 458 881 q 356 881 357 881 q 354 881 356 881 q 260 847 303 879 q 218 751 218 815 q 269 642 218 688 q 390 556 321 596 q 419 538 404 546 q 450 519 435 529 q 610 403 538 468 q 682 231 682 338 q 681 212 682 221 q 679 194 681 203 q 594 47 665 114 q 389 -19 522 -19 q 317 -12 350 -19 q 257 3 283 -4 q 210 19 231 11 q 174 26 189 26 q 142 13 153 26 q 131 -14 132 0 q 131 -16 131 -15 q 131 -18 131 -17 l 100 -18 l 58 276 l 90 276 q 112 226 99 256 q 146 164 125 196 q 234 72 179 114 q 375 29 289 29 q 496 74 454 29 q 542 172 538 118 q 542 178 542 175 q 542 183 542 181 q 540 218 542 201 q 531 250 538 235 q 468 326 515 286 q 315 429 421 367 q 289 445 301 438 q 264 460 276 453 q 144 559 189 506 q 99 701 99 613 q 176 878 99 819 q 346 938 253 936 q 348 938 347 938 q 350 938 349 938 q 411 930 382 938 q 465 914 440 922 q 510 898 490 906 q 543 890 531 890 q 572 899 563 890 q 586 918 582 907 q 590 928 589 924 q 592 938 590 933 l 621 939 l 621 939 m 603 1231 l 429 999 l 343 999 l 171 1231 l 218 1231 l 386 1088 l 556 1231 l 603 1231 l 603 1231 z "},"š":{"ha":540,"x_min":54,"x_max":486,"o":"m 438 436 l 417 436 q 354 570 394 536 q 271 606 314 604 q 266 606 268 606 q 263 606 264 606 q 196 587 219 606 q 163 544 172 568 q 158 530 160 538 q 157 515 157 522 q 160 490 157 504 q 171 461 163 475 q 189 438 178 449 q 217 417 200 426 l 367 329 q 372 324 369 326 q 378 321 375 322 q 454 257 425 292 q 483 164 483 222 q 435 46 483 89 q 329 -8 388 3 q 306 -12 318 -11 q 282 -14 293 -14 q 238 -10 260 -14 q 194 -1 215 -6 q 156 6 174 1 q 124 10 139 10 q 123 10 124 10 q 122 10 122 10 q 122 10 122 10 q 121 10 121 10 q 106 8 111 10 q 94 0 100 6 q 93 -2 94 0 q 90 -6 92 -4 l 72 -6 l 72 211 l 94 211 q 103 176 99 194 q 113 140 107 158 q 165 54 129 93 q 274 15 200 15 q 290 16 282 15 q 306 19 297 17 q 361 48 336 25 q 386 117 386 71 q 367 176 386 150 q 314 219 347 201 l 233 267 q 120 347 169 301 q 71 468 71 392 q 72 484 71 476 q 74 499 72 492 q 131 594 85 551 q 265 638 178 638 q 308 633 289 638 q 343 624 328 629 q 372 614 360 618 q 393 610 385 610 q 404 613 400 610 q 413 619 408 615 q 415 622 414 621 q 417 625 415 624 l 432 626 l 438 436 l 438 436 m 486 936 l 313 704 l 226 704 l 54 936 l 101 936 l 269 793 l 439 936 l 486 936 l 486 936 z "},"Ž":{"ha":347,"x_min":0,"x_max":0,"o":""},"ž":{"ha":347,"x_min":0,"x_max":0,"o":""},"¦":{"ha":347,"x_min":0,"x_max":0,"o":""},"Ð":{"ha":1003,"x_min":22,"x_max":951,"o":"m 22 893 l 22 919 l 397 919 q 799 803 647 918 q 951 456 951 689 q 946 385 951 422 q 929 310 940 349 q 775 97 892 193 q 417 0 658 0 l 22 0 l 22 26 q 123 53 101 29 q 144 150 144 78 l 144 438 l 29 438 l 29 499 l 144 499 l 144 768 q 124 865 144 844 q 22 892 103 886 l 22 893 m 489 499 l 489 438 l 286 438 l 286 108 q 303 61 286 72 q 369 50 319 50 q 454 54 397 50 q 574 81 511 58 q 729 197 658 113 q 800 454 800 281 q 772 624 800 542 q 671 769 743 706 q 552 840 621 814 q 351 867 483 867 q 294 850 303 867 q 286 813 286 833 l 286 499 l 489 499 l 489 499 z "},"ð":{"ha":694,"x_min":40,"x_max":654,"o":"m 375 799 l 204 708 l 158 750 l 326 839 q 238 888 285 868 q 142 915 192 908 l 200 949 q 315 926 261 943 q 411 882 368 910 l 543 953 l 589 911 l 463 844 q 592 672 546 774 q 650 463 639 571 q 653 428 653 446 q 654 393 654 411 q 653 358 654 376 q 650 322 651 340 q 559 91 633 196 q 346 -14 485 -14 q 126 79 211 -14 q 40 304 40 172 q 121 539 40 440 q 340 638 201 638 q 380 633 361 638 q 418 621 399 629 q 460 597 439 613 q 506 558 482 581 l 508 563 q 506 570 507 565 q 504 581 506 575 q 458 694 492 638 q 375 797 424 750 l 375 799 m 365 25 q 386 25 375 24 q 408 31 397 26 q 491 99 453 44 q 529 275 529 154 q 468 517 529 436 q 331 599 407 599 q 215 545 265 599 q 165 385 165 492 q 169 313 165 356 q 183 226 174 271 q 244 87 203 150 q 365 24 286 24 l 365 25 z "},"Ý":{"ha":347,"x_min":0,"x_max":0,"o":""},"ý":{"ha":347,"x_min":0,"x_max":0,"o":""},"Þ":{"ha":772,"x_min":22,"x_max":753,"o":"m 411 26 l 411 0 l 22 0 l 22 26 q 124 61 110 32 q 139 165 139 90 l 139 768 q 119 863 139 840 q 22 892 99 885 l 22 919 l 407 919 l 407 893 q 306 864 331 886 q 281 764 281 842 q 281 751 281 758 q 281 738 281 744 l 392 739 q 653 672 553 738 q 753 488 753 607 q 738 401 753 438 q 706 342 724 365 q 685 317 694 326 q 668 300 675 307 q 553 238 624 257 q 374 218 483 218 q 350 218 361 218 q 328 219 339 218 q 304 220 315 219 q 281 222 293 221 l 281 151 q 306 51 281 74 q 411 25 331 28 l 411 26 m 281 640 l 281 279 q 321 275 300 276 q 364 274 342 274 q 411 276 381 274 q 476 289 442 278 q 563 349 524 306 q 601 485 601 393 q 558 614 601 572 q 461 671 514 656 q 390 683 424 681 q 338 685 357 685 q 294 679 307 685 q 281 639 281 674 l 281 640 z "},"þ":{"ha":694,"x_min":7,"x_max":653,"o":"m 104 -182 l 104 796 q 97 846 104 826 q 43 865 89 865 q 36 865 40 865 q 28 865 32 865 q 19 865 24 865 q 13 864 15 864 l 13 888 q 63 900 38 893 q 114 915 88 907 q 164 931 139 922 q 214 947 189 939 l 221 944 l 221 535 l 219 535 l 222 532 q 238 549 229 539 q 258 571 247 560 q 327 617 286 596 q 424 638 368 638 q 585 558 517 638 q 653 339 653 478 q 651 302 653 321 q 646 265 650 283 q 555 73 626 160 q 361 -14 483 -14 q 308 -8 332 -14 q 260 13 283 -1 q 240 26 250 18 q 221 44 231 35 l 221 -172 q 244 -258 221 -239 q 343 -276 268 -276 l 343 -301 l 7 -301 l 7 -276 q 90 -249 76 -272 q 104 -182 104 -226 l 104 -182 m 221 464 l 221 122 q 226 104 221 114 q 239 85 231 94 q 290 47 257 64 q 363 29 324 29 q 397 33 376 29 q 440 51 418 38 q 504 131 475 75 q 533 297 533 186 q 531 345 533 308 q 514 424 528 382 q 461 513 497 472 q 357 554 425 554 q 334 552 346 554 q 310 546 322 550 q 252 513 279 535 q 221 463 225 490 l 221 464 z "},"−":{"ha":347,"x_min":0,"x_max":0,"o":""},"×":{"ha":347,"x_min":0,"x_max":0,"o":""},"¹":{"ha":347,"x_min":0,"x_max":0,"o":""},"²":{"ha":347,"x_min":0,"x_max":0,"o":""},"³":{"ha":347,"x_min":0,"x_max":0,"o":""},"½":{"ha":1042,"x_min":43,"x_max":1036,"o":"m 833 939 l 208 -19 l 140 -19 l 769 939 l 833 939 l 833 939 m 1036 118 l 985 0 l 633 0 l 633 32 l 769 181 q 852 288 822 238 q 882 368 882 338 q 881 385 882 376 q 875 404 879 394 q 844 453 867 431 q 782 475 821 475 q 708 447 738 475 q 661 378 678 418 l 626 399 q 708 528 656 494 q 838 563 760 563 q 958 522 907 563 q 1010 413 1010 482 q 988 326 1010 365 q 939 256 965 286 q 915 228 926 240 q 893 207 903 217 l 774 90 l 942 90 q 975 93 961 90 q 1000 110 989 96 q 1006 117 1003 113 q 1013 126 1010 121 l 1036 118 l 1036 118 m 308 408 l 308 375 l 43 375 l 43 408 q 45 407 44 407 q 47 407 46 407 q 97 416 76 410 q 117 451 117 422 l 117 810 q 117 811 117 810 q 117 815 117 813 q 115 837 117 826 q 107 847 114 847 q 104 847 106 847 q 101 847 103 847 q 86 844 96 847 q 46 829 76 840 l 46 863 l 210 939 l 229 935 l 229 458 q 249 418 229 426 q 308 407 269 410 l 308 408 z "},"¼":{"ha":347,"x_min":0,"x_max":0,"o":""},"¾":{"ha":347,"x_min":0,"x_max":0,"o":""},"₣":{"ha":347,"x_min":0,"x_max":0,"o":""},"Ğ":{"ha":347,"x_min":0,"x_max":0,"o":""},"ğ":{"ha":347,"x_min":0,"x_max":0,"o":""},"İ":{"ha":347,"x_min":0,"x_max":0,"o":""},"Ş":{"ha":347,"x_min":0,"x_max":0,"o":""},"ş":{"ha":347,"x_min":0,"x_max":0,"o":""},"Ć":{"ha":347,"x_min":0,"x_max":0,"o":""},"ć":{"ha":347,"x_min":0,"x_max":0,"o":""},"Č":{"ha":347,"x_min":0,"x_max":0,"o":""},"č":{"ha":347,"x_min":0,"x_max":0,"o":""},"đ":{"ha":347,"x_min":0,"x_max":0,"o":""},"→":{"ha":694,"x_min":0,"x_max":0,"o":""},"⌂":{"ha":347,"x_min":0,"x_max":0,"o":""},"–":{"ha":694,"x_min":0,"x_max":694,"o":"m 0 347 l 694 347 l 694 279 l 0 279 l 0 347 l 0 347 z "},"­":{"ha":694,"x_min":0,"x_max":0,"o":""},"■":{"ha":694,"x_min":0,"x_max":0,"o":""},"•":{"ha":486,"x_min":54,"x_max":431,"o":"m 431 460 q 376 326 431 382 q 243 271 321 271 q 110 326 165 271 q 56 458 56 381 q 109 591 54 536 q 243 646 164 646 q 376 591 321 646 q 431 458 431 536 l 431 460 z "},"¯":{"ha":347,"x_min":0,"x_max":0,"o":""},"°":{"ha":347,"x_min":0,"x_max":0,"o":""},"·":{"ha":347,"x_min":0,"x_max":0,"o":""},"‗":{"ha":347,"x_min":0,"x_max":0,"o":""},"‼":{"ha":347,"x_min":0,"x_max":0,"o":""},"ⁿ":{"ha":347,"x_min":0,"x_max":0,"o":""},"₧":{"ha":347,"x_min":0,"x_max":0,"o":""},"Γ":{"ha":347,"x_min":0,"x_max":0,"o":""},"Θ":{"ha":347,"x_min":0,"x_max":0,"o":""},"Φ":{"ha":347,"x_min":0,"x_max":0,"o":""},"α":{"ha":347,"x_min":0,"x_max":0,"o":""},"δ":{"ha":347,"x_min":0,"x_max":0,"o":""},"ε":{"ha":347,"x_min":0,"x_max":0,"o":""},"σ":{"ha":347,"x_min":0,"x_max":0,"o":""},"τ":{"ha":347,"x_min":0,"x_max":0,"o":""},"φ":{"ha":347,"x_min":0,"x_max":0,"o":""},"←":{"ha":347,"x_min":0,"x_max":0,"o":""},"↑":{"ha":347,"x_min":0,"x_max":0,"o":""},"↓":{"ha":347,"x_min":0,"x_max":0,"o":""},"↔":{"ha":347,"x_min":0,"x_max":0,"o":""},"↕":{"ha":347,"x_min":0,"x_max":0,"o":""},"↨":{"ha":347,"x_min":0,"x_max":0,"o":""},"∟":{"ha":347,"x_min":0,"x_max":0,"o":""},"∩":{"ha":347,"x_min":0,"x_max":0,"o":""},"≡":{"ha":347,"x_min":0,"x_max":0,"o":""},"⌐":{"ha":347,"x_min":0,"x_max":0,"o":""},"⌠":{"ha":347,"x_min":0,"x_max":0,"o":""},"⌡":{"ha":347,"x_min":0,"x_max":0,"o":""},"▬":{"ha":347,"x_min":0,"x_max":0,"o":""},"○":{"ha":347,"x_min":0,"x_max":0,"o":""},"▲":{"ha":347,"x_min":0,"x_max":0,"o":""},"►":{"ha":347,"x_min":0,"x_max":0,"o":""},"▼":{"ha":347,"x_min":0,"x_max":0,"o":""},"◄":{"ha":347,"x_min":0,"x_max":0,"o":""},"◘":{"ha":347,"x_min":0,"x_max":0,"o":""},"◙":{"ha":347,"x_min":0,"x_max":0,"o":""},"Ř":{"ha":347,"x_min":0,"x_max":0,"o":""},"▀":{"ha":347,"x_min":0,"x_max":0,"o":""},"▄":{"ha":347,"x_min":0,"x_max":0,"o":""},"█":{"ha":347,"x_min":0,"x_max":0,"o":""},"▌":{"ha":347,"x_min":0,"x_max":0,"o":""},"▐":{"ha":347,"x_min":0,"x_max":0,"o":""},"░":{"ha":347,"x_min":0,"x_max":0,"o":""},"▒":{"ha":347,"x_min":0,"x_max":0,"o":""},"▓":{"ha":347,"x_min":0,"x_max":0,"o":""},"☺":{"ha":347,"x_min":0,"x_max":0,"o":""},"☻":{"ha":347,"x_min":0,"x_max":0,"o":""},"☼":{"ha":347,"x_min":0,"x_max":0,"o":""},"♀":{"ha":347,"x_min":0,"x_max":0,"o":""},"♂":{"ha":347,"x_min":0,"x_max":0,"o":""},"♠":{"ha":347,"x_min":0,"x_max":0,"o":""},"♣":{"ha":347,"x_min":0,"x_max":0,"o":""},"♥":{"ha":347,"x_min":0,"x_max":0,"o":""},"♦":{"ha":347,"x_min":0,"x_max":0,"o":""},"♪":{"ha":347,"x_min":0,"x_max":0,"o":""},"♫":{"ha":347,"x_min":0,"x_max":0,"o":""},"Ă":{"ha":347,"x_min":0,"x_max":0,"o":""},"ă":{"ha":347,"x_min":0,"x_max":0,"o":""},"Ą":{"ha":347,"x_min":0,"x_max":0,"o":""},"ą":{"ha":347,"x_min":0,"x_max":0,"o":""},"Ď":{"ha":347,"x_min":0,"x_max":0,"o":""},"ď":{"ha":347,"x_min":0,"x_max":0,"o":""},"Đ":{"ha":347,"x_min":0,"x_max":0,"o":""},"Ę":{"ha":347,"x_min":0,"x_max":0,"o":""},"ę":{"ha":347,"x_min":0,"x_max":0,"o":""},"Ě":{"ha":347,"x_min":0,"x_max":0,"o":""},"ě":{"ha":347,"x_min":0,"x_max":0,"o":""},"Ĺ":{"ha":347,"x_min":0,"x_max":0,"o":""},"ĺ":{"ha":347,"x_min":0,"x_max":0,"o":""},"Ľ":{"ha":347,"x_min":0,"x_max":0,"o":""},"ľ":{"ha":347,"x_min":0,"x_max":0,"o":""},"Ń":{"ha":347,"x_min":0,"x_max":0,"o":""},"ń":{"ha":347,"x_min":0,"x_max":0,"o":""},"Ň":{"ha":347,"x_min":0,"x_max":0,"o":""},"ň":{"ha":347,"x_min":0,"x_max":0,"o":""},"Ő":{"ha":347,"x_min":0,"x_max":0,"o":""},"ő":{"ha":347,"x_min":0,"x_max":0,"o":""},"Ŕ":{"ha":347,"x_min":0,"x_max":0,"o":""},"ŕ":{"ha":347,"x_min":0,"x_max":0,"o":""},"ř":{"ha":347,"x_min":0,"x_max":0,"o":""},"Ś":{"ha":347,"x_min":0,"x_max":0,"o":""},"ś":{"ha":347,"x_min":0,"x_max":0,"o":""},"Ţ":{"ha":347,"x_min":0,"x_max":0,"o":""},"ţ":{"ha":347,"x_min":0,"x_max":0,"o":""},"Ť":{"ha":347,"x_min":0,"x_max":0,"o":""},"ť":{"ha":347,"x_min":0,"x_max":0,"o":""},"Ů":{"ha":347,"x_min":0,"x_max":0,"o":""},"ů":{"ha":347,"x_min":0,"x_max":0,"o":""},"ű":{"ha":347,"x_min":0,"x_max":0,"o":""},"Ű":{"ha":347,"x_min":0,"x_max":0,"o":""},"Ź":{"ha":347,"x_min":0,"x_max":0,"o":""},"ź":{"ha":347,"x_min":0,"x_max":0,"o":""},"Ż":{"ha":347,"x_min":0,"x_max":0,"o":""},"ż":{"ha":347,"x_min":0,"x_max":0,"o":""},"Ŀ":{"ha":347,"x_min":0,"x_max":0,"o":""},"ŀ":{"ha":347,"x_min":0,"x_max":0,"o":""},"─":{"ha":347,"x_min":0,"x_max":0,"o":""},"│":{"ha":347,"x_min":0,"x_max":0,"o":""},"┌":{"ha":347,"x_min":0,"x_max":0,"o":""},"┐":{"ha":347,"x_min":0,"x_max":0,"o":""},"└":{"ha":347,"x_min":0,"x_max":0,"o":""},"┘":{"ha":347,"x_min":0,"x_max":0,"o":""},"├":{"ha":347,"x_min":0,"x_max":0,"o":""},"┤":{"ha":347,"x_min":0,"x_max":0,"o":""},"┬":{"ha":347,"x_min":0,"x_max":0,"o":""},"┴":{"ha":347,"x_min":0,"x_max":0,"o":""},"┼":{"ha":347,"x_min":0,"x_max":0,"o":""},"═":{"ha":347,"x_min":0,"x_max":0,"o":""},"║":{"ha":347,"x_min":0,"x_max":0,"o":""},"╒":{"ha":347,"x_min":0,"x_max":0,"o":""},"╓":{"ha":347,"x_min":0,"x_max":0,"o":""},"╔":{"ha":347,"x_min":0,"x_max":0,"o":""},"╕":{"ha":347,"x_min":0,"x_max":0,"o":""},"╖":{"ha":347,"x_min":0,"x_max":0,"o":""},"╗":{"ha":347,"x_min":0,"x_max":0,"o":""},"╘":{"ha":347,"x_min":0,"x_max":0,"o":""},"╙":{"ha":347,"x_min":0,"x_max":0,"o":""},"╚":{"ha":347,"x_min":0,"x_max":0,"o":""},"╛":{"ha":347,"x_min":0,"x_max":0,"o":""},"╜":{"ha":347,"x_min":0,"x_max":0,"o":""},"╝":{"ha":347,"x_min":0,"x_max":0,"o":""},"╞":{"ha":347,"x_min":0,"x_max":0,"o":""},"╟":{"ha":347,"x_min":0,"x_max":0,"o":""},"╠":{"ha":347,"x_min":0,"x_max":0,"o":""},"╡":{"ha":347,"x_min":0,"x_max":0,"o":""},"╢":{"ha":347,"x_min":0,"x_max":0,"o":""},"╣":{"ha":347,"x_min":0,"x_max":0,"o":""},"╤":{"ha":347,"x_min":0,"x_max":0,"o":""},"╥":{"ha":347,"x_min":0,"x_max":0,"o":""},"╦":{"ha":347,"x_min":0,"x_max":0,"o":""},"╧":{"ha":347,"x_min":0,"x_max":0,"o":""},"╨":{"ha":347,"x_min":0,"x_max":0,"o":""},"╩":{"ha":347,"x_min":0,"x_max":0,"o":""},"╪":{"ha":347,"x_min":0,"x_max":0,"o":""},"╫":{"ha":347,"x_min":0,"x_max":0,"o":""},"╬":{"ha":347,"x_min":0,"x_max":0,"o":""}}}
